M48
; DRILL file {KiCad 7.0.11} date Sat Jan 18 22:08:58 2025
; FORMAT={-:-/ absolute / metric / decimal}
; #@! TF.CreationDate,2025-01-18T22:08:58+03:00
; #@! TF.GenerationSoftware,Kicad,Pcbnew,7.0.11
; #@! TF.FileFunction,Plated,1,2,PTH
FMAT,2
METRIC
; #@! TA.AperFunction,Plated,PTH,ViaDrill
T1C0.300
; #@! TA.AperFunction,Plated,PTH,ComponentDrill
T2C0.600
; #@! TA.AperFunction,Plated,PTH,ComponentDrill
T3C0.800
; #@! TA.AperFunction,Plated,PTH,ComponentDrill
T4C1.000
; #@! TA.AperFunction,Plated,PTH,ComponentDrill
T5C1.100
; #@! TA.AperFunction,Plated,PTH,ComponentDrill
T6C1.300
; #@! TA.AperFunction,Plated,PTH,ComponentDrill
T7C1.500
; #@! TA.AperFunction,Plated,PTH,ComponentDrill
T8C1.550
; #@! TA.AperFunction,Plated,PTH,ComponentDrill
T9C2.500
; #@! TA.AperFunction,Plated,PTH,ComponentDrill
T10C3.200
%
G90
G05
T1
X123.147Y-133.668
X129.604Y-101.391
X135.414Y-76.961
X138.85Y-75.182
X147.13Y-74.009
X150.05Y-79.931
X152.954Y-132.237
X152.971Y-45.269
X152.971Y-138.345
X155.892Y-124.122
X161.734Y-139.772
X188.022Y-121.241
T2
X170.128Y-85.065
X171.628Y-85.065
T3
X109.042Y-61.57
X109.042Y-71.73
X113.214Y-61.57
X113.214Y-71.73
X117.386Y-61.57
X117.386Y-71.73
X120.7Y-116.843
X120.7Y-127.003
X121.558Y-61.57
X121.558Y-71.73
X125.425Y-122.064
X125.425Y-127.064
X125.73Y-61.493
X125.73Y-71.653
X130.083Y-84.689
X130.083Y-99.929
X130.219Y-106.898
X130.219Y-111.898
X130.301Y-116.97
X130.301Y-127.13
X132.623Y-84.689
X132.623Y-99.929
X135.163Y-84.689
X135.163Y-99.929
X135.407Y-117.046
X135.407Y-127.206
X137.617Y-60.909
X137.617Y-71.069
X137.703Y-84.689
X137.703Y-99.929
X140.243Y-84.689
X140.243Y-99.929
X142.783Y-84.689
X142.783Y-99.929
X143.942Y-62.433
X143.942Y-77.673
X145.323Y-84.689
X145.323Y-99.929
X147.863Y-84.689
X147.863Y-99.929
X150.403Y-84.689
X150.403Y-99.929
X151.562Y-62.433
X151.562Y-77.673
X152.943Y-84.689
X152.943Y-99.929
X155.483Y-84.689
X155.483Y-99.929
X157.352Y-121.328
X157.352Y-126.328
X158.023Y-84.689
X158.023Y-99.929
X159.004Y-64.795
X159.004Y-74.955
X160.563Y-84.689
X160.563Y-99.929
X163.103Y-84.689
X163.103Y-99.929
X163.906Y-116.182
X163.906Y-126.343
X169.875Y-116.182
X169.875Y-126.343
T4
X107.158Y-42.556
X107.158Y-55.256
X109.698Y-47.636
X115.946Y-42.556
X115.946Y-55.256
X118.486Y-47.636
X120.56Y-135.034
X121.945Y-137.874
X122.352Y-82.271
X122.352Y-84.811
X122.352Y-87.351
X122.352Y-89.891
X122.352Y-92.431
X122.352Y-94.971
X122.352Y-97.511
X122.352Y-100.051
X123.33Y-135.034
X124.715Y-137.874
X124.734Y-42.556
X124.734Y-55.256
X126.1Y-135.034
X127.274Y-47.636
X127.485Y-137.874
X128.87Y-135.034
X130.255Y-137.874
X131.64Y-135.034
X137.693Y-76.073
X137.693Y-78.613
X155.227Y-135.034
X156.612Y-137.874
X157.997Y-135.034
X159.382Y-137.874
X160.767Y-135.034
X162.152Y-137.874
X163.537Y-135.034
X164.922Y-137.874
X166.307Y-135.034
T5
X164.719Y-55.118
X164.719Y-57.658
X164.719Y-60.198
X164.821Y-70.968
X164.821Y-73.508
X164.821Y-76.048
T6
X103.915Y-100.007
X108.915Y-85.007
X113.915Y-100.007
X178.29Y-100.007
X183.29Y-85.007
X188.29Y-100.007
T8
X134.805Y-107.062
X134.805Y-111.862
X139.97Y-107.01
X139.97Y-111.81
X145.136Y-107.011
X145.136Y-111.811
X150.301Y-107.011
X150.301Y-111.811
X155.467Y-107.011
X155.467Y-111.811
T9
X149.348Y-39.973
X158.348Y-39.973
X163.75Y-39.973
X172.75Y-39.973
T10
X113.6Y-135.334
X138.6Y-135.334
X148.267Y-135.334
X173.267Y-135.334
T4
G00X133.823Y-50.219
M15
G01X133.823Y-48.019
M16
G05
G00X139.723Y-45.719
M15
G01X137.523Y-45.719
M16
G05
G00X139.923Y-52.019
M15
G01X137.323Y-52.019
M16
G05
G00X153.848Y-46.873
M15
G01X153.848Y-48.073
M16
G05
G00X168.25Y-46.873
M15
G01X168.25Y-48.073
M16
G05
T7
G00X153.348Y-43.573
M15
G01X154.348Y-43.573
M16
G05
G00X167.75Y-43.573
M15
G01X168.75Y-43.573
M16
G05
M30
