%TF.GenerationSoftware,KiCad,Pcbnew,7.0.11*%
%TF.CreationDate,2025-01-18T22:09:00+03:00*%
%TF.ProjectId,Pong,506f6e67-2e6b-4696-9361-645f70636258,rev?*%
%TF.SameCoordinates,Original*%
%TF.FileFunction,Drillmap*%
%TF.FilePolarity,Positive*%
%FSLAX45Y45*%
G04 Gerber Fmt 4.5, Leading zero omitted, Abs format (unit mm)*
G04 Created by KiCad (PCBNEW 7.0.11) date 2025-01-18 22:09:00*
%MOMM*%
%LPD*%
G01*
G04 APERTURE LIST*
%ADD10C,0.050000*%
%ADD11C,0.200000*%
G04 APERTURE END LIST*
D10*
X18310860Y-7350760D02*
G75*
G03*
X17937212Y-7350760I-186824J0D01*
G01*
X17937212Y-7350760D02*
G75*
G03*
X18310860Y-7350760I186824J0D01*
G01*
X9903460Y-14228140D02*
X9903460Y-3821100D01*
X10003460Y-3721100D02*
X19130340Y-3721100D01*
X19230340Y-3821100D02*
G75*
G03*
X19130340Y-3721100I-100000J0D01*
G01*
X19130340Y-14328140D02*
X10003460Y-14328140D01*
X19130340Y-14328140D02*
G75*
G03*
X19230340Y-14228140I0J100000D01*
G01*
X19230340Y-3821100D02*
X19230340Y-14228140D01*
X18302104Y-5765800D02*
G75*
G03*
X17928456Y-5765800I-186824J0D01*
G01*
X17928456Y-5765800D02*
G75*
G03*
X18302104Y-5765800I186824J0D01*
G01*
X9903460Y-14228140D02*
G75*
G03*
X10003460Y-14328140I100000J0D01*
G01*
X10506844Y-13934440D02*
G75*
G03*
X10133196Y-13934440I-186824J0D01*
G01*
X10133196Y-13934440D02*
G75*
G03*
X10506844Y-13934440I186824J0D01*
G01*
X10003460Y-3721100D02*
G75*
G03*
X9903460Y-3821100I0J-100000D01*
G01*
X10397624Y-4036060D02*
G75*
G03*
X10023976Y-4036060I-186824J0D01*
G01*
X10023976Y-4036060D02*
G75*
G03*
X10397624Y-4036060I186824J0D01*
G01*
X18998064Y-4102100D02*
G75*
G03*
X18624416Y-4102100I-186824J0D01*
G01*
X18624416Y-4102100D02*
G75*
G03*
X18998064Y-4102100I186824J0D01*
G01*
X18992984Y-13982700D02*
G75*
G03*
X18619336Y-13982700I-186824J0D01*
G01*
X18619336Y-13982700D02*
G75*
G03*
X18992984Y-13982700I186824J0D01*
G01*
D11*
X10161737Y-14642124D02*
X10161737Y-14442124D01*
X10161737Y-14442124D02*
X10209356Y-14442124D01*
X10209356Y-14442124D02*
X10237927Y-14451648D01*
X10237927Y-14451648D02*
X10256975Y-14470695D01*
X10256975Y-14470695D02*
X10266499Y-14489743D01*
X10266499Y-14489743D02*
X10276023Y-14527838D01*
X10276023Y-14527838D02*
X10276023Y-14556409D01*
X10276023Y-14556409D02*
X10266499Y-14594505D01*
X10266499Y-14594505D02*
X10256975Y-14613552D01*
X10256975Y-14613552D02*
X10237927Y-14632600D01*
X10237927Y-14632600D02*
X10209356Y-14642124D01*
X10209356Y-14642124D02*
X10161737Y-14642124D01*
X10361737Y-14642124D02*
X10361737Y-14508790D01*
X10361737Y-14546886D02*
X10371261Y-14527838D01*
X10371261Y-14527838D02*
X10380784Y-14518314D01*
X10380784Y-14518314D02*
X10399832Y-14508790D01*
X10399832Y-14508790D02*
X10418880Y-14508790D01*
X10485546Y-14642124D02*
X10485546Y-14508790D01*
X10485546Y-14442124D02*
X10476023Y-14451648D01*
X10476023Y-14451648D02*
X10485546Y-14461171D01*
X10485546Y-14461171D02*
X10495070Y-14451648D01*
X10495070Y-14451648D02*
X10485546Y-14442124D01*
X10485546Y-14442124D02*
X10485546Y-14461171D01*
X10609356Y-14642124D02*
X10590308Y-14632600D01*
X10590308Y-14632600D02*
X10580784Y-14613552D01*
X10580784Y-14613552D02*
X10580784Y-14442124D01*
X10714118Y-14642124D02*
X10695070Y-14632600D01*
X10695070Y-14632600D02*
X10685546Y-14613552D01*
X10685546Y-14613552D02*
X10685546Y-14442124D01*
X10942689Y-14642124D02*
X10942689Y-14442124D01*
X10942689Y-14442124D02*
X11009356Y-14584981D01*
X11009356Y-14584981D02*
X11076023Y-14442124D01*
X11076023Y-14442124D02*
X11076023Y-14642124D01*
X11256975Y-14642124D02*
X11256975Y-14537362D01*
X11256975Y-14537362D02*
X11247451Y-14518314D01*
X11247451Y-14518314D02*
X11228403Y-14508790D01*
X11228403Y-14508790D02*
X11190308Y-14508790D01*
X11190308Y-14508790D02*
X11171261Y-14518314D01*
X11256975Y-14632600D02*
X11237927Y-14642124D01*
X11237927Y-14642124D02*
X11190308Y-14642124D01*
X11190308Y-14642124D02*
X11171261Y-14632600D01*
X11171261Y-14632600D02*
X11161737Y-14613552D01*
X11161737Y-14613552D02*
X11161737Y-14594505D01*
X11161737Y-14594505D02*
X11171261Y-14575457D01*
X11171261Y-14575457D02*
X11190308Y-14565933D01*
X11190308Y-14565933D02*
X11237927Y-14565933D01*
X11237927Y-14565933D02*
X11256975Y-14556409D01*
X11352213Y-14508790D02*
X11352213Y-14708790D01*
X11352213Y-14518314D02*
X11371261Y-14508790D01*
X11371261Y-14508790D02*
X11409356Y-14508790D01*
X11409356Y-14508790D02*
X11428403Y-14518314D01*
X11428403Y-14518314D02*
X11437927Y-14527838D01*
X11437927Y-14527838D02*
X11447451Y-14546886D01*
X11447451Y-14546886D02*
X11447451Y-14604028D01*
X11447451Y-14604028D02*
X11437927Y-14623076D01*
X11437927Y-14623076D02*
X11428403Y-14632600D01*
X11428403Y-14632600D02*
X11409356Y-14642124D01*
X11409356Y-14642124D02*
X11371261Y-14642124D01*
X11371261Y-14642124D02*
X11352213Y-14632600D01*
X11533165Y-14623076D02*
X11542689Y-14632600D01*
X11542689Y-14632600D02*
X11533165Y-14642124D01*
X11533165Y-14642124D02*
X11523642Y-14632600D01*
X11523642Y-14632600D02*
X11533165Y-14623076D01*
X11533165Y-14623076D02*
X11533165Y-14642124D01*
X11533165Y-14518314D02*
X11542689Y-14527838D01*
X11542689Y-14527838D02*
X11533165Y-14537362D01*
X11533165Y-14537362D02*
X11523642Y-14527838D01*
X11523642Y-14527838D02*
X11533165Y-14518314D01*
X11533165Y-14518314D02*
X11533165Y-14537362D01*
M02*
