%TF.GenerationSoftware,KiCad,Pcbnew,7.0.11*%
%TF.CreationDate,2025-01-18T22:09:00+03:00*%
%TF.ProjectId,Pong,506f6e67-2e6b-4696-9361-645f70636258,rev?*%
%TF.SameCoordinates,Original*%
%TF.FileFunction,Drillmap*%
%TF.FilePolarity,Positive*%
%FSLAX45Y45*%
G04 Gerber Fmt 4.5, Leading zero omitted, Abs format (unit mm)*
G04 Created by KiCad (PCBNEW 7.0.11) date 2025-01-18 22:09:00*
%MOMM*%
%LPD*%
G01*
G04 APERTURE LIST*
%ADD10C,0.050000*%
%ADD11C,0.200000*%
%ADD12C,0.100000*%
%ADD13C,0.110000*%
%ADD14C,0.130000*%
%ADD15C,0.150000*%
%ADD16C,0.155000*%
%ADD17C,0.250000*%
%ADD18C,0.320000*%
G04 APERTURE END LIST*
D10*
X18310860Y-7350760D02*
G75*
G03*
X17937212Y-7350760I-186824J0D01*
G01*
X17937212Y-7350760D02*
G75*
G03*
X18310860Y-7350760I186824J0D01*
G01*
X9903460Y-14228140D02*
X9903460Y-3821100D01*
X10003460Y-3721100D02*
X19130340Y-3721100D01*
X19230340Y-3821100D02*
G75*
G03*
X19130340Y-3721100I-100000J0D01*
G01*
X19130340Y-14328140D02*
X10003460Y-14328140D01*
X19130340Y-14328140D02*
G75*
G03*
X19230340Y-14228140I0J100000D01*
G01*
X19230340Y-3821100D02*
X19230340Y-14228140D01*
X18302104Y-5765800D02*
G75*
G03*
X17928456Y-5765800I-186824J0D01*
G01*
X17928456Y-5765800D02*
G75*
G03*
X18302104Y-5765800I186824J0D01*
G01*
X9903460Y-14228140D02*
G75*
G03*
X10003460Y-14328140I100000J0D01*
G01*
X10506844Y-13934440D02*
G75*
G03*
X10133196Y-13934440I-186824J0D01*
G01*
X10133196Y-13934440D02*
G75*
G03*
X10506844Y-13934440I186824J0D01*
G01*
X10003460Y-3721100D02*
G75*
G03*
X9903460Y-3821100I0J-100000D01*
G01*
X10397624Y-4036060D02*
G75*
G03*
X10023976Y-4036060I-186824J0D01*
G01*
X10023976Y-4036060D02*
G75*
G03*
X10397624Y-4036060I186824J0D01*
G01*
X18998064Y-4102100D02*
G75*
G03*
X18624416Y-4102100I-186824J0D01*
G01*
X18624416Y-4102100D02*
G75*
G03*
X18998064Y-4102100I186824J0D01*
G01*
X18992984Y-13982700D02*
G75*
G03*
X18619336Y-13982700I-186824J0D01*
G01*
X18619336Y-13982700D02*
G75*
G03*
X18992984Y-13982700I186824J0D01*
G01*
D11*
D12*
X12299710Y-13351820D02*
X12329710Y-13381820D01*
X12329710Y-13351820D02*
X12299710Y-13381820D01*
X12945410Y-10124080D02*
X12975410Y-10154080D01*
X12975410Y-10124080D02*
X12945410Y-10154080D01*
X13526440Y-7681100D02*
X13556440Y-7711100D01*
X13556440Y-7681100D02*
X13526440Y-7711100D01*
X13870020Y-7503210D02*
X13900020Y-7533210D01*
X13900020Y-7503210D02*
X13870020Y-7533210D01*
X14697950Y-7385900D02*
X14727950Y-7415900D01*
X14727950Y-7385900D02*
X14697950Y-7415900D01*
X14990040Y-7978110D02*
X15020040Y-8008110D01*
X15020040Y-7978110D02*
X14990040Y-8008110D01*
X15280360Y-13208650D02*
X15310360Y-13238650D01*
X15310360Y-13208650D02*
X15280360Y-13238650D01*
X15282130Y-4511880D02*
X15312130Y-4541880D01*
X15312130Y-4511880D02*
X15282130Y-4541880D01*
X15282130Y-13819490D02*
X15312130Y-13849490D01*
X15312130Y-13819490D02*
X15282130Y-13849490D01*
X15574220Y-12397240D02*
X15604220Y-12427240D01*
X15604220Y-12397240D02*
X15574220Y-12427240D01*
X16158400Y-13962240D02*
X16188400Y-13992240D01*
X16188400Y-13962240D02*
X16158400Y-13992240D01*
X18787210Y-12109100D02*
X18817210Y-12139100D01*
X18817210Y-12109100D02*
X18787210Y-12139100D01*
X17042780Y-8506460D02*
G75*
G03*
X16982780Y-8506460I-30000J0D01*
G01*
X16982780Y-8506460D02*
G75*
G03*
X17042780Y-8506460I30000J0D01*
G01*
X17192780Y-8506460D02*
G75*
G03*
X17132780Y-8506460I-30000J0D01*
G01*
X17132780Y-8506460D02*
G75*
G03*
X17192780Y-8506460I30000J0D01*
G01*
X10904220Y-6116960D02*
X10904220Y-6196960D01*
X10864220Y-6156960D02*
X10944220Y-6156960D01*
X10904220Y-7132960D02*
X10904220Y-7212960D01*
X10864220Y-7172960D02*
X10944220Y-7172960D01*
X11321420Y-6116960D02*
X11321420Y-6196960D01*
X11281420Y-6156960D02*
X11361420Y-6156960D01*
X11321420Y-7132960D02*
X11321420Y-7212960D01*
X11281420Y-7172960D02*
X11361420Y-7172960D01*
X11738610Y-6116960D02*
X11738610Y-6196960D01*
X11698610Y-6156960D02*
X11778610Y-6156960D01*
X11738610Y-7132960D02*
X11738610Y-7212960D01*
X11698610Y-7172960D02*
X11778610Y-7172960D01*
X12070020Y-11644290D02*
X12070020Y-11724290D01*
X12030020Y-11684290D02*
X12110020Y-11684290D01*
X12070020Y-12660290D02*
X12070020Y-12740290D01*
X12030020Y-12700290D02*
X12110020Y-12700290D01*
X12155810Y-6116960D02*
X12155810Y-6196960D01*
X12115810Y-6156960D02*
X12195810Y-6156960D01*
X12155810Y-7132960D02*
X12155810Y-7212960D01*
X12115810Y-7172960D02*
X12195810Y-7172960D01*
X12542460Y-12166450D02*
X12542460Y-12246450D01*
X12502460Y-12206450D02*
X12582460Y-12206450D01*
X12542460Y-12666450D02*
X12542460Y-12746450D01*
X12502460Y-12706450D02*
X12582460Y-12706450D01*
X12573000Y-6109340D02*
X12573000Y-6189340D01*
X12533000Y-6149340D02*
X12613000Y-6149340D01*
X12573000Y-7125340D02*
X12573000Y-7205340D01*
X12533000Y-7165340D02*
X12613000Y-7165340D01*
X13008340Y-8428860D02*
X13008340Y-8508860D01*
X12968340Y-8468860D02*
X13048340Y-8468860D01*
X13008340Y-9952860D02*
X13008340Y-10032860D01*
X12968340Y-9992860D02*
X13048340Y-9992860D01*
X13021900Y-10649840D02*
X13021900Y-10729840D01*
X12981900Y-10689840D02*
X13061900Y-10689840D01*
X13021900Y-11149840D02*
X13021900Y-11229840D01*
X12981900Y-11189840D02*
X13061900Y-11189840D01*
X13030140Y-11656990D02*
X13030140Y-11736990D01*
X12990140Y-11696990D02*
X13070140Y-11696990D01*
X13030140Y-12672990D02*
X13030140Y-12752990D01*
X12990140Y-12712990D02*
X13070140Y-12712990D01*
X13262340Y-8428860D02*
X13262340Y-8508860D01*
X13222340Y-8468860D02*
X13302340Y-8468860D01*
X13262340Y-9952860D02*
X13262340Y-10032860D01*
X13222340Y-9992860D02*
X13302340Y-9992860D01*
X13516340Y-8428860D02*
X13516340Y-8508860D01*
X13476340Y-8468860D02*
X13556340Y-8468860D01*
X13516340Y-9952860D02*
X13516340Y-10032860D01*
X13476340Y-9992860D02*
X13556340Y-9992860D01*
X13540680Y-11664610D02*
X13540680Y-11744610D01*
X13500680Y-11704610D02*
X13580680Y-11704610D01*
X13540680Y-12680610D02*
X13540680Y-12760610D01*
X13500680Y-12720610D02*
X13580680Y-12720610D01*
X13761720Y-6050920D02*
X13761720Y-6130920D01*
X13721720Y-6090920D02*
X13801720Y-6090920D01*
X13761720Y-7066920D02*
X13761720Y-7146920D01*
X13721720Y-7106920D02*
X13801720Y-7106920D01*
X13770340Y-8428860D02*
X13770340Y-8508860D01*
X13730340Y-8468860D02*
X13810340Y-8468860D01*
X13770340Y-9952860D02*
X13770340Y-10032860D01*
X13730340Y-9992860D02*
X13810340Y-9992860D01*
X14024340Y-8428860D02*
X14024340Y-8508860D01*
X13984340Y-8468860D02*
X14064340Y-8468860D01*
X14024340Y-9952860D02*
X14024340Y-10032860D01*
X13984340Y-9992860D02*
X14064340Y-9992860D01*
X14278340Y-8428860D02*
X14278340Y-8508860D01*
X14238340Y-8468860D02*
X14318340Y-8468860D01*
X14278340Y-9952860D02*
X14278340Y-10032860D01*
X14238340Y-9992860D02*
X14318340Y-9992860D01*
X14394180Y-6203320D02*
X14394180Y-6283320D01*
X14354180Y-6243320D02*
X14434180Y-6243320D01*
X14394180Y-7727320D02*
X14394180Y-7807320D01*
X14354180Y-7767320D02*
X14434180Y-7767320D01*
X14532340Y-8428860D02*
X14532340Y-8508860D01*
X14492340Y-8468860D02*
X14572340Y-8468860D01*
X14532340Y-9952860D02*
X14532340Y-10032860D01*
X14492340Y-9992860D02*
X14572340Y-9992860D01*
X14786340Y-8428860D02*
X14786340Y-8508860D01*
X14746340Y-8468860D02*
X14826340Y-8468860D01*
X14786340Y-9952860D02*
X14786340Y-10032860D01*
X14746340Y-9992860D02*
X14826340Y-9992860D01*
X15040340Y-8428860D02*
X15040340Y-8508860D01*
X15000340Y-8468860D02*
X15080340Y-8468860D01*
X15040340Y-9952860D02*
X15040340Y-10032860D01*
X15000340Y-9992860D02*
X15080340Y-9992860D01*
X15156180Y-6203320D02*
X15156180Y-6283320D01*
X15116180Y-6243320D02*
X15196180Y-6243320D01*
X15156180Y-7727320D02*
X15156180Y-7807320D01*
X15116180Y-7767320D02*
X15196180Y-7767320D01*
X15294340Y-8428860D02*
X15294340Y-8508860D01*
X15254340Y-8468860D02*
X15334340Y-8468860D01*
X15294340Y-9952860D02*
X15294340Y-10032860D01*
X15254340Y-9992860D02*
X15334340Y-9992860D01*
X15548340Y-8428860D02*
X15548340Y-8508860D01*
X15508340Y-8468860D02*
X15588340Y-8468860D01*
X15548340Y-9952860D02*
X15548340Y-10032860D01*
X15508340Y-9992860D02*
X15588340Y-9992860D01*
X15735240Y-12092790D02*
X15735240Y-12172790D01*
X15695240Y-12132790D02*
X15775240Y-12132790D01*
X15735240Y-12592790D02*
X15735240Y-12672790D01*
X15695240Y-12632790D02*
X15775240Y-12632790D01*
X15802340Y-8428860D02*
X15802340Y-8508860D01*
X15762340Y-8468860D02*
X15842340Y-8468860D01*
X15802340Y-9952860D02*
X15802340Y-10032860D01*
X15762340Y-9992860D02*
X15842340Y-9992860D01*
X15900400Y-6439540D02*
X15900400Y-6519540D01*
X15860400Y-6479540D02*
X15940400Y-6479540D01*
X15900400Y-7455540D02*
X15900400Y-7535540D01*
X15860400Y-7495540D02*
X15940400Y-7495540D01*
X16056340Y-8428860D02*
X16056340Y-8508860D01*
X16016340Y-8468860D02*
X16096340Y-8468860D01*
X16056340Y-9952860D02*
X16056340Y-10032860D01*
X16016340Y-9992860D02*
X16096340Y-9992860D01*
X16310340Y-8428860D02*
X16310340Y-8508860D01*
X16270340Y-8468860D02*
X16350340Y-8468860D01*
X16310340Y-9952860D02*
X16310340Y-10032860D01*
X16270340Y-9992860D02*
X16350340Y-9992860D01*
X16390560Y-11578250D02*
X16390560Y-11658250D01*
X16350560Y-11618250D02*
X16430560Y-11618250D01*
X16390560Y-12594250D02*
X16390560Y-12674250D01*
X16350560Y-12634250D02*
X16430560Y-12634250D01*
X16987460Y-11578250D02*
X16987460Y-11658250D01*
X16947460Y-11618250D02*
X17027460Y-11618250D01*
X16987460Y-12594250D02*
X16987460Y-12674250D01*
X16947460Y-12634250D02*
X17027460Y-12634250D01*
X10751116Y-4290996D02*
X10751116Y-4220284D01*
X10680404Y-4220284D01*
X10680404Y-4290996D01*
X10751116Y-4290996D01*
X10751116Y-5560996D02*
X10751116Y-5490284D01*
X10680404Y-5490284D01*
X10680404Y-5560996D01*
X10751116Y-5560996D01*
X11005116Y-4798996D02*
X11005116Y-4728284D01*
X10934404Y-4728284D01*
X10934404Y-4798996D01*
X11005116Y-4798996D01*
X11629956Y-4290996D02*
X11629956Y-4220284D01*
X11559244Y-4220284D01*
X11559244Y-4290996D01*
X11629956Y-4290996D01*
X11629956Y-5560996D02*
X11629956Y-5490284D01*
X11559244Y-5490284D01*
X11559244Y-5560996D01*
X11629956Y-5560996D01*
X11883956Y-4798996D02*
X11883956Y-4728284D01*
X11813244Y-4728284D01*
X11813244Y-4798996D01*
X11883956Y-4798996D01*
X12091336Y-13538766D02*
X12091336Y-13468054D01*
X12020624Y-13468054D01*
X12020624Y-13538766D01*
X12091336Y-13538766D01*
X12229836Y-13822766D02*
X12229836Y-13752054D01*
X12159124Y-13752054D01*
X12159124Y-13822766D01*
X12229836Y-13822766D01*
X12270536Y-8262416D02*
X12270536Y-8191704D01*
X12199824Y-8191704D01*
X12199824Y-8262416D01*
X12270536Y-8262416D01*
X12270536Y-8516416D02*
X12270536Y-8445704D01*
X12199824Y-8445704D01*
X12199824Y-8516416D01*
X12270536Y-8516416D01*
X12270536Y-8770416D02*
X12270536Y-8699704D01*
X12199824Y-8699704D01*
X12199824Y-8770416D01*
X12270536Y-8770416D01*
X12270536Y-9024416D02*
X12270536Y-8953704D01*
X12199824Y-8953704D01*
X12199824Y-9024416D01*
X12270536Y-9024416D01*
X12270536Y-9278416D02*
X12270536Y-9207704D01*
X12199824Y-9207704D01*
X12199824Y-9278416D01*
X12270536Y-9278416D01*
X12270536Y-9532416D02*
X12270536Y-9461704D01*
X12199824Y-9461704D01*
X12199824Y-9532416D01*
X12270536Y-9532416D01*
X12270536Y-9786416D02*
X12270536Y-9715704D01*
X12199824Y-9715704D01*
X12199824Y-9786416D01*
X12270536Y-9786416D01*
X12270536Y-10040416D02*
X12270536Y-9969704D01*
X12199824Y-9969704D01*
X12199824Y-10040416D01*
X12270536Y-10040416D01*
X12368336Y-13538766D02*
X12368336Y-13468054D01*
X12297624Y-13468054D01*
X12297624Y-13538766D01*
X12368336Y-13538766D01*
X12506836Y-13822766D02*
X12506836Y-13752054D01*
X12436124Y-13752054D01*
X12436124Y-13822766D01*
X12506836Y-13822766D01*
X12508796Y-4290996D02*
X12508796Y-4220284D01*
X12438084Y-4220284D01*
X12438084Y-4290996D01*
X12508796Y-4290996D01*
X12508796Y-5560996D02*
X12508796Y-5490284D01*
X12438084Y-5490284D01*
X12438084Y-5560996D01*
X12508796Y-5560996D01*
X12645336Y-13538766D02*
X12645336Y-13468054D01*
X12574624Y-13468054D01*
X12574624Y-13538766D01*
X12645336Y-13538766D01*
X12762796Y-4798996D02*
X12762796Y-4728284D01*
X12692084Y-4728284D01*
X12692084Y-4798996D01*
X12762796Y-4798996D01*
X12783836Y-13822766D02*
X12783836Y-13752054D01*
X12713124Y-13752054D01*
X12713124Y-13822766D01*
X12783836Y-13822766D01*
X12922336Y-13538766D02*
X12922336Y-13468054D01*
X12851624Y-13468054D01*
X12851624Y-13538766D01*
X12922336Y-13538766D01*
X13060836Y-13822766D02*
X13060836Y-13752054D01*
X12990124Y-13752054D01*
X12990124Y-13822766D01*
X13060836Y-13822766D01*
X13199336Y-13538766D02*
X13199336Y-13468054D01*
X13128624Y-13468054D01*
X13128624Y-13538766D01*
X13199336Y-13538766D01*
X13417636Y-4947276D02*
X13417636Y-4876564D01*
X13346924Y-4876564D01*
X13346924Y-4947276D01*
X13417636Y-4947276D01*
X13432280Y-5021920D02*
X13432280Y-4801920D01*
X13432280Y-4801920D02*
G75*
G03*
X13332280Y-4801920I-50000J0D01*
G01*
X13332280Y-4801920D02*
X13332280Y-5021920D01*
X13332280Y-5021920D02*
G75*
G03*
X13432280Y-5021920I50000J0D01*
G01*
X13804696Y-7642656D02*
X13804696Y-7571944D01*
X13733984Y-7571944D01*
X13733984Y-7642656D01*
X13804696Y-7642656D01*
X13804696Y-7896656D02*
X13804696Y-7825944D01*
X13733984Y-7825944D01*
X13733984Y-7896656D01*
X13804696Y-7896656D01*
X13897636Y-4607276D02*
X13897636Y-4536564D01*
X13826924Y-4536564D01*
X13826924Y-4607276D01*
X13897636Y-4607276D01*
X13972280Y-4521920D02*
X13752280Y-4521920D01*
X13752280Y-4521920D02*
G75*
G03*
X13752280Y-4621920I0J-50000D01*
G01*
X13752280Y-4621920D02*
X13972280Y-4621920D01*
X13972280Y-4621920D02*
G75*
G03*
X13972280Y-4521920I0J50000D01*
G01*
X13897636Y-5237276D02*
X13897636Y-5166564D01*
X13826924Y-5166564D01*
X13826924Y-5237276D01*
X13897636Y-5237276D01*
X13992280Y-5151920D02*
X13732280Y-5151920D01*
X13732280Y-5151920D02*
G75*
G03*
X13732280Y-5251920I0J-50000D01*
G01*
X13732280Y-5251920D02*
X13992280Y-5251920D01*
X13992280Y-5251920D02*
G75*
G03*
X13992280Y-5151920I0J50000D01*
G01*
X15420136Y-4782616D02*
X15420136Y-4711904D01*
X15349424Y-4711904D01*
X15349424Y-4782616D01*
X15420136Y-4782616D01*
X15334780Y-4687260D02*
X15334780Y-4807260D01*
X15334780Y-4807260D02*
G75*
G03*
X15434780Y-4807260I50000J0D01*
G01*
X15434780Y-4807260D02*
X15434780Y-4687260D01*
X15434780Y-4687260D02*
G75*
G03*
X15334780Y-4687260I-50000J0D01*
G01*
X15558016Y-13538766D02*
X15558016Y-13468054D01*
X15487304Y-13468054D01*
X15487304Y-13538766D01*
X15558016Y-13538766D01*
X15696516Y-13822766D02*
X15696516Y-13752054D01*
X15625804Y-13752054D01*
X15625804Y-13822766D01*
X15696516Y-13822766D01*
X15835016Y-13538766D02*
X15835016Y-13468054D01*
X15764304Y-13468054D01*
X15764304Y-13538766D01*
X15835016Y-13538766D01*
X15973516Y-13822766D02*
X15973516Y-13752054D01*
X15902804Y-13752054D01*
X15902804Y-13822766D01*
X15973516Y-13822766D01*
X16112016Y-13538766D02*
X16112016Y-13468054D01*
X16041304Y-13468054D01*
X16041304Y-13538766D01*
X16112016Y-13538766D01*
X16250516Y-13822766D02*
X16250516Y-13752054D01*
X16179804Y-13752054D01*
X16179804Y-13822766D01*
X16250516Y-13822766D01*
X16389016Y-13538766D02*
X16389016Y-13468054D01*
X16318304Y-13468054D01*
X16318304Y-13538766D01*
X16389016Y-13538766D01*
X16527516Y-13822766D02*
X16527516Y-13752054D01*
X16456804Y-13752054D01*
X16456804Y-13822766D01*
X16527516Y-13822766D01*
X16666016Y-13538766D02*
X16666016Y-13468054D01*
X16595304Y-13468054D01*
X16595304Y-13538766D01*
X16666016Y-13538766D01*
X16860316Y-4782616D02*
X16860316Y-4711904D01*
X16789604Y-4711904D01*
X16789604Y-4782616D01*
X16860316Y-4782616D01*
X16774960Y-4687260D02*
X16774960Y-4807260D01*
X16774960Y-4807260D02*
G75*
G03*
X16874960Y-4807260I50000J0D01*
G01*
X16874960Y-4807260D02*
X16874960Y-4687260D01*
X16874960Y-4687260D02*
G75*
G03*
X16774960Y-4687260I-50000J0D01*
G01*
D13*
X16471900Y-5566800D02*
X16526900Y-5511800D01*
X16471900Y-5456800D01*
X16416900Y-5511800D01*
X16471900Y-5566800D01*
X16471900Y-5820800D02*
X16526900Y-5765800D01*
X16471900Y-5710800D01*
X16416900Y-5765800D01*
X16471900Y-5820800D01*
X16471900Y-6074800D02*
X16526900Y-6019800D01*
X16471900Y-5964800D01*
X16416900Y-6019800D01*
X16471900Y-6074800D01*
X16482060Y-7151760D02*
X16537060Y-7096760D01*
X16482060Y-7041760D01*
X16427060Y-7096760D01*
X16482060Y-7151760D01*
X16482060Y-7405760D02*
X16537060Y-7350760D01*
X16482060Y-7295760D01*
X16427060Y-7350760D01*
X16482060Y-7405760D01*
X16482060Y-7659760D02*
X16537060Y-7604760D01*
X16482060Y-7549760D01*
X16427060Y-7604760D01*
X16482060Y-7659760D01*
D14*
X10326520Y-9935680D02*
X10456520Y-10065680D01*
X10456520Y-9935680D02*
X10326520Y-10065680D01*
X10456520Y-10000680D02*
G75*
G03*
X10326520Y-10000680I-65000J0D01*
G01*
X10326520Y-10000680D02*
G75*
G03*
X10456520Y-10000680I65000J0D01*
G01*
X10826520Y-8435680D02*
X10956520Y-8565680D01*
X10956520Y-8435680D02*
X10826520Y-8565680D01*
X10956520Y-8500680D02*
G75*
G03*
X10826520Y-8500680I-65000J0D01*
G01*
X10826520Y-8500680D02*
G75*
G03*
X10956520Y-8500680I65000J0D01*
G01*
X11326520Y-9935680D02*
X11456520Y-10065680D01*
X11456520Y-9935680D02*
X11326520Y-10065680D01*
X11456520Y-10000680D02*
G75*
G03*
X11326520Y-10000680I-65000J0D01*
G01*
X11326520Y-10000680D02*
G75*
G03*
X11456520Y-10000680I65000J0D01*
G01*
X17764020Y-9935680D02*
X17894020Y-10065680D01*
X17894020Y-9935680D02*
X17764020Y-10065680D01*
X17894020Y-10000680D02*
G75*
G03*
X17764020Y-10000680I-65000J0D01*
G01*
X17764020Y-10000680D02*
G75*
G03*
X17894020Y-10000680I65000J0D01*
G01*
X18264020Y-8435680D02*
X18394020Y-8565680D01*
X18394020Y-8435680D02*
X18264020Y-8565680D01*
X18394020Y-8500680D02*
G75*
G03*
X18264020Y-8500680I-65000J0D01*
G01*
X18264020Y-8500680D02*
G75*
G03*
X18394020Y-8500680I65000J0D01*
G01*
X18764020Y-9935680D02*
X18894020Y-10065680D01*
X18894020Y-9935680D02*
X18764020Y-10065680D01*
X18894020Y-10000680D02*
G75*
G03*
X18764020Y-10000680I-65000J0D01*
G01*
X18764020Y-10000680D02*
G75*
G03*
X18894020Y-10000680I65000J0D01*
G01*
D15*
X15309780Y-4282260D02*
X15459780Y-4432260D01*
X15459780Y-4282260D02*
X15309780Y-4432260D01*
X15384780Y-4282260D02*
X15384780Y-4432260D01*
X15309780Y-4357260D02*
X15459780Y-4357260D01*
D12*
X15334780Y-4432260D02*
X15434780Y-4432260D01*
X15434780Y-4432260D02*
G75*
G03*
X15434780Y-4282260I0J75000D01*
G01*
X15434780Y-4282260D02*
X15334780Y-4282260D01*
X15334780Y-4282260D02*
G75*
G03*
X15334780Y-4432260I0J-75000D01*
G01*
D15*
X16749960Y-4282260D02*
X16899960Y-4432260D01*
X16899960Y-4282260D02*
X16749960Y-4432260D01*
X16824960Y-4282260D02*
X16824960Y-4432260D01*
X16749960Y-4357260D02*
X16899960Y-4357260D01*
D12*
X16774960Y-4432260D02*
X16874960Y-4432260D01*
X16874960Y-4432260D02*
G75*
G03*
X16874960Y-4282260I0J75000D01*
G01*
X16874960Y-4282260D02*
X16774960Y-4282260D01*
X16774960Y-4282260D02*
G75*
G03*
X16774960Y-4432260I0J-75000D01*
G01*
D16*
X13402960Y-10628720D02*
X13557960Y-10783720D01*
X13557960Y-10628720D02*
X13402960Y-10783720D01*
X13535261Y-10761021D02*
X13535261Y-10651419D01*
X13425659Y-10651419D01*
X13425659Y-10761021D01*
X13535261Y-10761021D01*
X13402960Y-11108720D02*
X13557960Y-11263720D01*
X13557960Y-11108720D02*
X13402960Y-11263720D01*
X13535261Y-11241021D02*
X13535261Y-11131419D01*
X13425659Y-11131419D01*
X13425659Y-11241021D01*
X13535261Y-11241021D01*
X13919510Y-10623520D02*
X14074510Y-10778520D01*
X14074510Y-10623520D02*
X13919510Y-10778520D01*
X14051811Y-10755821D02*
X14051811Y-10646219D01*
X13942209Y-10646219D01*
X13942209Y-10755821D01*
X14051811Y-10755821D01*
X13919510Y-11103520D02*
X14074510Y-11258520D01*
X14074510Y-11103520D02*
X13919510Y-11258520D01*
X14051811Y-11235821D02*
X14051811Y-11126219D01*
X13942209Y-11126219D01*
X13942209Y-11235821D01*
X14051811Y-11235821D01*
X14436060Y-10623580D02*
X14591060Y-10778580D01*
X14591060Y-10623580D02*
X14436060Y-10778580D01*
X14568361Y-10755881D02*
X14568361Y-10646279D01*
X14458759Y-10646279D01*
X14458759Y-10755881D01*
X14568361Y-10755881D01*
X14436060Y-11103580D02*
X14591060Y-11258580D01*
X14591060Y-11103580D02*
X14436060Y-11258580D01*
X14568361Y-11235881D02*
X14568361Y-11126279D01*
X14458759Y-11126279D01*
X14458759Y-11235881D01*
X14568361Y-11235881D01*
X14952610Y-10623580D02*
X15107610Y-10778580D01*
X15107610Y-10623580D02*
X14952610Y-10778580D01*
X15084911Y-10755881D02*
X15084911Y-10646279D01*
X14975309Y-10646279D01*
X14975309Y-10755881D01*
X15084911Y-10755881D01*
X14952610Y-11103580D02*
X15107610Y-11258580D01*
X15107610Y-11103580D02*
X14952610Y-11258580D01*
X15084911Y-11235881D02*
X15084911Y-11126279D01*
X14975309Y-11126279D01*
X14975309Y-11235881D01*
X15084911Y-11235881D01*
X15469160Y-10623580D02*
X15624160Y-10778580D01*
X15624160Y-10623580D02*
X15469160Y-10778580D01*
X15601461Y-10755881D02*
X15601461Y-10646279D01*
X15491859Y-10646279D01*
X15491859Y-10755881D01*
X15601461Y-10755881D01*
X15469160Y-11103580D02*
X15624160Y-11258580D01*
X15624160Y-11103580D02*
X15469160Y-11258580D01*
X15601461Y-11235881D02*
X15601461Y-11126279D01*
X15491859Y-11126279D01*
X15491859Y-11235881D01*
X15601461Y-11235881D01*
D17*
X14809780Y-3872260D02*
X15059780Y-4122260D01*
X15059780Y-3872260D02*
X14809780Y-4122260D01*
X14934780Y-4122260D02*
X15059780Y-3997260D01*
X14934780Y-3872260D01*
X14809780Y-3997260D01*
X14934780Y-4122260D01*
X15709780Y-3872260D02*
X15959780Y-4122260D01*
X15959780Y-3872260D02*
X15709780Y-4122260D01*
X15834780Y-4122260D02*
X15959780Y-3997260D01*
X15834780Y-3872260D01*
X15709780Y-3997260D01*
X15834780Y-4122260D01*
X16249960Y-3872260D02*
X16499960Y-4122260D01*
X16499960Y-3872260D02*
X16249960Y-4122260D01*
X16374960Y-4122260D02*
X16499960Y-3997260D01*
X16374960Y-3872260D01*
X16249960Y-3997260D01*
X16374960Y-4122260D01*
X17149960Y-3872260D02*
X17399960Y-4122260D01*
X17399960Y-3872260D02*
X17149960Y-4122260D01*
X17274960Y-4122260D02*
X17399960Y-3997260D01*
X17274960Y-3872260D01*
X17149960Y-3997260D01*
X17274960Y-4122260D01*
D18*
X11359980Y-13373410D02*
X11359980Y-13693410D01*
X11199980Y-13533410D02*
X11519980Y-13533410D01*
X11519980Y-13533410D02*
G75*
G03*
X11199980Y-13533410I-160000J0D01*
G01*
X11199980Y-13533410D02*
G75*
G03*
X11519980Y-13533410I160000J0D01*
G01*
X13859980Y-13373410D02*
X13859980Y-13693410D01*
X13699980Y-13533410D02*
X14019980Y-13533410D01*
X14019980Y-13533410D02*
G75*
G03*
X13699980Y-13533410I-160000J0D01*
G01*
X13699980Y-13533410D02*
G75*
G03*
X14019980Y-13533410I160000J0D01*
G01*
X14826660Y-13373410D02*
X14826660Y-13693410D01*
X14666660Y-13533410D02*
X14986660Y-13533410D01*
X14986660Y-13533410D02*
G75*
G03*
X14666660Y-13533410I-160000J0D01*
G01*
X14666660Y-13533410D02*
G75*
G03*
X14986660Y-13533410I160000J0D01*
G01*
X17326660Y-13373410D02*
X17326660Y-13693410D01*
X17166660Y-13533410D02*
X17486660Y-13533410D01*
X17486660Y-13533410D02*
G75*
G03*
X17166660Y-13533410I-160000J0D01*
G01*
X17166660Y-13533410D02*
G75*
G03*
X17486660Y-13533410I160000J0D01*
G01*
D11*
X10161737Y-14642124D02*
X10161737Y-14442124D01*
X10161737Y-14442124D02*
X10209356Y-14442124D01*
X10209356Y-14442124D02*
X10237927Y-14451648D01*
X10237927Y-14451648D02*
X10256975Y-14470695D01*
X10256975Y-14470695D02*
X10266499Y-14489743D01*
X10266499Y-14489743D02*
X10276023Y-14527838D01*
X10276023Y-14527838D02*
X10276023Y-14556409D01*
X10276023Y-14556409D02*
X10266499Y-14594505D01*
X10266499Y-14594505D02*
X10256975Y-14613552D01*
X10256975Y-14613552D02*
X10237927Y-14632600D01*
X10237927Y-14632600D02*
X10209356Y-14642124D01*
X10209356Y-14642124D02*
X10161737Y-14642124D01*
X10361737Y-14642124D02*
X10361737Y-14508790D01*
X10361737Y-14546886D02*
X10371261Y-14527838D01*
X10371261Y-14527838D02*
X10380784Y-14518314D01*
X10380784Y-14518314D02*
X10399832Y-14508790D01*
X10399832Y-14508790D02*
X10418880Y-14508790D01*
X10485546Y-14642124D02*
X10485546Y-14508790D01*
X10485546Y-14442124D02*
X10476023Y-14451648D01*
X10476023Y-14451648D02*
X10485546Y-14461171D01*
X10485546Y-14461171D02*
X10495070Y-14451648D01*
X10495070Y-14451648D02*
X10485546Y-14442124D01*
X10485546Y-14442124D02*
X10485546Y-14461171D01*
X10609356Y-14642124D02*
X10590308Y-14632600D01*
X10590308Y-14632600D02*
X10580784Y-14613552D01*
X10580784Y-14613552D02*
X10580784Y-14442124D01*
X10714118Y-14642124D02*
X10695070Y-14632600D01*
X10695070Y-14632600D02*
X10685546Y-14613552D01*
X10685546Y-14613552D02*
X10685546Y-14442124D01*
X10942689Y-14642124D02*
X10942689Y-14442124D01*
X10942689Y-14442124D02*
X11009356Y-14584981D01*
X11009356Y-14584981D02*
X11076023Y-14442124D01*
X11076023Y-14442124D02*
X11076023Y-14642124D01*
X11256975Y-14642124D02*
X11256975Y-14537362D01*
X11256975Y-14537362D02*
X11247451Y-14518314D01*
X11247451Y-14518314D02*
X11228403Y-14508790D01*
X11228403Y-14508790D02*
X11190308Y-14508790D01*
X11190308Y-14508790D02*
X11171261Y-14518314D01*
X11256975Y-14632600D02*
X11237927Y-14642124D01*
X11237927Y-14642124D02*
X11190308Y-14642124D01*
X11190308Y-14642124D02*
X11171261Y-14632600D01*
X11171261Y-14632600D02*
X11161737Y-14613552D01*
X11161737Y-14613552D02*
X11161737Y-14594505D01*
X11161737Y-14594505D02*
X11171261Y-14575457D01*
X11171261Y-14575457D02*
X11190308Y-14565933D01*
X11190308Y-14565933D02*
X11237927Y-14565933D01*
X11237927Y-14565933D02*
X11256975Y-14556409D01*
X11352213Y-14508790D02*
X11352213Y-14708790D01*
X11352213Y-14518314D02*
X11371261Y-14508790D01*
X11371261Y-14508790D02*
X11409356Y-14508790D01*
X11409356Y-14508790D02*
X11428403Y-14518314D01*
X11428403Y-14518314D02*
X11437927Y-14527838D01*
X11437927Y-14527838D02*
X11447451Y-14546886D01*
X11447451Y-14546886D02*
X11447451Y-14604028D01*
X11447451Y-14604028D02*
X11437927Y-14623076D01*
X11437927Y-14623076D02*
X11428403Y-14632600D01*
X11428403Y-14632600D02*
X11409356Y-14642124D01*
X11409356Y-14642124D02*
X11371261Y-14642124D01*
X11371261Y-14642124D02*
X11352213Y-14632600D01*
X11533165Y-14623076D02*
X11542689Y-14632600D01*
X11542689Y-14632600D02*
X11533165Y-14642124D01*
X11533165Y-14642124D02*
X11523642Y-14632600D01*
X11523642Y-14632600D02*
X11533165Y-14623076D01*
X11533165Y-14623076D02*
X11533165Y-14642124D01*
X11533165Y-14518314D02*
X11542689Y-14527838D01*
X11542689Y-14527838D02*
X11533165Y-14537362D01*
X11533165Y-14537362D02*
X11523642Y-14527838D01*
X11523642Y-14527838D02*
X11533165Y-14518314D01*
X11533165Y-14518314D02*
X11533165Y-14537362D01*
D12*
X9870960Y-14955640D02*
X9900960Y-14985640D01*
X9900960Y-14955640D02*
X9870960Y-14985640D01*
D11*
X10199832Y-14862124D02*
X10218880Y-14862124D01*
X10218880Y-14862124D02*
X10237927Y-14871648D01*
X10237927Y-14871648D02*
X10247451Y-14881171D01*
X10247451Y-14881171D02*
X10256975Y-14900219D01*
X10256975Y-14900219D02*
X10266499Y-14938314D01*
X10266499Y-14938314D02*
X10266499Y-14985933D01*
X10266499Y-14985933D02*
X10256975Y-15024028D01*
X10256975Y-15024028D02*
X10247451Y-15043076D01*
X10247451Y-15043076D02*
X10237927Y-15052600D01*
X10237927Y-15052600D02*
X10218880Y-15062124D01*
X10218880Y-15062124D02*
X10199832Y-15062124D01*
X10199832Y-15062124D02*
X10180784Y-15052600D01*
X10180784Y-15052600D02*
X10171261Y-15043076D01*
X10171261Y-15043076D02*
X10161737Y-15024028D01*
X10161737Y-15024028D02*
X10152213Y-14985933D01*
X10152213Y-14985933D02*
X10152213Y-14938314D01*
X10152213Y-14938314D02*
X10161737Y-14900219D01*
X10161737Y-14900219D02*
X10171261Y-14881171D01*
X10171261Y-14881171D02*
X10180784Y-14871648D01*
X10180784Y-14871648D02*
X10199832Y-14862124D01*
X10352213Y-15043076D02*
X10361737Y-15052600D01*
X10361737Y-15052600D02*
X10352213Y-15062124D01*
X10352213Y-15062124D02*
X10342689Y-15052600D01*
X10342689Y-15052600D02*
X10352213Y-15043076D01*
X10352213Y-15043076D02*
X10352213Y-15062124D01*
X10428404Y-14862124D02*
X10552213Y-14862124D01*
X10552213Y-14862124D02*
X10485546Y-14938314D01*
X10485546Y-14938314D02*
X10514118Y-14938314D01*
X10514118Y-14938314D02*
X10533165Y-14947838D01*
X10533165Y-14947838D02*
X10542689Y-14957362D01*
X10542689Y-14957362D02*
X10552213Y-14976409D01*
X10552213Y-14976409D02*
X10552213Y-15024028D01*
X10552213Y-15024028D02*
X10542689Y-15043076D01*
X10542689Y-15043076D02*
X10533165Y-15052600D01*
X10533165Y-15052600D02*
X10514118Y-15062124D01*
X10514118Y-15062124D02*
X10456975Y-15062124D01*
X10456975Y-15062124D02*
X10437927Y-15052600D01*
X10437927Y-15052600D02*
X10428404Y-15043076D01*
X10676023Y-14862124D02*
X10695070Y-14862124D01*
X10695070Y-14862124D02*
X10714118Y-14871648D01*
X10714118Y-14871648D02*
X10723642Y-14881171D01*
X10723642Y-14881171D02*
X10733165Y-14900219D01*
X10733165Y-14900219D02*
X10742689Y-14938314D01*
X10742689Y-14938314D02*
X10742689Y-14985933D01*
X10742689Y-14985933D02*
X10733165Y-15024028D01*
X10733165Y-15024028D02*
X10723642Y-15043076D01*
X10723642Y-15043076D02*
X10714118Y-15052600D01*
X10714118Y-15052600D02*
X10695070Y-15062124D01*
X10695070Y-15062124D02*
X10676023Y-15062124D01*
X10676023Y-15062124D02*
X10656975Y-15052600D01*
X10656975Y-15052600D02*
X10647451Y-15043076D01*
X10647451Y-15043076D02*
X10637927Y-15024028D01*
X10637927Y-15024028D02*
X10628404Y-14985933D01*
X10628404Y-14985933D02*
X10628404Y-14938314D01*
X10628404Y-14938314D02*
X10637927Y-14900219D01*
X10637927Y-14900219D02*
X10647451Y-14881171D01*
X10647451Y-14881171D02*
X10656975Y-14871648D01*
X10656975Y-14871648D02*
X10676023Y-14862124D01*
X10866499Y-14862124D02*
X10885546Y-14862124D01*
X10885546Y-14862124D02*
X10904594Y-14871648D01*
X10904594Y-14871648D02*
X10914118Y-14881171D01*
X10914118Y-14881171D02*
X10923642Y-14900219D01*
X10923642Y-14900219D02*
X10933165Y-14938314D01*
X10933165Y-14938314D02*
X10933165Y-14985933D01*
X10933165Y-14985933D02*
X10923642Y-15024028D01*
X10923642Y-15024028D02*
X10914118Y-15043076D01*
X10914118Y-15043076D02*
X10904594Y-15052600D01*
X10904594Y-15052600D02*
X10885546Y-15062124D01*
X10885546Y-15062124D02*
X10866499Y-15062124D01*
X10866499Y-15062124D02*
X10847451Y-15052600D01*
X10847451Y-15052600D02*
X10837927Y-15043076D01*
X10837927Y-15043076D02*
X10828404Y-15024028D01*
X10828404Y-15024028D02*
X10818880Y-14985933D01*
X10818880Y-14985933D02*
X10818880Y-14938314D01*
X10818880Y-14938314D02*
X10828404Y-14900219D01*
X10828404Y-14900219D02*
X10837927Y-14881171D01*
X10837927Y-14881171D02*
X10847451Y-14871648D01*
X10847451Y-14871648D02*
X10866499Y-14862124D01*
X11018880Y-15062124D02*
X11018880Y-14928790D01*
X11018880Y-14947838D02*
X11028404Y-14938314D01*
X11028404Y-14938314D02*
X11047451Y-14928790D01*
X11047451Y-14928790D02*
X11076023Y-14928790D01*
X11076023Y-14928790D02*
X11095070Y-14938314D01*
X11095070Y-14938314D02*
X11104594Y-14957362D01*
X11104594Y-14957362D02*
X11104594Y-15062124D01*
X11104594Y-14957362D02*
X11114118Y-14938314D01*
X11114118Y-14938314D02*
X11133165Y-14928790D01*
X11133165Y-14928790D02*
X11161737Y-14928790D01*
X11161737Y-14928790D02*
X11180785Y-14938314D01*
X11180785Y-14938314D02*
X11190308Y-14957362D01*
X11190308Y-14957362D02*
X11190308Y-15062124D01*
X11285546Y-15062124D02*
X11285546Y-14928790D01*
X11285546Y-14947838D02*
X11295070Y-14938314D01*
X11295070Y-14938314D02*
X11314118Y-14928790D01*
X11314118Y-14928790D02*
X11342689Y-14928790D01*
X11342689Y-14928790D02*
X11361737Y-14938314D01*
X11361737Y-14938314D02*
X11371261Y-14957362D01*
X11371261Y-14957362D02*
X11371261Y-15062124D01*
X11371261Y-14957362D02*
X11380784Y-14938314D01*
X11380784Y-14938314D02*
X11399832Y-14928790D01*
X11399832Y-14928790D02*
X11428403Y-14928790D01*
X11428403Y-14928790D02*
X11447451Y-14938314D01*
X11447451Y-14938314D02*
X11456975Y-14957362D01*
X11456975Y-14957362D02*
X11456975Y-15062124D01*
X11847451Y-14852600D02*
X11676023Y-15109743D01*
X12104594Y-14862124D02*
X12123642Y-14862124D01*
X12123642Y-14862124D02*
X12142689Y-14871648D01*
X12142689Y-14871648D02*
X12152213Y-14881171D01*
X12152213Y-14881171D02*
X12161737Y-14900219D01*
X12161737Y-14900219D02*
X12171261Y-14938314D01*
X12171261Y-14938314D02*
X12171261Y-14985933D01*
X12171261Y-14985933D02*
X12161737Y-15024028D01*
X12161737Y-15024028D02*
X12152213Y-15043076D01*
X12152213Y-15043076D02*
X12142689Y-15052600D01*
X12142689Y-15052600D02*
X12123642Y-15062124D01*
X12123642Y-15062124D02*
X12104594Y-15062124D01*
X12104594Y-15062124D02*
X12085546Y-15052600D01*
X12085546Y-15052600D02*
X12076023Y-15043076D01*
X12076023Y-15043076D02*
X12066499Y-15024028D01*
X12066499Y-15024028D02*
X12056975Y-14985933D01*
X12056975Y-14985933D02*
X12056975Y-14938314D01*
X12056975Y-14938314D02*
X12066499Y-14900219D01*
X12066499Y-14900219D02*
X12076023Y-14881171D01*
X12076023Y-14881171D02*
X12085546Y-14871648D01*
X12085546Y-14871648D02*
X12104594Y-14862124D01*
X12256975Y-15043076D02*
X12266499Y-15052600D01*
X12266499Y-15052600D02*
X12256975Y-15062124D01*
X12256975Y-15062124D02*
X12247451Y-15052600D01*
X12247451Y-15052600D02*
X12256975Y-15043076D01*
X12256975Y-15043076D02*
X12256975Y-15062124D01*
X12390308Y-14862124D02*
X12409356Y-14862124D01*
X12409356Y-14862124D02*
X12428404Y-14871648D01*
X12428404Y-14871648D02*
X12437927Y-14881171D01*
X12437927Y-14881171D02*
X12447451Y-14900219D01*
X12447451Y-14900219D02*
X12456975Y-14938314D01*
X12456975Y-14938314D02*
X12456975Y-14985933D01*
X12456975Y-14985933D02*
X12447451Y-15024028D01*
X12447451Y-15024028D02*
X12437927Y-15043076D01*
X12437927Y-15043076D02*
X12428404Y-15052600D01*
X12428404Y-15052600D02*
X12409356Y-15062124D01*
X12409356Y-15062124D02*
X12390308Y-15062124D01*
X12390308Y-15062124D02*
X12371261Y-15052600D01*
X12371261Y-15052600D02*
X12361737Y-15043076D01*
X12361737Y-15043076D02*
X12352213Y-15024028D01*
X12352213Y-15024028D02*
X12342689Y-14985933D01*
X12342689Y-14985933D02*
X12342689Y-14938314D01*
X12342689Y-14938314D02*
X12352213Y-14900219D01*
X12352213Y-14900219D02*
X12361737Y-14881171D01*
X12361737Y-14881171D02*
X12371261Y-14871648D01*
X12371261Y-14871648D02*
X12390308Y-14862124D01*
X12647451Y-15062124D02*
X12533166Y-15062124D01*
X12590308Y-15062124D02*
X12590308Y-14862124D01*
X12590308Y-14862124D02*
X12571261Y-14890695D01*
X12571261Y-14890695D02*
X12552213Y-14909743D01*
X12552213Y-14909743D02*
X12533166Y-14919267D01*
X12837927Y-15062124D02*
X12723642Y-15062124D01*
X12780785Y-15062124D02*
X12780785Y-14862124D01*
X12780785Y-14862124D02*
X12761737Y-14890695D01*
X12761737Y-14890695D02*
X12742689Y-14909743D01*
X12742689Y-14909743D02*
X12723642Y-14919267D01*
X12952213Y-14947838D02*
X12933166Y-14938314D01*
X12933166Y-14938314D02*
X12923642Y-14928790D01*
X12923642Y-14928790D02*
X12914118Y-14909743D01*
X12914118Y-14909743D02*
X12914118Y-14900219D01*
X12914118Y-14900219D02*
X12923642Y-14881171D01*
X12923642Y-14881171D02*
X12933166Y-14871648D01*
X12933166Y-14871648D02*
X12952213Y-14862124D01*
X12952213Y-14862124D02*
X12990308Y-14862124D01*
X12990308Y-14862124D02*
X13009356Y-14871648D01*
X13009356Y-14871648D02*
X13018880Y-14881171D01*
X13018880Y-14881171D02*
X13028404Y-14900219D01*
X13028404Y-14900219D02*
X13028404Y-14909743D01*
X13028404Y-14909743D02*
X13018880Y-14928790D01*
X13018880Y-14928790D02*
X13009356Y-14938314D01*
X13009356Y-14938314D02*
X12990308Y-14947838D01*
X12990308Y-14947838D02*
X12952213Y-14947838D01*
X12952213Y-14947838D02*
X12933166Y-14957362D01*
X12933166Y-14957362D02*
X12923642Y-14966886D01*
X12923642Y-14966886D02*
X12914118Y-14985933D01*
X12914118Y-14985933D02*
X12914118Y-15024028D01*
X12914118Y-15024028D02*
X12923642Y-15043076D01*
X12923642Y-15043076D02*
X12933166Y-15052600D01*
X12933166Y-15052600D02*
X12952213Y-15062124D01*
X12952213Y-15062124D02*
X12990308Y-15062124D01*
X12990308Y-15062124D02*
X13009356Y-15052600D01*
X13009356Y-15052600D02*
X13018880Y-15043076D01*
X13018880Y-15043076D02*
X13028404Y-15024028D01*
X13028404Y-15024028D02*
X13028404Y-14985933D01*
X13028404Y-14985933D02*
X13018880Y-14966886D01*
X13018880Y-14966886D02*
X13009356Y-14957362D01*
X13009356Y-14957362D02*
X12990308Y-14947838D01*
X13104594Y-14862124D02*
X13104594Y-14900219D01*
X13180785Y-14862124D02*
X13180785Y-14900219D01*
X13476023Y-15138314D02*
X13466499Y-15128790D01*
X13466499Y-15128790D02*
X13447451Y-15100219D01*
X13447451Y-15100219D02*
X13437928Y-15081171D01*
X13437928Y-15081171D02*
X13428404Y-15052600D01*
X13428404Y-15052600D02*
X13418880Y-15004981D01*
X13418880Y-15004981D02*
X13418880Y-14966886D01*
X13418880Y-14966886D02*
X13428404Y-14919267D01*
X13428404Y-14919267D02*
X13437928Y-14890695D01*
X13437928Y-14890695D02*
X13447451Y-14871648D01*
X13447451Y-14871648D02*
X13466499Y-14843076D01*
X13466499Y-14843076D02*
X13476023Y-14833552D01*
X13656975Y-15062124D02*
X13542689Y-15062124D01*
X13599832Y-15062124D02*
X13599832Y-14862124D01*
X13599832Y-14862124D02*
X13580785Y-14890695D01*
X13580785Y-14890695D02*
X13561737Y-14909743D01*
X13561737Y-14909743D02*
X13542689Y-14919267D01*
X13733166Y-14881171D02*
X13742689Y-14871648D01*
X13742689Y-14871648D02*
X13761737Y-14862124D01*
X13761737Y-14862124D02*
X13809356Y-14862124D01*
X13809356Y-14862124D02*
X13828404Y-14871648D01*
X13828404Y-14871648D02*
X13837928Y-14881171D01*
X13837928Y-14881171D02*
X13847451Y-14900219D01*
X13847451Y-14900219D02*
X13847451Y-14919267D01*
X13847451Y-14919267D02*
X13837928Y-14947838D01*
X13837928Y-14947838D02*
X13723642Y-15062124D01*
X13723642Y-15062124D02*
X13847451Y-15062124D01*
X14085547Y-15062124D02*
X14085547Y-14862124D01*
X14171261Y-15062124D02*
X14171261Y-14957362D01*
X14171261Y-14957362D02*
X14161737Y-14938314D01*
X14161737Y-14938314D02*
X14142690Y-14928790D01*
X14142690Y-14928790D02*
X14114118Y-14928790D01*
X14114118Y-14928790D02*
X14095070Y-14938314D01*
X14095070Y-14938314D02*
X14085547Y-14947838D01*
X14295070Y-15062124D02*
X14276023Y-15052600D01*
X14276023Y-15052600D02*
X14266499Y-15043076D01*
X14266499Y-15043076D02*
X14256975Y-15024028D01*
X14256975Y-15024028D02*
X14256975Y-14966886D01*
X14256975Y-14966886D02*
X14266499Y-14947838D01*
X14266499Y-14947838D02*
X14276023Y-14938314D01*
X14276023Y-14938314D02*
X14295070Y-14928790D01*
X14295070Y-14928790D02*
X14323642Y-14928790D01*
X14323642Y-14928790D02*
X14342690Y-14938314D01*
X14342690Y-14938314D02*
X14352213Y-14947838D01*
X14352213Y-14947838D02*
X14361737Y-14966886D01*
X14361737Y-14966886D02*
X14361737Y-15024028D01*
X14361737Y-15024028D02*
X14352213Y-15043076D01*
X14352213Y-15043076D02*
X14342690Y-15052600D01*
X14342690Y-15052600D02*
X14323642Y-15062124D01*
X14323642Y-15062124D02*
X14295070Y-15062124D01*
X14476023Y-15062124D02*
X14456975Y-15052600D01*
X14456975Y-15052600D02*
X14447451Y-15033552D01*
X14447451Y-15033552D02*
X14447451Y-14862124D01*
X14628404Y-15052600D02*
X14609356Y-15062124D01*
X14609356Y-15062124D02*
X14571261Y-15062124D01*
X14571261Y-15062124D02*
X14552213Y-15052600D01*
X14552213Y-15052600D02*
X14542690Y-15033552D01*
X14542690Y-15033552D02*
X14542690Y-14957362D01*
X14542690Y-14957362D02*
X14552213Y-14938314D01*
X14552213Y-14938314D02*
X14571261Y-14928790D01*
X14571261Y-14928790D02*
X14609356Y-14928790D01*
X14609356Y-14928790D02*
X14628404Y-14938314D01*
X14628404Y-14938314D02*
X14637928Y-14957362D01*
X14637928Y-14957362D02*
X14637928Y-14976409D01*
X14637928Y-14976409D02*
X14542690Y-14995457D01*
X14714118Y-15052600D02*
X14733166Y-15062124D01*
X14733166Y-15062124D02*
X14771261Y-15062124D01*
X14771261Y-15062124D02*
X14790309Y-15052600D01*
X14790309Y-15052600D02*
X14799832Y-15033552D01*
X14799832Y-15033552D02*
X14799832Y-15024028D01*
X14799832Y-15024028D02*
X14790309Y-15004981D01*
X14790309Y-15004981D02*
X14771261Y-14995457D01*
X14771261Y-14995457D02*
X14742690Y-14995457D01*
X14742690Y-14995457D02*
X14723642Y-14985933D01*
X14723642Y-14985933D02*
X14714118Y-14966886D01*
X14714118Y-14966886D02*
X14714118Y-14957362D01*
X14714118Y-14957362D02*
X14723642Y-14938314D01*
X14723642Y-14938314D02*
X14742690Y-14928790D01*
X14742690Y-14928790D02*
X14771261Y-14928790D01*
X14771261Y-14928790D02*
X14790309Y-14938314D01*
X14866499Y-15138314D02*
X14876023Y-15128790D01*
X14876023Y-15128790D02*
X14895071Y-15100219D01*
X14895071Y-15100219D02*
X14904594Y-15081171D01*
X14904594Y-15081171D02*
X14914118Y-15052600D01*
X14914118Y-15052600D02*
X14923642Y-15004981D01*
X14923642Y-15004981D02*
X14923642Y-14966886D01*
X14923642Y-14966886D02*
X14914118Y-14919267D01*
X14914118Y-14919267D02*
X14904594Y-14890695D01*
X14904594Y-14890695D02*
X14895071Y-14871648D01*
X14895071Y-14871648D02*
X14876023Y-14843076D01*
X14876023Y-14843076D02*
X14866499Y-14833552D01*
D12*
X9900960Y-15234640D02*
G75*
G03*
X9840960Y-15234640I-30000J0D01*
G01*
X9840960Y-15234640D02*
G75*
G03*
X9900960Y-15234640I30000J0D01*
G01*
D11*
X10199832Y-15126124D02*
X10218880Y-15126124D01*
X10218880Y-15126124D02*
X10237927Y-15135648D01*
X10237927Y-15135648D02*
X10247451Y-15145171D01*
X10247451Y-15145171D02*
X10256975Y-15164219D01*
X10256975Y-15164219D02*
X10266499Y-15202314D01*
X10266499Y-15202314D02*
X10266499Y-15249933D01*
X10266499Y-15249933D02*
X10256975Y-15288028D01*
X10256975Y-15288028D02*
X10247451Y-15307076D01*
X10247451Y-15307076D02*
X10237927Y-15316600D01*
X10237927Y-15316600D02*
X10218880Y-15326124D01*
X10218880Y-15326124D02*
X10199832Y-15326124D01*
X10199832Y-15326124D02*
X10180784Y-15316600D01*
X10180784Y-15316600D02*
X10171261Y-15307076D01*
X10171261Y-15307076D02*
X10161737Y-15288028D01*
X10161737Y-15288028D02*
X10152213Y-15249933D01*
X10152213Y-15249933D02*
X10152213Y-15202314D01*
X10152213Y-15202314D02*
X10161737Y-15164219D01*
X10161737Y-15164219D02*
X10171261Y-15145171D01*
X10171261Y-15145171D02*
X10180784Y-15135648D01*
X10180784Y-15135648D02*
X10199832Y-15126124D01*
X10352213Y-15307076D02*
X10361737Y-15316600D01*
X10361737Y-15316600D02*
X10352213Y-15326124D01*
X10352213Y-15326124D02*
X10342689Y-15316600D01*
X10342689Y-15316600D02*
X10352213Y-15307076D01*
X10352213Y-15307076D02*
X10352213Y-15326124D01*
X10533165Y-15126124D02*
X10495070Y-15126124D01*
X10495070Y-15126124D02*
X10476023Y-15135648D01*
X10476023Y-15135648D02*
X10466499Y-15145171D01*
X10466499Y-15145171D02*
X10447451Y-15173743D01*
X10447451Y-15173743D02*
X10437927Y-15211838D01*
X10437927Y-15211838D02*
X10437927Y-15288028D01*
X10437927Y-15288028D02*
X10447451Y-15307076D01*
X10447451Y-15307076D02*
X10456975Y-15316600D01*
X10456975Y-15316600D02*
X10476023Y-15326124D01*
X10476023Y-15326124D02*
X10514118Y-15326124D01*
X10514118Y-15326124D02*
X10533165Y-15316600D01*
X10533165Y-15316600D02*
X10542689Y-15307076D01*
X10542689Y-15307076D02*
X10552213Y-15288028D01*
X10552213Y-15288028D02*
X10552213Y-15240409D01*
X10552213Y-15240409D02*
X10542689Y-15221362D01*
X10542689Y-15221362D02*
X10533165Y-15211838D01*
X10533165Y-15211838D02*
X10514118Y-15202314D01*
X10514118Y-15202314D02*
X10476023Y-15202314D01*
X10476023Y-15202314D02*
X10456975Y-15211838D01*
X10456975Y-15211838D02*
X10447451Y-15221362D01*
X10447451Y-15221362D02*
X10437927Y-15240409D01*
X10676023Y-15126124D02*
X10695070Y-15126124D01*
X10695070Y-15126124D02*
X10714118Y-15135648D01*
X10714118Y-15135648D02*
X10723642Y-15145171D01*
X10723642Y-15145171D02*
X10733165Y-15164219D01*
X10733165Y-15164219D02*
X10742689Y-15202314D01*
X10742689Y-15202314D02*
X10742689Y-15249933D01*
X10742689Y-15249933D02*
X10733165Y-15288028D01*
X10733165Y-15288028D02*
X10723642Y-15307076D01*
X10723642Y-15307076D02*
X10714118Y-15316600D01*
X10714118Y-15316600D02*
X10695070Y-15326124D01*
X10695070Y-15326124D02*
X10676023Y-15326124D01*
X10676023Y-15326124D02*
X10656975Y-15316600D01*
X10656975Y-15316600D02*
X10647451Y-15307076D01*
X10647451Y-15307076D02*
X10637927Y-15288028D01*
X10637927Y-15288028D02*
X10628404Y-15249933D01*
X10628404Y-15249933D02*
X10628404Y-15202314D01*
X10628404Y-15202314D02*
X10637927Y-15164219D01*
X10637927Y-15164219D02*
X10647451Y-15145171D01*
X10647451Y-15145171D02*
X10656975Y-15135648D01*
X10656975Y-15135648D02*
X10676023Y-15126124D01*
X10866499Y-15126124D02*
X10885546Y-15126124D01*
X10885546Y-15126124D02*
X10904594Y-15135648D01*
X10904594Y-15135648D02*
X10914118Y-15145171D01*
X10914118Y-15145171D02*
X10923642Y-15164219D01*
X10923642Y-15164219D02*
X10933165Y-15202314D01*
X10933165Y-15202314D02*
X10933165Y-15249933D01*
X10933165Y-15249933D02*
X10923642Y-15288028D01*
X10923642Y-15288028D02*
X10914118Y-15307076D01*
X10914118Y-15307076D02*
X10904594Y-15316600D01*
X10904594Y-15316600D02*
X10885546Y-15326124D01*
X10885546Y-15326124D02*
X10866499Y-15326124D01*
X10866499Y-15326124D02*
X10847451Y-15316600D01*
X10847451Y-15316600D02*
X10837927Y-15307076D01*
X10837927Y-15307076D02*
X10828404Y-15288028D01*
X10828404Y-15288028D02*
X10818880Y-15249933D01*
X10818880Y-15249933D02*
X10818880Y-15202314D01*
X10818880Y-15202314D02*
X10828404Y-15164219D01*
X10828404Y-15164219D02*
X10837927Y-15145171D01*
X10837927Y-15145171D02*
X10847451Y-15135648D01*
X10847451Y-15135648D02*
X10866499Y-15126124D01*
X11018880Y-15326124D02*
X11018880Y-15192790D01*
X11018880Y-15211838D02*
X11028404Y-15202314D01*
X11028404Y-15202314D02*
X11047451Y-15192790D01*
X11047451Y-15192790D02*
X11076023Y-15192790D01*
X11076023Y-15192790D02*
X11095070Y-15202314D01*
X11095070Y-15202314D02*
X11104594Y-15221362D01*
X11104594Y-15221362D02*
X11104594Y-15326124D01*
X11104594Y-15221362D02*
X11114118Y-15202314D01*
X11114118Y-15202314D02*
X11133165Y-15192790D01*
X11133165Y-15192790D02*
X11161737Y-15192790D01*
X11161737Y-15192790D02*
X11180785Y-15202314D01*
X11180785Y-15202314D02*
X11190308Y-15221362D01*
X11190308Y-15221362D02*
X11190308Y-15326124D01*
X11285546Y-15326124D02*
X11285546Y-15192790D01*
X11285546Y-15211838D02*
X11295070Y-15202314D01*
X11295070Y-15202314D02*
X11314118Y-15192790D01*
X11314118Y-15192790D02*
X11342689Y-15192790D01*
X11342689Y-15192790D02*
X11361737Y-15202314D01*
X11361737Y-15202314D02*
X11371261Y-15221362D01*
X11371261Y-15221362D02*
X11371261Y-15326124D01*
X11371261Y-15221362D02*
X11380784Y-15202314D01*
X11380784Y-15202314D02*
X11399832Y-15192790D01*
X11399832Y-15192790D02*
X11428403Y-15192790D01*
X11428403Y-15192790D02*
X11447451Y-15202314D01*
X11447451Y-15202314D02*
X11456975Y-15221362D01*
X11456975Y-15221362D02*
X11456975Y-15326124D01*
X11847451Y-15116600D02*
X11676023Y-15373743D01*
X12104594Y-15126124D02*
X12123642Y-15126124D01*
X12123642Y-15126124D02*
X12142689Y-15135648D01*
X12142689Y-15135648D02*
X12152213Y-15145171D01*
X12152213Y-15145171D02*
X12161737Y-15164219D01*
X12161737Y-15164219D02*
X12171261Y-15202314D01*
X12171261Y-15202314D02*
X12171261Y-15249933D01*
X12171261Y-15249933D02*
X12161737Y-15288028D01*
X12161737Y-15288028D02*
X12152213Y-15307076D01*
X12152213Y-15307076D02*
X12142689Y-15316600D01*
X12142689Y-15316600D02*
X12123642Y-15326124D01*
X12123642Y-15326124D02*
X12104594Y-15326124D01*
X12104594Y-15326124D02*
X12085546Y-15316600D01*
X12085546Y-15316600D02*
X12076023Y-15307076D01*
X12076023Y-15307076D02*
X12066499Y-15288028D01*
X12066499Y-15288028D02*
X12056975Y-15249933D01*
X12056975Y-15249933D02*
X12056975Y-15202314D01*
X12056975Y-15202314D02*
X12066499Y-15164219D01*
X12066499Y-15164219D02*
X12076023Y-15145171D01*
X12076023Y-15145171D02*
X12085546Y-15135648D01*
X12085546Y-15135648D02*
X12104594Y-15126124D01*
X12256975Y-15307076D02*
X12266499Y-15316600D01*
X12266499Y-15316600D02*
X12256975Y-15326124D01*
X12256975Y-15326124D02*
X12247451Y-15316600D01*
X12247451Y-15316600D02*
X12256975Y-15307076D01*
X12256975Y-15307076D02*
X12256975Y-15326124D01*
X12390308Y-15126124D02*
X12409356Y-15126124D01*
X12409356Y-15126124D02*
X12428404Y-15135648D01*
X12428404Y-15135648D02*
X12437927Y-15145171D01*
X12437927Y-15145171D02*
X12447451Y-15164219D01*
X12447451Y-15164219D02*
X12456975Y-15202314D01*
X12456975Y-15202314D02*
X12456975Y-15249933D01*
X12456975Y-15249933D02*
X12447451Y-15288028D01*
X12447451Y-15288028D02*
X12437927Y-15307076D01*
X12437927Y-15307076D02*
X12428404Y-15316600D01*
X12428404Y-15316600D02*
X12409356Y-15326124D01*
X12409356Y-15326124D02*
X12390308Y-15326124D01*
X12390308Y-15326124D02*
X12371261Y-15316600D01*
X12371261Y-15316600D02*
X12361737Y-15307076D01*
X12361737Y-15307076D02*
X12352213Y-15288028D01*
X12352213Y-15288028D02*
X12342689Y-15249933D01*
X12342689Y-15249933D02*
X12342689Y-15202314D01*
X12342689Y-15202314D02*
X12352213Y-15164219D01*
X12352213Y-15164219D02*
X12361737Y-15145171D01*
X12361737Y-15145171D02*
X12371261Y-15135648D01*
X12371261Y-15135648D02*
X12390308Y-15126124D01*
X12533166Y-15145171D02*
X12542689Y-15135648D01*
X12542689Y-15135648D02*
X12561737Y-15126124D01*
X12561737Y-15126124D02*
X12609356Y-15126124D01*
X12609356Y-15126124D02*
X12628404Y-15135648D01*
X12628404Y-15135648D02*
X12637927Y-15145171D01*
X12637927Y-15145171D02*
X12647451Y-15164219D01*
X12647451Y-15164219D02*
X12647451Y-15183267D01*
X12647451Y-15183267D02*
X12637927Y-15211838D01*
X12637927Y-15211838D02*
X12523642Y-15326124D01*
X12523642Y-15326124D02*
X12647451Y-15326124D01*
X12714118Y-15126124D02*
X12837927Y-15126124D01*
X12837927Y-15126124D02*
X12771261Y-15202314D01*
X12771261Y-15202314D02*
X12799832Y-15202314D01*
X12799832Y-15202314D02*
X12818880Y-15211838D01*
X12818880Y-15211838D02*
X12828404Y-15221362D01*
X12828404Y-15221362D02*
X12837927Y-15240409D01*
X12837927Y-15240409D02*
X12837927Y-15288028D01*
X12837927Y-15288028D02*
X12828404Y-15307076D01*
X12828404Y-15307076D02*
X12818880Y-15316600D01*
X12818880Y-15316600D02*
X12799832Y-15326124D01*
X12799832Y-15326124D02*
X12742689Y-15326124D01*
X12742689Y-15326124D02*
X12723642Y-15316600D01*
X12723642Y-15316600D02*
X12714118Y-15307076D01*
X13009356Y-15126124D02*
X12971261Y-15126124D01*
X12971261Y-15126124D02*
X12952213Y-15135648D01*
X12952213Y-15135648D02*
X12942689Y-15145171D01*
X12942689Y-15145171D02*
X12923642Y-15173743D01*
X12923642Y-15173743D02*
X12914118Y-15211838D01*
X12914118Y-15211838D02*
X12914118Y-15288028D01*
X12914118Y-15288028D02*
X12923642Y-15307076D01*
X12923642Y-15307076D02*
X12933166Y-15316600D01*
X12933166Y-15316600D02*
X12952213Y-15326124D01*
X12952213Y-15326124D02*
X12990308Y-15326124D01*
X12990308Y-15326124D02*
X13009356Y-15316600D01*
X13009356Y-15316600D02*
X13018880Y-15307076D01*
X13018880Y-15307076D02*
X13028404Y-15288028D01*
X13028404Y-15288028D02*
X13028404Y-15240409D01*
X13028404Y-15240409D02*
X13018880Y-15221362D01*
X13018880Y-15221362D02*
X13009356Y-15211838D01*
X13009356Y-15211838D02*
X12990308Y-15202314D01*
X12990308Y-15202314D02*
X12952213Y-15202314D01*
X12952213Y-15202314D02*
X12933166Y-15211838D01*
X12933166Y-15211838D02*
X12923642Y-15221362D01*
X12923642Y-15221362D02*
X12914118Y-15240409D01*
X13104594Y-15126124D02*
X13104594Y-15164219D01*
X13180785Y-15126124D02*
X13180785Y-15164219D01*
X13476023Y-15402314D02*
X13466499Y-15392790D01*
X13466499Y-15392790D02*
X13447451Y-15364219D01*
X13447451Y-15364219D02*
X13437928Y-15345171D01*
X13437928Y-15345171D02*
X13428404Y-15316600D01*
X13428404Y-15316600D02*
X13418880Y-15268981D01*
X13418880Y-15268981D02*
X13418880Y-15230886D01*
X13418880Y-15230886D02*
X13428404Y-15183267D01*
X13428404Y-15183267D02*
X13437928Y-15154695D01*
X13437928Y-15154695D02*
X13447451Y-15135648D01*
X13447451Y-15135648D02*
X13466499Y-15107076D01*
X13466499Y-15107076D02*
X13476023Y-15097552D01*
X13542689Y-15145171D02*
X13552213Y-15135648D01*
X13552213Y-15135648D02*
X13571261Y-15126124D01*
X13571261Y-15126124D02*
X13618880Y-15126124D01*
X13618880Y-15126124D02*
X13637928Y-15135648D01*
X13637928Y-15135648D02*
X13647451Y-15145171D01*
X13647451Y-15145171D02*
X13656975Y-15164219D01*
X13656975Y-15164219D02*
X13656975Y-15183267D01*
X13656975Y-15183267D02*
X13647451Y-15211838D01*
X13647451Y-15211838D02*
X13533166Y-15326124D01*
X13533166Y-15326124D02*
X13656975Y-15326124D01*
X13895070Y-15326124D02*
X13895070Y-15126124D01*
X13980785Y-15326124D02*
X13980785Y-15221362D01*
X13980785Y-15221362D02*
X13971261Y-15202314D01*
X13971261Y-15202314D02*
X13952213Y-15192790D01*
X13952213Y-15192790D02*
X13923642Y-15192790D01*
X13923642Y-15192790D02*
X13904594Y-15202314D01*
X13904594Y-15202314D02*
X13895070Y-15211838D01*
X14104594Y-15326124D02*
X14085547Y-15316600D01*
X14085547Y-15316600D02*
X14076023Y-15307076D01*
X14076023Y-15307076D02*
X14066499Y-15288028D01*
X14066499Y-15288028D02*
X14066499Y-15230886D01*
X14066499Y-15230886D02*
X14076023Y-15211838D01*
X14076023Y-15211838D02*
X14085547Y-15202314D01*
X14085547Y-15202314D02*
X14104594Y-15192790D01*
X14104594Y-15192790D02*
X14133166Y-15192790D01*
X14133166Y-15192790D02*
X14152213Y-15202314D01*
X14152213Y-15202314D02*
X14161737Y-15211838D01*
X14161737Y-15211838D02*
X14171261Y-15230886D01*
X14171261Y-15230886D02*
X14171261Y-15288028D01*
X14171261Y-15288028D02*
X14161737Y-15307076D01*
X14161737Y-15307076D02*
X14152213Y-15316600D01*
X14152213Y-15316600D02*
X14133166Y-15326124D01*
X14133166Y-15326124D02*
X14104594Y-15326124D01*
X14285547Y-15326124D02*
X14266499Y-15316600D01*
X14266499Y-15316600D02*
X14256975Y-15297552D01*
X14256975Y-15297552D02*
X14256975Y-15126124D01*
X14437928Y-15316600D02*
X14418880Y-15326124D01*
X14418880Y-15326124D02*
X14380785Y-15326124D01*
X14380785Y-15326124D02*
X14361737Y-15316600D01*
X14361737Y-15316600D02*
X14352213Y-15297552D01*
X14352213Y-15297552D02*
X14352213Y-15221362D01*
X14352213Y-15221362D02*
X14361737Y-15202314D01*
X14361737Y-15202314D02*
X14380785Y-15192790D01*
X14380785Y-15192790D02*
X14418880Y-15192790D01*
X14418880Y-15192790D02*
X14437928Y-15202314D01*
X14437928Y-15202314D02*
X14447451Y-15221362D01*
X14447451Y-15221362D02*
X14447451Y-15240409D01*
X14447451Y-15240409D02*
X14352213Y-15259457D01*
X14523642Y-15316600D02*
X14542690Y-15326124D01*
X14542690Y-15326124D02*
X14580785Y-15326124D01*
X14580785Y-15326124D02*
X14599832Y-15316600D01*
X14599832Y-15316600D02*
X14609356Y-15297552D01*
X14609356Y-15297552D02*
X14609356Y-15288028D01*
X14609356Y-15288028D02*
X14599832Y-15268981D01*
X14599832Y-15268981D02*
X14580785Y-15259457D01*
X14580785Y-15259457D02*
X14552213Y-15259457D01*
X14552213Y-15259457D02*
X14533166Y-15249933D01*
X14533166Y-15249933D02*
X14523642Y-15230886D01*
X14523642Y-15230886D02*
X14523642Y-15221362D01*
X14523642Y-15221362D02*
X14533166Y-15202314D01*
X14533166Y-15202314D02*
X14552213Y-15192790D01*
X14552213Y-15192790D02*
X14580785Y-15192790D01*
X14580785Y-15192790D02*
X14599832Y-15202314D01*
X14676023Y-15402314D02*
X14685547Y-15392790D01*
X14685547Y-15392790D02*
X14704594Y-15364219D01*
X14704594Y-15364219D02*
X14714118Y-15345171D01*
X14714118Y-15345171D02*
X14723642Y-15316600D01*
X14723642Y-15316600D02*
X14733166Y-15268981D01*
X14733166Y-15268981D02*
X14733166Y-15230886D01*
X14733166Y-15230886D02*
X14723642Y-15183267D01*
X14723642Y-15183267D02*
X14714118Y-15154695D01*
X14714118Y-15154695D02*
X14704594Y-15135648D01*
X14704594Y-15135648D02*
X14685547Y-15107076D01*
X14685547Y-15107076D02*
X14676023Y-15097552D01*
D12*
X9860960Y-15458640D02*
X9860960Y-15538640D01*
X9820960Y-15498640D02*
X9900960Y-15498640D01*
D11*
X10199832Y-15390124D02*
X10218880Y-15390124D01*
X10218880Y-15390124D02*
X10237927Y-15399648D01*
X10237927Y-15399648D02*
X10247451Y-15409171D01*
X10247451Y-15409171D02*
X10256975Y-15428219D01*
X10256975Y-15428219D02*
X10266499Y-15466314D01*
X10266499Y-15466314D02*
X10266499Y-15513933D01*
X10266499Y-15513933D02*
X10256975Y-15552028D01*
X10256975Y-15552028D02*
X10247451Y-15571076D01*
X10247451Y-15571076D02*
X10237927Y-15580600D01*
X10237927Y-15580600D02*
X10218880Y-15590124D01*
X10218880Y-15590124D02*
X10199832Y-15590124D01*
X10199832Y-15590124D02*
X10180784Y-15580600D01*
X10180784Y-15580600D02*
X10171261Y-15571076D01*
X10171261Y-15571076D02*
X10161737Y-15552028D01*
X10161737Y-15552028D02*
X10152213Y-15513933D01*
X10152213Y-15513933D02*
X10152213Y-15466314D01*
X10152213Y-15466314D02*
X10161737Y-15428219D01*
X10161737Y-15428219D02*
X10171261Y-15409171D01*
X10171261Y-15409171D02*
X10180784Y-15399648D01*
X10180784Y-15399648D02*
X10199832Y-15390124D01*
X10352213Y-15571076D02*
X10361737Y-15580600D01*
X10361737Y-15580600D02*
X10352213Y-15590124D01*
X10352213Y-15590124D02*
X10342689Y-15580600D01*
X10342689Y-15580600D02*
X10352213Y-15571076D01*
X10352213Y-15571076D02*
X10352213Y-15590124D01*
X10476023Y-15475838D02*
X10456975Y-15466314D01*
X10456975Y-15466314D02*
X10447451Y-15456790D01*
X10447451Y-15456790D02*
X10437927Y-15437743D01*
X10437927Y-15437743D02*
X10437927Y-15428219D01*
X10437927Y-15428219D02*
X10447451Y-15409171D01*
X10447451Y-15409171D02*
X10456975Y-15399648D01*
X10456975Y-15399648D02*
X10476023Y-15390124D01*
X10476023Y-15390124D02*
X10514118Y-15390124D01*
X10514118Y-15390124D02*
X10533165Y-15399648D01*
X10533165Y-15399648D02*
X10542689Y-15409171D01*
X10542689Y-15409171D02*
X10552213Y-15428219D01*
X10552213Y-15428219D02*
X10552213Y-15437743D01*
X10552213Y-15437743D02*
X10542689Y-15456790D01*
X10542689Y-15456790D02*
X10533165Y-15466314D01*
X10533165Y-15466314D02*
X10514118Y-15475838D01*
X10514118Y-15475838D02*
X10476023Y-15475838D01*
X10476023Y-15475838D02*
X10456975Y-15485362D01*
X10456975Y-15485362D02*
X10447451Y-15494886D01*
X10447451Y-15494886D02*
X10437927Y-15513933D01*
X10437927Y-15513933D02*
X10437927Y-15552028D01*
X10437927Y-15552028D02*
X10447451Y-15571076D01*
X10447451Y-15571076D02*
X10456975Y-15580600D01*
X10456975Y-15580600D02*
X10476023Y-15590124D01*
X10476023Y-15590124D02*
X10514118Y-15590124D01*
X10514118Y-15590124D02*
X10533165Y-15580600D01*
X10533165Y-15580600D02*
X10542689Y-15571076D01*
X10542689Y-15571076D02*
X10552213Y-15552028D01*
X10552213Y-15552028D02*
X10552213Y-15513933D01*
X10552213Y-15513933D02*
X10542689Y-15494886D01*
X10542689Y-15494886D02*
X10533165Y-15485362D01*
X10533165Y-15485362D02*
X10514118Y-15475838D01*
X10676023Y-15390124D02*
X10695070Y-15390124D01*
X10695070Y-15390124D02*
X10714118Y-15399648D01*
X10714118Y-15399648D02*
X10723642Y-15409171D01*
X10723642Y-15409171D02*
X10733165Y-15428219D01*
X10733165Y-15428219D02*
X10742689Y-15466314D01*
X10742689Y-15466314D02*
X10742689Y-15513933D01*
X10742689Y-15513933D02*
X10733165Y-15552028D01*
X10733165Y-15552028D02*
X10723642Y-15571076D01*
X10723642Y-15571076D02*
X10714118Y-15580600D01*
X10714118Y-15580600D02*
X10695070Y-15590124D01*
X10695070Y-15590124D02*
X10676023Y-15590124D01*
X10676023Y-15590124D02*
X10656975Y-15580600D01*
X10656975Y-15580600D02*
X10647451Y-15571076D01*
X10647451Y-15571076D02*
X10637927Y-15552028D01*
X10637927Y-15552028D02*
X10628404Y-15513933D01*
X10628404Y-15513933D02*
X10628404Y-15466314D01*
X10628404Y-15466314D02*
X10637927Y-15428219D01*
X10637927Y-15428219D02*
X10647451Y-15409171D01*
X10647451Y-15409171D02*
X10656975Y-15399648D01*
X10656975Y-15399648D02*
X10676023Y-15390124D01*
X10866499Y-15390124D02*
X10885546Y-15390124D01*
X10885546Y-15390124D02*
X10904594Y-15399648D01*
X10904594Y-15399648D02*
X10914118Y-15409171D01*
X10914118Y-15409171D02*
X10923642Y-15428219D01*
X10923642Y-15428219D02*
X10933165Y-15466314D01*
X10933165Y-15466314D02*
X10933165Y-15513933D01*
X10933165Y-15513933D02*
X10923642Y-15552028D01*
X10923642Y-15552028D02*
X10914118Y-15571076D01*
X10914118Y-15571076D02*
X10904594Y-15580600D01*
X10904594Y-15580600D02*
X10885546Y-15590124D01*
X10885546Y-15590124D02*
X10866499Y-15590124D01*
X10866499Y-15590124D02*
X10847451Y-15580600D01*
X10847451Y-15580600D02*
X10837927Y-15571076D01*
X10837927Y-15571076D02*
X10828404Y-15552028D01*
X10828404Y-15552028D02*
X10818880Y-15513933D01*
X10818880Y-15513933D02*
X10818880Y-15466314D01*
X10818880Y-15466314D02*
X10828404Y-15428219D01*
X10828404Y-15428219D02*
X10837927Y-15409171D01*
X10837927Y-15409171D02*
X10847451Y-15399648D01*
X10847451Y-15399648D02*
X10866499Y-15390124D01*
X11018880Y-15590124D02*
X11018880Y-15456790D01*
X11018880Y-15475838D02*
X11028404Y-15466314D01*
X11028404Y-15466314D02*
X11047451Y-15456790D01*
X11047451Y-15456790D02*
X11076023Y-15456790D01*
X11076023Y-15456790D02*
X11095070Y-15466314D01*
X11095070Y-15466314D02*
X11104594Y-15485362D01*
X11104594Y-15485362D02*
X11104594Y-15590124D01*
X11104594Y-15485362D02*
X11114118Y-15466314D01*
X11114118Y-15466314D02*
X11133165Y-15456790D01*
X11133165Y-15456790D02*
X11161737Y-15456790D01*
X11161737Y-15456790D02*
X11180785Y-15466314D01*
X11180785Y-15466314D02*
X11190308Y-15485362D01*
X11190308Y-15485362D02*
X11190308Y-15590124D01*
X11285546Y-15590124D02*
X11285546Y-15456790D01*
X11285546Y-15475838D02*
X11295070Y-15466314D01*
X11295070Y-15466314D02*
X11314118Y-15456790D01*
X11314118Y-15456790D02*
X11342689Y-15456790D01*
X11342689Y-15456790D02*
X11361737Y-15466314D01*
X11361737Y-15466314D02*
X11371261Y-15485362D01*
X11371261Y-15485362D02*
X11371261Y-15590124D01*
X11371261Y-15485362D02*
X11380784Y-15466314D01*
X11380784Y-15466314D02*
X11399832Y-15456790D01*
X11399832Y-15456790D02*
X11428403Y-15456790D01*
X11428403Y-15456790D02*
X11447451Y-15466314D01*
X11447451Y-15466314D02*
X11456975Y-15485362D01*
X11456975Y-15485362D02*
X11456975Y-15590124D01*
X11847451Y-15380600D02*
X11676023Y-15637743D01*
X12104594Y-15390124D02*
X12123642Y-15390124D01*
X12123642Y-15390124D02*
X12142689Y-15399648D01*
X12142689Y-15399648D02*
X12152213Y-15409171D01*
X12152213Y-15409171D02*
X12161737Y-15428219D01*
X12161737Y-15428219D02*
X12171261Y-15466314D01*
X12171261Y-15466314D02*
X12171261Y-15513933D01*
X12171261Y-15513933D02*
X12161737Y-15552028D01*
X12161737Y-15552028D02*
X12152213Y-15571076D01*
X12152213Y-15571076D02*
X12142689Y-15580600D01*
X12142689Y-15580600D02*
X12123642Y-15590124D01*
X12123642Y-15590124D02*
X12104594Y-15590124D01*
X12104594Y-15590124D02*
X12085546Y-15580600D01*
X12085546Y-15580600D02*
X12076023Y-15571076D01*
X12076023Y-15571076D02*
X12066499Y-15552028D01*
X12066499Y-15552028D02*
X12056975Y-15513933D01*
X12056975Y-15513933D02*
X12056975Y-15466314D01*
X12056975Y-15466314D02*
X12066499Y-15428219D01*
X12066499Y-15428219D02*
X12076023Y-15409171D01*
X12076023Y-15409171D02*
X12085546Y-15399648D01*
X12085546Y-15399648D02*
X12104594Y-15390124D01*
X12256975Y-15571076D02*
X12266499Y-15580600D01*
X12266499Y-15580600D02*
X12256975Y-15590124D01*
X12256975Y-15590124D02*
X12247451Y-15580600D01*
X12247451Y-15580600D02*
X12256975Y-15571076D01*
X12256975Y-15571076D02*
X12256975Y-15590124D01*
X12390308Y-15390124D02*
X12409356Y-15390124D01*
X12409356Y-15390124D02*
X12428404Y-15399648D01*
X12428404Y-15399648D02*
X12437927Y-15409171D01*
X12437927Y-15409171D02*
X12447451Y-15428219D01*
X12447451Y-15428219D02*
X12456975Y-15466314D01*
X12456975Y-15466314D02*
X12456975Y-15513933D01*
X12456975Y-15513933D02*
X12447451Y-15552028D01*
X12447451Y-15552028D02*
X12437927Y-15571076D01*
X12437927Y-15571076D02*
X12428404Y-15580600D01*
X12428404Y-15580600D02*
X12409356Y-15590124D01*
X12409356Y-15590124D02*
X12390308Y-15590124D01*
X12390308Y-15590124D02*
X12371261Y-15580600D01*
X12371261Y-15580600D02*
X12361737Y-15571076D01*
X12361737Y-15571076D02*
X12352213Y-15552028D01*
X12352213Y-15552028D02*
X12342689Y-15513933D01*
X12342689Y-15513933D02*
X12342689Y-15466314D01*
X12342689Y-15466314D02*
X12352213Y-15428219D01*
X12352213Y-15428219D02*
X12361737Y-15409171D01*
X12361737Y-15409171D02*
X12371261Y-15399648D01*
X12371261Y-15399648D02*
X12390308Y-15390124D01*
X12523642Y-15390124D02*
X12647451Y-15390124D01*
X12647451Y-15390124D02*
X12580785Y-15466314D01*
X12580785Y-15466314D02*
X12609356Y-15466314D01*
X12609356Y-15466314D02*
X12628404Y-15475838D01*
X12628404Y-15475838D02*
X12637927Y-15485362D01*
X12637927Y-15485362D02*
X12647451Y-15504409D01*
X12647451Y-15504409D02*
X12647451Y-15552028D01*
X12647451Y-15552028D02*
X12637927Y-15571076D01*
X12637927Y-15571076D02*
X12628404Y-15580600D01*
X12628404Y-15580600D02*
X12609356Y-15590124D01*
X12609356Y-15590124D02*
X12552213Y-15590124D01*
X12552213Y-15590124D02*
X12533166Y-15580600D01*
X12533166Y-15580600D02*
X12523642Y-15571076D01*
X12837927Y-15590124D02*
X12723642Y-15590124D01*
X12780785Y-15590124D02*
X12780785Y-15390124D01*
X12780785Y-15390124D02*
X12761737Y-15418695D01*
X12761737Y-15418695D02*
X12742689Y-15437743D01*
X12742689Y-15437743D02*
X12723642Y-15447267D01*
X13018880Y-15390124D02*
X12923642Y-15390124D01*
X12923642Y-15390124D02*
X12914118Y-15485362D01*
X12914118Y-15485362D02*
X12923642Y-15475838D01*
X12923642Y-15475838D02*
X12942689Y-15466314D01*
X12942689Y-15466314D02*
X12990308Y-15466314D01*
X12990308Y-15466314D02*
X13009356Y-15475838D01*
X13009356Y-15475838D02*
X13018880Y-15485362D01*
X13018880Y-15485362D02*
X13028404Y-15504409D01*
X13028404Y-15504409D02*
X13028404Y-15552028D01*
X13028404Y-15552028D02*
X13018880Y-15571076D01*
X13018880Y-15571076D02*
X13009356Y-15580600D01*
X13009356Y-15580600D02*
X12990308Y-15590124D01*
X12990308Y-15590124D02*
X12942689Y-15590124D01*
X12942689Y-15590124D02*
X12923642Y-15580600D01*
X12923642Y-15580600D02*
X12914118Y-15571076D01*
X13104594Y-15390124D02*
X13104594Y-15428219D01*
X13180785Y-15390124D02*
X13180785Y-15428219D01*
X13476023Y-15666314D02*
X13466499Y-15656790D01*
X13466499Y-15656790D02*
X13447451Y-15628219D01*
X13447451Y-15628219D02*
X13437928Y-15609171D01*
X13437928Y-15609171D02*
X13428404Y-15580600D01*
X13428404Y-15580600D02*
X13418880Y-15532981D01*
X13418880Y-15532981D02*
X13418880Y-15494886D01*
X13418880Y-15494886D02*
X13428404Y-15447267D01*
X13428404Y-15447267D02*
X13437928Y-15418695D01*
X13437928Y-15418695D02*
X13447451Y-15399648D01*
X13447451Y-15399648D02*
X13466499Y-15371076D01*
X13466499Y-15371076D02*
X13476023Y-15361552D01*
X13637928Y-15390124D02*
X13599832Y-15390124D01*
X13599832Y-15390124D02*
X13580785Y-15399648D01*
X13580785Y-15399648D02*
X13571261Y-15409171D01*
X13571261Y-15409171D02*
X13552213Y-15437743D01*
X13552213Y-15437743D02*
X13542689Y-15475838D01*
X13542689Y-15475838D02*
X13542689Y-15552028D01*
X13542689Y-15552028D02*
X13552213Y-15571076D01*
X13552213Y-15571076D02*
X13561737Y-15580600D01*
X13561737Y-15580600D02*
X13580785Y-15590124D01*
X13580785Y-15590124D02*
X13618880Y-15590124D01*
X13618880Y-15590124D02*
X13637928Y-15580600D01*
X13637928Y-15580600D02*
X13647451Y-15571076D01*
X13647451Y-15571076D02*
X13656975Y-15552028D01*
X13656975Y-15552028D02*
X13656975Y-15504409D01*
X13656975Y-15504409D02*
X13647451Y-15485362D01*
X13647451Y-15485362D02*
X13637928Y-15475838D01*
X13637928Y-15475838D02*
X13618880Y-15466314D01*
X13618880Y-15466314D02*
X13580785Y-15466314D01*
X13580785Y-15466314D02*
X13561737Y-15475838D01*
X13561737Y-15475838D02*
X13552213Y-15485362D01*
X13552213Y-15485362D02*
X13542689Y-15504409D01*
X13733166Y-15409171D02*
X13742689Y-15399648D01*
X13742689Y-15399648D02*
X13761737Y-15390124D01*
X13761737Y-15390124D02*
X13809356Y-15390124D01*
X13809356Y-15390124D02*
X13828404Y-15399648D01*
X13828404Y-15399648D02*
X13837928Y-15409171D01*
X13837928Y-15409171D02*
X13847451Y-15428219D01*
X13847451Y-15428219D02*
X13847451Y-15447267D01*
X13847451Y-15447267D02*
X13837928Y-15475838D01*
X13837928Y-15475838D02*
X13723642Y-15590124D01*
X13723642Y-15590124D02*
X13847451Y-15590124D01*
X14085547Y-15590124D02*
X14085547Y-15390124D01*
X14171261Y-15590124D02*
X14171261Y-15485362D01*
X14171261Y-15485362D02*
X14161737Y-15466314D01*
X14161737Y-15466314D02*
X14142690Y-15456790D01*
X14142690Y-15456790D02*
X14114118Y-15456790D01*
X14114118Y-15456790D02*
X14095070Y-15466314D01*
X14095070Y-15466314D02*
X14085547Y-15475838D01*
X14295070Y-15590124D02*
X14276023Y-15580600D01*
X14276023Y-15580600D02*
X14266499Y-15571076D01*
X14266499Y-15571076D02*
X14256975Y-15552028D01*
X14256975Y-15552028D02*
X14256975Y-15494886D01*
X14256975Y-15494886D02*
X14266499Y-15475838D01*
X14266499Y-15475838D02*
X14276023Y-15466314D01*
X14276023Y-15466314D02*
X14295070Y-15456790D01*
X14295070Y-15456790D02*
X14323642Y-15456790D01*
X14323642Y-15456790D02*
X14342690Y-15466314D01*
X14342690Y-15466314D02*
X14352213Y-15475838D01*
X14352213Y-15475838D02*
X14361737Y-15494886D01*
X14361737Y-15494886D02*
X14361737Y-15552028D01*
X14361737Y-15552028D02*
X14352213Y-15571076D01*
X14352213Y-15571076D02*
X14342690Y-15580600D01*
X14342690Y-15580600D02*
X14323642Y-15590124D01*
X14323642Y-15590124D02*
X14295070Y-15590124D01*
X14476023Y-15590124D02*
X14456975Y-15580600D01*
X14456975Y-15580600D02*
X14447451Y-15561552D01*
X14447451Y-15561552D02*
X14447451Y-15390124D01*
X14628404Y-15580600D02*
X14609356Y-15590124D01*
X14609356Y-15590124D02*
X14571261Y-15590124D01*
X14571261Y-15590124D02*
X14552213Y-15580600D01*
X14552213Y-15580600D02*
X14542690Y-15561552D01*
X14542690Y-15561552D02*
X14542690Y-15485362D01*
X14542690Y-15485362D02*
X14552213Y-15466314D01*
X14552213Y-15466314D02*
X14571261Y-15456790D01*
X14571261Y-15456790D02*
X14609356Y-15456790D01*
X14609356Y-15456790D02*
X14628404Y-15466314D01*
X14628404Y-15466314D02*
X14637928Y-15485362D01*
X14637928Y-15485362D02*
X14637928Y-15504409D01*
X14637928Y-15504409D02*
X14542690Y-15523457D01*
X14714118Y-15580600D02*
X14733166Y-15590124D01*
X14733166Y-15590124D02*
X14771261Y-15590124D01*
X14771261Y-15590124D02*
X14790309Y-15580600D01*
X14790309Y-15580600D02*
X14799832Y-15561552D01*
X14799832Y-15561552D02*
X14799832Y-15552028D01*
X14799832Y-15552028D02*
X14790309Y-15532981D01*
X14790309Y-15532981D02*
X14771261Y-15523457D01*
X14771261Y-15523457D02*
X14742690Y-15523457D01*
X14742690Y-15523457D02*
X14723642Y-15513933D01*
X14723642Y-15513933D02*
X14714118Y-15494886D01*
X14714118Y-15494886D02*
X14714118Y-15485362D01*
X14714118Y-15485362D02*
X14723642Y-15466314D01*
X14723642Y-15466314D02*
X14742690Y-15456790D01*
X14742690Y-15456790D02*
X14771261Y-15456790D01*
X14771261Y-15456790D02*
X14790309Y-15466314D01*
X14866499Y-15666314D02*
X14876023Y-15656790D01*
X14876023Y-15656790D02*
X14895071Y-15628219D01*
X14895071Y-15628219D02*
X14904594Y-15609171D01*
X14904594Y-15609171D02*
X14914118Y-15580600D01*
X14914118Y-15580600D02*
X14923642Y-15532981D01*
X14923642Y-15532981D02*
X14923642Y-15494886D01*
X14923642Y-15494886D02*
X14914118Y-15447267D01*
X14914118Y-15447267D02*
X14904594Y-15418695D01*
X14904594Y-15418695D02*
X14895071Y-15399648D01*
X14895071Y-15399648D02*
X14876023Y-15371076D01*
X14876023Y-15371076D02*
X14866499Y-15361552D01*
D12*
X9886316Y-15797996D02*
X9886316Y-15727284D01*
X9815604Y-15727284D01*
X9815604Y-15797996D01*
X9886316Y-15797996D01*
D11*
X10266499Y-15854124D02*
X10152213Y-15854124D01*
X10209356Y-15854124D02*
X10209356Y-15654124D01*
X10209356Y-15654124D02*
X10190308Y-15682695D01*
X10190308Y-15682695D02*
X10171261Y-15701743D01*
X10171261Y-15701743D02*
X10152213Y-15711267D01*
X10352213Y-15835076D02*
X10361737Y-15844600D01*
X10361737Y-15844600D02*
X10352213Y-15854124D01*
X10352213Y-15854124D02*
X10342689Y-15844600D01*
X10342689Y-15844600D02*
X10352213Y-15835076D01*
X10352213Y-15835076D02*
X10352213Y-15854124D01*
X10485546Y-15654124D02*
X10504594Y-15654124D01*
X10504594Y-15654124D02*
X10523642Y-15663648D01*
X10523642Y-15663648D02*
X10533165Y-15673171D01*
X10533165Y-15673171D02*
X10542689Y-15692219D01*
X10542689Y-15692219D02*
X10552213Y-15730314D01*
X10552213Y-15730314D02*
X10552213Y-15777933D01*
X10552213Y-15777933D02*
X10542689Y-15816028D01*
X10542689Y-15816028D02*
X10533165Y-15835076D01*
X10533165Y-15835076D02*
X10523642Y-15844600D01*
X10523642Y-15844600D02*
X10504594Y-15854124D01*
X10504594Y-15854124D02*
X10485546Y-15854124D01*
X10485546Y-15854124D02*
X10466499Y-15844600D01*
X10466499Y-15844600D02*
X10456975Y-15835076D01*
X10456975Y-15835076D02*
X10447451Y-15816028D01*
X10447451Y-15816028D02*
X10437927Y-15777933D01*
X10437927Y-15777933D02*
X10437927Y-15730314D01*
X10437927Y-15730314D02*
X10447451Y-15692219D01*
X10447451Y-15692219D02*
X10456975Y-15673171D01*
X10456975Y-15673171D02*
X10466499Y-15663648D01*
X10466499Y-15663648D02*
X10485546Y-15654124D01*
X10676023Y-15654124D02*
X10695070Y-15654124D01*
X10695070Y-15654124D02*
X10714118Y-15663648D01*
X10714118Y-15663648D02*
X10723642Y-15673171D01*
X10723642Y-15673171D02*
X10733165Y-15692219D01*
X10733165Y-15692219D02*
X10742689Y-15730314D01*
X10742689Y-15730314D02*
X10742689Y-15777933D01*
X10742689Y-15777933D02*
X10733165Y-15816028D01*
X10733165Y-15816028D02*
X10723642Y-15835076D01*
X10723642Y-15835076D02*
X10714118Y-15844600D01*
X10714118Y-15844600D02*
X10695070Y-15854124D01*
X10695070Y-15854124D02*
X10676023Y-15854124D01*
X10676023Y-15854124D02*
X10656975Y-15844600D01*
X10656975Y-15844600D02*
X10647451Y-15835076D01*
X10647451Y-15835076D02*
X10637927Y-15816028D01*
X10637927Y-15816028D02*
X10628404Y-15777933D01*
X10628404Y-15777933D02*
X10628404Y-15730314D01*
X10628404Y-15730314D02*
X10637927Y-15692219D01*
X10637927Y-15692219D02*
X10647451Y-15673171D01*
X10647451Y-15673171D02*
X10656975Y-15663648D01*
X10656975Y-15663648D02*
X10676023Y-15654124D01*
X10866499Y-15654124D02*
X10885546Y-15654124D01*
X10885546Y-15654124D02*
X10904594Y-15663648D01*
X10904594Y-15663648D02*
X10914118Y-15673171D01*
X10914118Y-15673171D02*
X10923642Y-15692219D01*
X10923642Y-15692219D02*
X10933165Y-15730314D01*
X10933165Y-15730314D02*
X10933165Y-15777933D01*
X10933165Y-15777933D02*
X10923642Y-15816028D01*
X10923642Y-15816028D02*
X10914118Y-15835076D01*
X10914118Y-15835076D02*
X10904594Y-15844600D01*
X10904594Y-15844600D02*
X10885546Y-15854124D01*
X10885546Y-15854124D02*
X10866499Y-15854124D01*
X10866499Y-15854124D02*
X10847451Y-15844600D01*
X10847451Y-15844600D02*
X10837927Y-15835076D01*
X10837927Y-15835076D02*
X10828404Y-15816028D01*
X10828404Y-15816028D02*
X10818880Y-15777933D01*
X10818880Y-15777933D02*
X10818880Y-15730314D01*
X10818880Y-15730314D02*
X10828404Y-15692219D01*
X10828404Y-15692219D02*
X10837927Y-15673171D01*
X10837927Y-15673171D02*
X10847451Y-15663648D01*
X10847451Y-15663648D02*
X10866499Y-15654124D01*
X11018880Y-15854124D02*
X11018880Y-15720790D01*
X11018880Y-15739838D02*
X11028404Y-15730314D01*
X11028404Y-15730314D02*
X11047451Y-15720790D01*
X11047451Y-15720790D02*
X11076023Y-15720790D01*
X11076023Y-15720790D02*
X11095070Y-15730314D01*
X11095070Y-15730314D02*
X11104594Y-15749362D01*
X11104594Y-15749362D02*
X11104594Y-15854124D01*
X11104594Y-15749362D02*
X11114118Y-15730314D01*
X11114118Y-15730314D02*
X11133165Y-15720790D01*
X11133165Y-15720790D02*
X11161737Y-15720790D01*
X11161737Y-15720790D02*
X11180785Y-15730314D01*
X11180785Y-15730314D02*
X11190308Y-15749362D01*
X11190308Y-15749362D02*
X11190308Y-15854124D01*
X11285546Y-15854124D02*
X11285546Y-15720790D01*
X11285546Y-15739838D02*
X11295070Y-15730314D01*
X11295070Y-15730314D02*
X11314118Y-15720790D01*
X11314118Y-15720790D02*
X11342689Y-15720790D01*
X11342689Y-15720790D02*
X11361737Y-15730314D01*
X11361737Y-15730314D02*
X11371261Y-15749362D01*
X11371261Y-15749362D02*
X11371261Y-15854124D01*
X11371261Y-15749362D02*
X11380784Y-15730314D01*
X11380784Y-15730314D02*
X11399832Y-15720790D01*
X11399832Y-15720790D02*
X11428403Y-15720790D01*
X11428403Y-15720790D02*
X11447451Y-15730314D01*
X11447451Y-15730314D02*
X11456975Y-15749362D01*
X11456975Y-15749362D02*
X11456975Y-15854124D01*
X11847451Y-15644600D02*
X11676023Y-15901743D01*
X12104594Y-15654124D02*
X12123642Y-15654124D01*
X12123642Y-15654124D02*
X12142689Y-15663648D01*
X12142689Y-15663648D02*
X12152213Y-15673171D01*
X12152213Y-15673171D02*
X12161737Y-15692219D01*
X12161737Y-15692219D02*
X12171261Y-15730314D01*
X12171261Y-15730314D02*
X12171261Y-15777933D01*
X12171261Y-15777933D02*
X12161737Y-15816028D01*
X12161737Y-15816028D02*
X12152213Y-15835076D01*
X12152213Y-15835076D02*
X12142689Y-15844600D01*
X12142689Y-15844600D02*
X12123642Y-15854124D01*
X12123642Y-15854124D02*
X12104594Y-15854124D01*
X12104594Y-15854124D02*
X12085546Y-15844600D01*
X12085546Y-15844600D02*
X12076023Y-15835076D01*
X12076023Y-15835076D02*
X12066499Y-15816028D01*
X12066499Y-15816028D02*
X12056975Y-15777933D01*
X12056975Y-15777933D02*
X12056975Y-15730314D01*
X12056975Y-15730314D02*
X12066499Y-15692219D01*
X12066499Y-15692219D02*
X12076023Y-15673171D01*
X12076023Y-15673171D02*
X12085546Y-15663648D01*
X12085546Y-15663648D02*
X12104594Y-15654124D01*
X12256975Y-15835076D02*
X12266499Y-15844600D01*
X12266499Y-15844600D02*
X12256975Y-15854124D01*
X12256975Y-15854124D02*
X12247451Y-15844600D01*
X12247451Y-15844600D02*
X12256975Y-15835076D01*
X12256975Y-15835076D02*
X12256975Y-15854124D01*
X12390308Y-15654124D02*
X12409356Y-15654124D01*
X12409356Y-15654124D02*
X12428404Y-15663648D01*
X12428404Y-15663648D02*
X12437927Y-15673171D01*
X12437927Y-15673171D02*
X12447451Y-15692219D01*
X12447451Y-15692219D02*
X12456975Y-15730314D01*
X12456975Y-15730314D02*
X12456975Y-15777933D01*
X12456975Y-15777933D02*
X12447451Y-15816028D01*
X12447451Y-15816028D02*
X12437927Y-15835076D01*
X12437927Y-15835076D02*
X12428404Y-15844600D01*
X12428404Y-15844600D02*
X12409356Y-15854124D01*
X12409356Y-15854124D02*
X12390308Y-15854124D01*
X12390308Y-15854124D02*
X12371261Y-15844600D01*
X12371261Y-15844600D02*
X12361737Y-15835076D01*
X12361737Y-15835076D02*
X12352213Y-15816028D01*
X12352213Y-15816028D02*
X12342689Y-15777933D01*
X12342689Y-15777933D02*
X12342689Y-15730314D01*
X12342689Y-15730314D02*
X12352213Y-15692219D01*
X12352213Y-15692219D02*
X12361737Y-15673171D01*
X12361737Y-15673171D02*
X12371261Y-15663648D01*
X12371261Y-15663648D02*
X12390308Y-15654124D01*
X12523642Y-15654124D02*
X12647451Y-15654124D01*
X12647451Y-15654124D02*
X12580785Y-15730314D01*
X12580785Y-15730314D02*
X12609356Y-15730314D01*
X12609356Y-15730314D02*
X12628404Y-15739838D01*
X12628404Y-15739838D02*
X12637927Y-15749362D01*
X12637927Y-15749362D02*
X12647451Y-15768409D01*
X12647451Y-15768409D02*
X12647451Y-15816028D01*
X12647451Y-15816028D02*
X12637927Y-15835076D01*
X12637927Y-15835076D02*
X12628404Y-15844600D01*
X12628404Y-15844600D02*
X12609356Y-15854124D01*
X12609356Y-15854124D02*
X12552213Y-15854124D01*
X12552213Y-15854124D02*
X12533166Y-15844600D01*
X12533166Y-15844600D02*
X12523642Y-15835076D01*
X12742689Y-15854124D02*
X12780785Y-15854124D01*
X12780785Y-15854124D02*
X12799832Y-15844600D01*
X12799832Y-15844600D02*
X12809356Y-15835076D01*
X12809356Y-15835076D02*
X12828404Y-15806505D01*
X12828404Y-15806505D02*
X12837927Y-15768409D01*
X12837927Y-15768409D02*
X12837927Y-15692219D01*
X12837927Y-15692219D02*
X12828404Y-15673171D01*
X12828404Y-15673171D02*
X12818880Y-15663648D01*
X12818880Y-15663648D02*
X12799832Y-15654124D01*
X12799832Y-15654124D02*
X12761737Y-15654124D01*
X12761737Y-15654124D02*
X12742689Y-15663648D01*
X12742689Y-15663648D02*
X12733166Y-15673171D01*
X12733166Y-15673171D02*
X12723642Y-15692219D01*
X12723642Y-15692219D02*
X12723642Y-15739838D01*
X12723642Y-15739838D02*
X12733166Y-15758886D01*
X12733166Y-15758886D02*
X12742689Y-15768409D01*
X12742689Y-15768409D02*
X12761737Y-15777933D01*
X12761737Y-15777933D02*
X12799832Y-15777933D01*
X12799832Y-15777933D02*
X12818880Y-15768409D01*
X12818880Y-15768409D02*
X12828404Y-15758886D01*
X12828404Y-15758886D02*
X12837927Y-15739838D01*
X13009356Y-15720790D02*
X13009356Y-15854124D01*
X12961737Y-15644600D02*
X12914118Y-15787457D01*
X12914118Y-15787457D02*
X13037927Y-15787457D01*
X13104594Y-15654124D02*
X13104594Y-15692219D01*
X13180785Y-15654124D02*
X13180785Y-15692219D01*
X13476023Y-15930314D02*
X13466499Y-15920790D01*
X13466499Y-15920790D02*
X13447451Y-15892219D01*
X13447451Y-15892219D02*
X13437928Y-15873171D01*
X13437928Y-15873171D02*
X13428404Y-15844600D01*
X13428404Y-15844600D02*
X13418880Y-15796981D01*
X13418880Y-15796981D02*
X13418880Y-15758886D01*
X13418880Y-15758886D02*
X13428404Y-15711267D01*
X13428404Y-15711267D02*
X13437928Y-15682695D01*
X13437928Y-15682695D02*
X13447451Y-15663648D01*
X13447451Y-15663648D02*
X13466499Y-15635076D01*
X13466499Y-15635076D02*
X13476023Y-15625552D01*
X13533166Y-15654124D02*
X13656975Y-15654124D01*
X13656975Y-15654124D02*
X13590308Y-15730314D01*
X13590308Y-15730314D02*
X13618880Y-15730314D01*
X13618880Y-15730314D02*
X13637928Y-15739838D01*
X13637928Y-15739838D02*
X13647451Y-15749362D01*
X13647451Y-15749362D02*
X13656975Y-15768409D01*
X13656975Y-15768409D02*
X13656975Y-15816028D01*
X13656975Y-15816028D02*
X13647451Y-15835076D01*
X13647451Y-15835076D02*
X13637928Y-15844600D01*
X13637928Y-15844600D02*
X13618880Y-15854124D01*
X13618880Y-15854124D02*
X13561737Y-15854124D01*
X13561737Y-15854124D02*
X13542689Y-15844600D01*
X13542689Y-15844600D02*
X13533166Y-15835076D01*
X13723642Y-15654124D02*
X13856975Y-15654124D01*
X13856975Y-15654124D02*
X13771261Y-15854124D01*
X14085547Y-15854124D02*
X14085547Y-15654124D01*
X14171261Y-15854124D02*
X14171261Y-15749362D01*
X14171261Y-15749362D02*
X14161737Y-15730314D01*
X14161737Y-15730314D02*
X14142690Y-15720790D01*
X14142690Y-15720790D02*
X14114118Y-15720790D01*
X14114118Y-15720790D02*
X14095070Y-15730314D01*
X14095070Y-15730314D02*
X14085547Y-15739838D01*
X14295070Y-15854124D02*
X14276023Y-15844600D01*
X14276023Y-15844600D02*
X14266499Y-15835076D01*
X14266499Y-15835076D02*
X14256975Y-15816028D01*
X14256975Y-15816028D02*
X14256975Y-15758886D01*
X14256975Y-15758886D02*
X14266499Y-15739838D01*
X14266499Y-15739838D02*
X14276023Y-15730314D01*
X14276023Y-15730314D02*
X14295070Y-15720790D01*
X14295070Y-15720790D02*
X14323642Y-15720790D01*
X14323642Y-15720790D02*
X14342690Y-15730314D01*
X14342690Y-15730314D02*
X14352213Y-15739838D01*
X14352213Y-15739838D02*
X14361737Y-15758886D01*
X14361737Y-15758886D02*
X14361737Y-15816028D01*
X14361737Y-15816028D02*
X14352213Y-15835076D01*
X14352213Y-15835076D02*
X14342690Y-15844600D01*
X14342690Y-15844600D02*
X14323642Y-15854124D01*
X14323642Y-15854124D02*
X14295070Y-15854124D01*
X14476023Y-15854124D02*
X14456975Y-15844600D01*
X14456975Y-15844600D02*
X14447451Y-15825552D01*
X14447451Y-15825552D02*
X14447451Y-15654124D01*
X14628404Y-15844600D02*
X14609356Y-15854124D01*
X14609356Y-15854124D02*
X14571261Y-15854124D01*
X14571261Y-15854124D02*
X14552213Y-15844600D01*
X14552213Y-15844600D02*
X14542690Y-15825552D01*
X14542690Y-15825552D02*
X14542690Y-15749362D01*
X14542690Y-15749362D02*
X14552213Y-15730314D01*
X14552213Y-15730314D02*
X14571261Y-15720790D01*
X14571261Y-15720790D02*
X14609356Y-15720790D01*
X14609356Y-15720790D02*
X14628404Y-15730314D01*
X14628404Y-15730314D02*
X14637928Y-15749362D01*
X14637928Y-15749362D02*
X14637928Y-15768409D01*
X14637928Y-15768409D02*
X14542690Y-15787457D01*
X14714118Y-15844600D02*
X14733166Y-15854124D01*
X14733166Y-15854124D02*
X14771261Y-15854124D01*
X14771261Y-15854124D02*
X14790309Y-15844600D01*
X14790309Y-15844600D02*
X14799832Y-15825552D01*
X14799832Y-15825552D02*
X14799832Y-15816028D01*
X14799832Y-15816028D02*
X14790309Y-15796981D01*
X14790309Y-15796981D02*
X14771261Y-15787457D01*
X14771261Y-15787457D02*
X14742690Y-15787457D01*
X14742690Y-15787457D02*
X14723642Y-15777933D01*
X14723642Y-15777933D02*
X14714118Y-15758886D01*
X14714118Y-15758886D02*
X14714118Y-15749362D01*
X14714118Y-15749362D02*
X14723642Y-15730314D01*
X14723642Y-15730314D02*
X14742690Y-15720790D01*
X14742690Y-15720790D02*
X14771261Y-15720790D01*
X14771261Y-15720790D02*
X14790309Y-15730314D01*
X15037928Y-15777933D02*
X15190309Y-15777933D01*
X15114118Y-15854124D02*
X15114118Y-15701743D01*
X15533166Y-15654124D02*
X15437928Y-15654124D01*
X15437928Y-15654124D02*
X15428404Y-15749362D01*
X15428404Y-15749362D02*
X15437928Y-15739838D01*
X15437928Y-15739838D02*
X15456975Y-15730314D01*
X15456975Y-15730314D02*
X15504594Y-15730314D01*
X15504594Y-15730314D02*
X15523642Y-15739838D01*
X15523642Y-15739838D02*
X15533166Y-15749362D01*
X15533166Y-15749362D02*
X15542690Y-15768409D01*
X15542690Y-15768409D02*
X15542690Y-15816028D01*
X15542690Y-15816028D02*
X15533166Y-15835076D01*
X15533166Y-15835076D02*
X15523642Y-15844600D01*
X15523642Y-15844600D02*
X15504594Y-15854124D01*
X15504594Y-15854124D02*
X15456975Y-15854124D01*
X15456975Y-15854124D02*
X15437928Y-15844600D01*
X15437928Y-15844600D02*
X15428404Y-15835076D01*
X15771261Y-15844600D02*
X15790309Y-15854124D01*
X15790309Y-15854124D02*
X15828404Y-15854124D01*
X15828404Y-15854124D02*
X15847452Y-15844600D01*
X15847452Y-15844600D02*
X15856975Y-15825552D01*
X15856975Y-15825552D02*
X15856975Y-15816028D01*
X15856975Y-15816028D02*
X15847452Y-15796981D01*
X15847452Y-15796981D02*
X15828404Y-15787457D01*
X15828404Y-15787457D02*
X15799833Y-15787457D01*
X15799833Y-15787457D02*
X15780785Y-15777933D01*
X15780785Y-15777933D02*
X15771261Y-15758886D01*
X15771261Y-15758886D02*
X15771261Y-15749362D01*
X15771261Y-15749362D02*
X15780785Y-15730314D01*
X15780785Y-15730314D02*
X15799833Y-15720790D01*
X15799833Y-15720790D02*
X15828404Y-15720790D01*
X15828404Y-15720790D02*
X15847452Y-15730314D01*
X15971261Y-15854124D02*
X15952214Y-15844600D01*
X15952214Y-15844600D02*
X15942690Y-15825552D01*
X15942690Y-15825552D02*
X15942690Y-15654124D01*
X16076023Y-15854124D02*
X16056975Y-15844600D01*
X16056975Y-15844600D02*
X16047452Y-15835076D01*
X16047452Y-15835076D02*
X16037928Y-15816028D01*
X16037928Y-15816028D02*
X16037928Y-15758886D01*
X16037928Y-15758886D02*
X16047452Y-15739838D01*
X16047452Y-15739838D02*
X16056975Y-15730314D01*
X16056975Y-15730314D02*
X16076023Y-15720790D01*
X16076023Y-15720790D02*
X16104595Y-15720790D01*
X16104595Y-15720790D02*
X16123642Y-15730314D01*
X16123642Y-15730314D02*
X16133166Y-15739838D01*
X16133166Y-15739838D02*
X16142690Y-15758886D01*
X16142690Y-15758886D02*
X16142690Y-15816028D01*
X16142690Y-15816028D02*
X16133166Y-15835076D01*
X16133166Y-15835076D02*
X16123642Y-15844600D01*
X16123642Y-15844600D02*
X16104595Y-15854124D01*
X16104595Y-15854124D02*
X16076023Y-15854124D01*
X16199833Y-15720790D02*
X16276023Y-15720790D01*
X16228404Y-15654124D02*
X16228404Y-15825552D01*
X16228404Y-15825552D02*
X16237928Y-15844600D01*
X16237928Y-15844600D02*
X16256975Y-15854124D01*
X16256975Y-15854124D02*
X16276023Y-15854124D01*
X16333166Y-15844600D02*
X16352214Y-15854124D01*
X16352214Y-15854124D02*
X16390309Y-15854124D01*
X16390309Y-15854124D02*
X16409356Y-15844600D01*
X16409356Y-15844600D02*
X16418880Y-15825552D01*
X16418880Y-15825552D02*
X16418880Y-15816028D01*
X16418880Y-15816028D02*
X16409356Y-15796981D01*
X16409356Y-15796981D02*
X16390309Y-15787457D01*
X16390309Y-15787457D02*
X16361737Y-15787457D01*
X16361737Y-15787457D02*
X16342690Y-15777933D01*
X16342690Y-15777933D02*
X16333166Y-15758886D01*
X16333166Y-15758886D02*
X16333166Y-15749362D01*
X16333166Y-15749362D02*
X16342690Y-15730314D01*
X16342690Y-15730314D02*
X16361737Y-15720790D01*
X16361737Y-15720790D02*
X16390309Y-15720790D01*
X16390309Y-15720790D02*
X16409356Y-15730314D01*
X16485547Y-15930314D02*
X16495071Y-15920790D01*
X16495071Y-15920790D02*
X16514118Y-15892219D01*
X16514118Y-15892219D02*
X16523642Y-15873171D01*
X16523642Y-15873171D02*
X16533166Y-15844600D01*
X16533166Y-15844600D02*
X16542690Y-15796981D01*
X16542690Y-15796981D02*
X16542690Y-15758886D01*
X16542690Y-15758886D02*
X16533166Y-15711267D01*
X16533166Y-15711267D02*
X16523642Y-15682695D01*
X16523642Y-15682695D02*
X16514118Y-15663648D01*
X16514118Y-15663648D02*
X16495071Y-15635076D01*
X16495071Y-15635076D02*
X16485547Y-15625552D01*
D13*
X9845960Y-16081640D02*
X9900960Y-16026640D01*
X9845960Y-15971640D01*
X9790960Y-16026640D01*
X9845960Y-16081640D01*
D11*
X10266499Y-16118124D02*
X10152213Y-16118124D01*
X10209356Y-16118124D02*
X10209356Y-15918124D01*
X10209356Y-15918124D02*
X10190308Y-15946695D01*
X10190308Y-15946695D02*
X10171261Y-15965743D01*
X10171261Y-15965743D02*
X10152213Y-15975267D01*
X10352213Y-16099076D02*
X10361737Y-16108600D01*
X10361737Y-16108600D02*
X10352213Y-16118124D01*
X10352213Y-16118124D02*
X10342689Y-16108600D01*
X10342689Y-16108600D02*
X10352213Y-16099076D01*
X10352213Y-16099076D02*
X10352213Y-16118124D01*
X10552213Y-16118124D02*
X10437927Y-16118124D01*
X10495070Y-16118124D02*
X10495070Y-15918124D01*
X10495070Y-15918124D02*
X10476023Y-15946695D01*
X10476023Y-15946695D02*
X10456975Y-15965743D01*
X10456975Y-15965743D02*
X10437927Y-15975267D01*
X10676023Y-15918124D02*
X10695070Y-15918124D01*
X10695070Y-15918124D02*
X10714118Y-15927648D01*
X10714118Y-15927648D02*
X10723642Y-15937171D01*
X10723642Y-15937171D02*
X10733165Y-15956219D01*
X10733165Y-15956219D02*
X10742689Y-15994314D01*
X10742689Y-15994314D02*
X10742689Y-16041933D01*
X10742689Y-16041933D02*
X10733165Y-16080028D01*
X10733165Y-16080028D02*
X10723642Y-16099076D01*
X10723642Y-16099076D02*
X10714118Y-16108600D01*
X10714118Y-16108600D02*
X10695070Y-16118124D01*
X10695070Y-16118124D02*
X10676023Y-16118124D01*
X10676023Y-16118124D02*
X10656975Y-16108600D01*
X10656975Y-16108600D02*
X10647451Y-16099076D01*
X10647451Y-16099076D02*
X10637927Y-16080028D01*
X10637927Y-16080028D02*
X10628404Y-16041933D01*
X10628404Y-16041933D02*
X10628404Y-15994314D01*
X10628404Y-15994314D02*
X10637927Y-15956219D01*
X10637927Y-15956219D02*
X10647451Y-15937171D01*
X10647451Y-15937171D02*
X10656975Y-15927648D01*
X10656975Y-15927648D02*
X10676023Y-15918124D01*
X10866499Y-15918124D02*
X10885546Y-15918124D01*
X10885546Y-15918124D02*
X10904594Y-15927648D01*
X10904594Y-15927648D02*
X10914118Y-15937171D01*
X10914118Y-15937171D02*
X10923642Y-15956219D01*
X10923642Y-15956219D02*
X10933165Y-15994314D01*
X10933165Y-15994314D02*
X10933165Y-16041933D01*
X10933165Y-16041933D02*
X10923642Y-16080028D01*
X10923642Y-16080028D02*
X10914118Y-16099076D01*
X10914118Y-16099076D02*
X10904594Y-16108600D01*
X10904594Y-16108600D02*
X10885546Y-16118124D01*
X10885546Y-16118124D02*
X10866499Y-16118124D01*
X10866499Y-16118124D02*
X10847451Y-16108600D01*
X10847451Y-16108600D02*
X10837927Y-16099076D01*
X10837927Y-16099076D02*
X10828404Y-16080028D01*
X10828404Y-16080028D02*
X10818880Y-16041933D01*
X10818880Y-16041933D02*
X10818880Y-15994314D01*
X10818880Y-15994314D02*
X10828404Y-15956219D01*
X10828404Y-15956219D02*
X10837927Y-15937171D01*
X10837927Y-15937171D02*
X10847451Y-15927648D01*
X10847451Y-15927648D02*
X10866499Y-15918124D01*
X11018880Y-16118124D02*
X11018880Y-15984790D01*
X11018880Y-16003838D02*
X11028404Y-15994314D01*
X11028404Y-15994314D02*
X11047451Y-15984790D01*
X11047451Y-15984790D02*
X11076023Y-15984790D01*
X11076023Y-15984790D02*
X11095070Y-15994314D01*
X11095070Y-15994314D02*
X11104594Y-16013362D01*
X11104594Y-16013362D02*
X11104594Y-16118124D01*
X11104594Y-16013362D02*
X11114118Y-15994314D01*
X11114118Y-15994314D02*
X11133165Y-15984790D01*
X11133165Y-15984790D02*
X11161737Y-15984790D01*
X11161737Y-15984790D02*
X11180785Y-15994314D01*
X11180785Y-15994314D02*
X11190308Y-16013362D01*
X11190308Y-16013362D02*
X11190308Y-16118124D01*
X11285546Y-16118124D02*
X11285546Y-15984790D01*
X11285546Y-16003838D02*
X11295070Y-15994314D01*
X11295070Y-15994314D02*
X11314118Y-15984790D01*
X11314118Y-15984790D02*
X11342689Y-15984790D01*
X11342689Y-15984790D02*
X11361737Y-15994314D01*
X11361737Y-15994314D02*
X11371261Y-16013362D01*
X11371261Y-16013362D02*
X11371261Y-16118124D01*
X11371261Y-16013362D02*
X11380784Y-15994314D01*
X11380784Y-15994314D02*
X11399832Y-15984790D01*
X11399832Y-15984790D02*
X11428403Y-15984790D01*
X11428403Y-15984790D02*
X11447451Y-15994314D01*
X11447451Y-15994314D02*
X11456975Y-16013362D01*
X11456975Y-16013362D02*
X11456975Y-16118124D01*
X11847451Y-15908600D02*
X11676023Y-16165743D01*
X12104594Y-15918124D02*
X12123642Y-15918124D01*
X12123642Y-15918124D02*
X12142689Y-15927648D01*
X12142689Y-15927648D02*
X12152213Y-15937171D01*
X12152213Y-15937171D02*
X12161737Y-15956219D01*
X12161737Y-15956219D02*
X12171261Y-15994314D01*
X12171261Y-15994314D02*
X12171261Y-16041933D01*
X12171261Y-16041933D02*
X12161737Y-16080028D01*
X12161737Y-16080028D02*
X12152213Y-16099076D01*
X12152213Y-16099076D02*
X12142689Y-16108600D01*
X12142689Y-16108600D02*
X12123642Y-16118124D01*
X12123642Y-16118124D02*
X12104594Y-16118124D01*
X12104594Y-16118124D02*
X12085546Y-16108600D01*
X12085546Y-16108600D02*
X12076023Y-16099076D01*
X12076023Y-16099076D02*
X12066499Y-16080028D01*
X12066499Y-16080028D02*
X12056975Y-16041933D01*
X12056975Y-16041933D02*
X12056975Y-15994314D01*
X12056975Y-15994314D02*
X12066499Y-15956219D01*
X12066499Y-15956219D02*
X12076023Y-15937171D01*
X12076023Y-15937171D02*
X12085546Y-15927648D01*
X12085546Y-15927648D02*
X12104594Y-15918124D01*
X12256975Y-16099076D02*
X12266499Y-16108600D01*
X12266499Y-16108600D02*
X12256975Y-16118124D01*
X12256975Y-16118124D02*
X12247451Y-16108600D01*
X12247451Y-16108600D02*
X12256975Y-16099076D01*
X12256975Y-16099076D02*
X12256975Y-16118124D01*
X12390308Y-15918124D02*
X12409356Y-15918124D01*
X12409356Y-15918124D02*
X12428404Y-15927648D01*
X12428404Y-15927648D02*
X12437927Y-15937171D01*
X12437927Y-15937171D02*
X12447451Y-15956219D01*
X12447451Y-15956219D02*
X12456975Y-15994314D01*
X12456975Y-15994314D02*
X12456975Y-16041933D01*
X12456975Y-16041933D02*
X12447451Y-16080028D01*
X12447451Y-16080028D02*
X12437927Y-16099076D01*
X12437927Y-16099076D02*
X12428404Y-16108600D01*
X12428404Y-16108600D02*
X12409356Y-16118124D01*
X12409356Y-16118124D02*
X12390308Y-16118124D01*
X12390308Y-16118124D02*
X12371261Y-16108600D01*
X12371261Y-16108600D02*
X12361737Y-16099076D01*
X12361737Y-16099076D02*
X12352213Y-16080028D01*
X12352213Y-16080028D02*
X12342689Y-16041933D01*
X12342689Y-16041933D02*
X12342689Y-15994314D01*
X12342689Y-15994314D02*
X12352213Y-15956219D01*
X12352213Y-15956219D02*
X12361737Y-15937171D01*
X12361737Y-15937171D02*
X12371261Y-15927648D01*
X12371261Y-15927648D02*
X12390308Y-15918124D01*
X12628404Y-15984790D02*
X12628404Y-16118124D01*
X12580785Y-15908600D02*
X12533166Y-16051457D01*
X12533166Y-16051457D02*
X12656975Y-16051457D01*
X12714118Y-15918124D02*
X12837927Y-15918124D01*
X12837927Y-15918124D02*
X12771261Y-15994314D01*
X12771261Y-15994314D02*
X12799832Y-15994314D01*
X12799832Y-15994314D02*
X12818880Y-16003838D01*
X12818880Y-16003838D02*
X12828404Y-16013362D01*
X12828404Y-16013362D02*
X12837927Y-16032409D01*
X12837927Y-16032409D02*
X12837927Y-16080028D01*
X12837927Y-16080028D02*
X12828404Y-16099076D01*
X12828404Y-16099076D02*
X12818880Y-16108600D01*
X12818880Y-16108600D02*
X12799832Y-16118124D01*
X12799832Y-16118124D02*
X12742689Y-16118124D01*
X12742689Y-16118124D02*
X12723642Y-16108600D01*
X12723642Y-16108600D02*
X12714118Y-16099076D01*
X12904594Y-15918124D02*
X13028404Y-15918124D01*
X13028404Y-15918124D02*
X12961737Y-15994314D01*
X12961737Y-15994314D02*
X12990308Y-15994314D01*
X12990308Y-15994314D02*
X13009356Y-16003838D01*
X13009356Y-16003838D02*
X13018880Y-16013362D01*
X13018880Y-16013362D02*
X13028404Y-16032409D01*
X13028404Y-16032409D02*
X13028404Y-16080028D01*
X13028404Y-16080028D02*
X13018880Y-16099076D01*
X13018880Y-16099076D02*
X13009356Y-16108600D01*
X13009356Y-16108600D02*
X12990308Y-16118124D01*
X12990308Y-16118124D02*
X12933166Y-16118124D01*
X12933166Y-16118124D02*
X12914118Y-16108600D01*
X12914118Y-16108600D02*
X12904594Y-16099076D01*
X13104594Y-15918124D02*
X13104594Y-15956219D01*
X13180785Y-15918124D02*
X13180785Y-15956219D01*
X13476023Y-16194314D02*
X13466499Y-16184790D01*
X13466499Y-16184790D02*
X13447451Y-16156219D01*
X13447451Y-16156219D02*
X13437928Y-16137171D01*
X13437928Y-16137171D02*
X13428404Y-16108600D01*
X13428404Y-16108600D02*
X13418880Y-16060981D01*
X13418880Y-16060981D02*
X13418880Y-16022886D01*
X13418880Y-16022886D02*
X13428404Y-15975267D01*
X13428404Y-15975267D02*
X13437928Y-15946695D01*
X13437928Y-15946695D02*
X13447451Y-15927648D01*
X13447451Y-15927648D02*
X13466499Y-15899076D01*
X13466499Y-15899076D02*
X13476023Y-15889552D01*
X13637928Y-15918124D02*
X13599832Y-15918124D01*
X13599832Y-15918124D02*
X13580785Y-15927648D01*
X13580785Y-15927648D02*
X13571261Y-15937171D01*
X13571261Y-15937171D02*
X13552213Y-15965743D01*
X13552213Y-15965743D02*
X13542689Y-16003838D01*
X13542689Y-16003838D02*
X13542689Y-16080028D01*
X13542689Y-16080028D02*
X13552213Y-16099076D01*
X13552213Y-16099076D02*
X13561737Y-16108600D01*
X13561737Y-16108600D02*
X13580785Y-16118124D01*
X13580785Y-16118124D02*
X13618880Y-16118124D01*
X13618880Y-16118124D02*
X13637928Y-16108600D01*
X13637928Y-16108600D02*
X13647451Y-16099076D01*
X13647451Y-16099076D02*
X13656975Y-16080028D01*
X13656975Y-16080028D02*
X13656975Y-16032409D01*
X13656975Y-16032409D02*
X13647451Y-16013362D01*
X13647451Y-16013362D02*
X13637928Y-16003838D01*
X13637928Y-16003838D02*
X13618880Y-15994314D01*
X13618880Y-15994314D02*
X13580785Y-15994314D01*
X13580785Y-15994314D02*
X13561737Y-16003838D01*
X13561737Y-16003838D02*
X13552213Y-16013362D01*
X13552213Y-16013362D02*
X13542689Y-16032409D01*
X13895070Y-16118124D02*
X13895070Y-15918124D01*
X13980785Y-16118124D02*
X13980785Y-16013362D01*
X13980785Y-16013362D02*
X13971261Y-15994314D01*
X13971261Y-15994314D02*
X13952213Y-15984790D01*
X13952213Y-15984790D02*
X13923642Y-15984790D01*
X13923642Y-15984790D02*
X13904594Y-15994314D01*
X13904594Y-15994314D02*
X13895070Y-16003838D01*
X14104594Y-16118124D02*
X14085547Y-16108600D01*
X14085547Y-16108600D02*
X14076023Y-16099076D01*
X14076023Y-16099076D02*
X14066499Y-16080028D01*
X14066499Y-16080028D02*
X14066499Y-16022886D01*
X14066499Y-16022886D02*
X14076023Y-16003838D01*
X14076023Y-16003838D02*
X14085547Y-15994314D01*
X14085547Y-15994314D02*
X14104594Y-15984790D01*
X14104594Y-15984790D02*
X14133166Y-15984790D01*
X14133166Y-15984790D02*
X14152213Y-15994314D01*
X14152213Y-15994314D02*
X14161737Y-16003838D01*
X14161737Y-16003838D02*
X14171261Y-16022886D01*
X14171261Y-16022886D02*
X14171261Y-16080028D01*
X14171261Y-16080028D02*
X14161737Y-16099076D01*
X14161737Y-16099076D02*
X14152213Y-16108600D01*
X14152213Y-16108600D02*
X14133166Y-16118124D01*
X14133166Y-16118124D02*
X14104594Y-16118124D01*
X14285547Y-16118124D02*
X14266499Y-16108600D01*
X14266499Y-16108600D02*
X14256975Y-16089552D01*
X14256975Y-16089552D02*
X14256975Y-15918124D01*
X14437928Y-16108600D02*
X14418880Y-16118124D01*
X14418880Y-16118124D02*
X14380785Y-16118124D01*
X14380785Y-16118124D02*
X14361737Y-16108600D01*
X14361737Y-16108600D02*
X14352213Y-16089552D01*
X14352213Y-16089552D02*
X14352213Y-16013362D01*
X14352213Y-16013362D02*
X14361737Y-15994314D01*
X14361737Y-15994314D02*
X14380785Y-15984790D01*
X14380785Y-15984790D02*
X14418880Y-15984790D01*
X14418880Y-15984790D02*
X14437928Y-15994314D01*
X14437928Y-15994314D02*
X14447451Y-16013362D01*
X14447451Y-16013362D02*
X14447451Y-16032409D01*
X14447451Y-16032409D02*
X14352213Y-16051457D01*
X14523642Y-16108600D02*
X14542690Y-16118124D01*
X14542690Y-16118124D02*
X14580785Y-16118124D01*
X14580785Y-16118124D02*
X14599832Y-16108600D01*
X14599832Y-16108600D02*
X14609356Y-16089552D01*
X14609356Y-16089552D02*
X14609356Y-16080028D01*
X14609356Y-16080028D02*
X14599832Y-16060981D01*
X14599832Y-16060981D02*
X14580785Y-16051457D01*
X14580785Y-16051457D02*
X14552213Y-16051457D01*
X14552213Y-16051457D02*
X14533166Y-16041933D01*
X14533166Y-16041933D02*
X14523642Y-16022886D01*
X14523642Y-16022886D02*
X14523642Y-16013362D01*
X14523642Y-16013362D02*
X14533166Y-15994314D01*
X14533166Y-15994314D02*
X14552213Y-15984790D01*
X14552213Y-15984790D02*
X14580785Y-15984790D01*
X14580785Y-15984790D02*
X14599832Y-15994314D01*
X14676023Y-16194314D02*
X14685547Y-16184790D01*
X14685547Y-16184790D02*
X14704594Y-16156219D01*
X14704594Y-16156219D02*
X14714118Y-16137171D01*
X14714118Y-16137171D02*
X14723642Y-16108600D01*
X14723642Y-16108600D02*
X14733166Y-16060981D01*
X14733166Y-16060981D02*
X14733166Y-16022886D01*
X14733166Y-16022886D02*
X14723642Y-15975267D01*
X14723642Y-15975267D02*
X14714118Y-15946695D01*
X14714118Y-15946695D02*
X14704594Y-15927648D01*
X14704594Y-15927648D02*
X14685547Y-15899076D01*
X14685547Y-15899076D02*
X14676023Y-15889552D01*
D14*
X9770960Y-16225640D02*
X9900960Y-16355640D01*
X9900960Y-16225640D02*
X9770960Y-16355640D01*
X9900960Y-16290640D02*
G75*
G03*
X9770960Y-16290640I-65000J0D01*
G01*
X9770960Y-16290640D02*
G75*
G03*
X9900960Y-16290640I65000J0D01*
G01*
D11*
X10266499Y-16382124D02*
X10152213Y-16382124D01*
X10209356Y-16382124D02*
X10209356Y-16182124D01*
X10209356Y-16182124D02*
X10190308Y-16210695D01*
X10190308Y-16210695D02*
X10171261Y-16229743D01*
X10171261Y-16229743D02*
X10152213Y-16239267D01*
X10352213Y-16363076D02*
X10361737Y-16372600D01*
X10361737Y-16372600D02*
X10352213Y-16382124D01*
X10352213Y-16382124D02*
X10342689Y-16372600D01*
X10342689Y-16372600D02*
X10352213Y-16363076D01*
X10352213Y-16363076D02*
X10352213Y-16382124D01*
X10428404Y-16182124D02*
X10552213Y-16182124D01*
X10552213Y-16182124D02*
X10485546Y-16258314D01*
X10485546Y-16258314D02*
X10514118Y-16258314D01*
X10514118Y-16258314D02*
X10533165Y-16267838D01*
X10533165Y-16267838D02*
X10542689Y-16277362D01*
X10542689Y-16277362D02*
X10552213Y-16296409D01*
X10552213Y-16296409D02*
X10552213Y-16344028D01*
X10552213Y-16344028D02*
X10542689Y-16363076D01*
X10542689Y-16363076D02*
X10533165Y-16372600D01*
X10533165Y-16372600D02*
X10514118Y-16382124D01*
X10514118Y-16382124D02*
X10456975Y-16382124D01*
X10456975Y-16382124D02*
X10437927Y-16372600D01*
X10437927Y-16372600D02*
X10428404Y-16363076D01*
X10676023Y-16182124D02*
X10695070Y-16182124D01*
X10695070Y-16182124D02*
X10714118Y-16191648D01*
X10714118Y-16191648D02*
X10723642Y-16201171D01*
X10723642Y-16201171D02*
X10733165Y-16220219D01*
X10733165Y-16220219D02*
X10742689Y-16258314D01*
X10742689Y-16258314D02*
X10742689Y-16305933D01*
X10742689Y-16305933D02*
X10733165Y-16344028D01*
X10733165Y-16344028D02*
X10723642Y-16363076D01*
X10723642Y-16363076D02*
X10714118Y-16372600D01*
X10714118Y-16372600D02*
X10695070Y-16382124D01*
X10695070Y-16382124D02*
X10676023Y-16382124D01*
X10676023Y-16382124D02*
X10656975Y-16372600D01*
X10656975Y-16372600D02*
X10647451Y-16363076D01*
X10647451Y-16363076D02*
X10637927Y-16344028D01*
X10637927Y-16344028D02*
X10628404Y-16305933D01*
X10628404Y-16305933D02*
X10628404Y-16258314D01*
X10628404Y-16258314D02*
X10637927Y-16220219D01*
X10637927Y-16220219D02*
X10647451Y-16201171D01*
X10647451Y-16201171D02*
X10656975Y-16191648D01*
X10656975Y-16191648D02*
X10676023Y-16182124D01*
X10866499Y-16182124D02*
X10885546Y-16182124D01*
X10885546Y-16182124D02*
X10904594Y-16191648D01*
X10904594Y-16191648D02*
X10914118Y-16201171D01*
X10914118Y-16201171D02*
X10923642Y-16220219D01*
X10923642Y-16220219D02*
X10933165Y-16258314D01*
X10933165Y-16258314D02*
X10933165Y-16305933D01*
X10933165Y-16305933D02*
X10923642Y-16344028D01*
X10923642Y-16344028D02*
X10914118Y-16363076D01*
X10914118Y-16363076D02*
X10904594Y-16372600D01*
X10904594Y-16372600D02*
X10885546Y-16382124D01*
X10885546Y-16382124D02*
X10866499Y-16382124D01*
X10866499Y-16382124D02*
X10847451Y-16372600D01*
X10847451Y-16372600D02*
X10837927Y-16363076D01*
X10837927Y-16363076D02*
X10828404Y-16344028D01*
X10828404Y-16344028D02*
X10818880Y-16305933D01*
X10818880Y-16305933D02*
X10818880Y-16258314D01*
X10818880Y-16258314D02*
X10828404Y-16220219D01*
X10828404Y-16220219D02*
X10837927Y-16201171D01*
X10837927Y-16201171D02*
X10847451Y-16191648D01*
X10847451Y-16191648D02*
X10866499Y-16182124D01*
X11018880Y-16382124D02*
X11018880Y-16248790D01*
X11018880Y-16267838D02*
X11028404Y-16258314D01*
X11028404Y-16258314D02*
X11047451Y-16248790D01*
X11047451Y-16248790D02*
X11076023Y-16248790D01*
X11076023Y-16248790D02*
X11095070Y-16258314D01*
X11095070Y-16258314D02*
X11104594Y-16277362D01*
X11104594Y-16277362D02*
X11104594Y-16382124D01*
X11104594Y-16277362D02*
X11114118Y-16258314D01*
X11114118Y-16258314D02*
X11133165Y-16248790D01*
X11133165Y-16248790D02*
X11161737Y-16248790D01*
X11161737Y-16248790D02*
X11180785Y-16258314D01*
X11180785Y-16258314D02*
X11190308Y-16277362D01*
X11190308Y-16277362D02*
X11190308Y-16382124D01*
X11285546Y-16382124D02*
X11285546Y-16248790D01*
X11285546Y-16267838D02*
X11295070Y-16258314D01*
X11295070Y-16258314D02*
X11314118Y-16248790D01*
X11314118Y-16248790D02*
X11342689Y-16248790D01*
X11342689Y-16248790D02*
X11361737Y-16258314D01*
X11361737Y-16258314D02*
X11371261Y-16277362D01*
X11371261Y-16277362D02*
X11371261Y-16382124D01*
X11371261Y-16277362D02*
X11380784Y-16258314D01*
X11380784Y-16258314D02*
X11399832Y-16248790D01*
X11399832Y-16248790D02*
X11428403Y-16248790D01*
X11428403Y-16248790D02*
X11447451Y-16258314D01*
X11447451Y-16258314D02*
X11456975Y-16277362D01*
X11456975Y-16277362D02*
X11456975Y-16382124D01*
X11847451Y-16172600D02*
X11676023Y-16429743D01*
X12104594Y-16182124D02*
X12123642Y-16182124D01*
X12123642Y-16182124D02*
X12142689Y-16191648D01*
X12142689Y-16191648D02*
X12152213Y-16201171D01*
X12152213Y-16201171D02*
X12161737Y-16220219D01*
X12161737Y-16220219D02*
X12171261Y-16258314D01*
X12171261Y-16258314D02*
X12171261Y-16305933D01*
X12171261Y-16305933D02*
X12161737Y-16344028D01*
X12161737Y-16344028D02*
X12152213Y-16363076D01*
X12152213Y-16363076D02*
X12142689Y-16372600D01*
X12142689Y-16372600D02*
X12123642Y-16382124D01*
X12123642Y-16382124D02*
X12104594Y-16382124D01*
X12104594Y-16382124D02*
X12085546Y-16372600D01*
X12085546Y-16372600D02*
X12076023Y-16363076D01*
X12076023Y-16363076D02*
X12066499Y-16344028D01*
X12066499Y-16344028D02*
X12056975Y-16305933D01*
X12056975Y-16305933D02*
X12056975Y-16258314D01*
X12056975Y-16258314D02*
X12066499Y-16220219D01*
X12066499Y-16220219D02*
X12076023Y-16201171D01*
X12076023Y-16201171D02*
X12085546Y-16191648D01*
X12085546Y-16191648D02*
X12104594Y-16182124D01*
X12256975Y-16363076D02*
X12266499Y-16372600D01*
X12266499Y-16372600D02*
X12256975Y-16382124D01*
X12256975Y-16382124D02*
X12247451Y-16372600D01*
X12247451Y-16372600D02*
X12256975Y-16363076D01*
X12256975Y-16363076D02*
X12256975Y-16382124D01*
X12390308Y-16182124D02*
X12409356Y-16182124D01*
X12409356Y-16182124D02*
X12428404Y-16191648D01*
X12428404Y-16191648D02*
X12437927Y-16201171D01*
X12437927Y-16201171D02*
X12447451Y-16220219D01*
X12447451Y-16220219D02*
X12456975Y-16258314D01*
X12456975Y-16258314D02*
X12456975Y-16305933D01*
X12456975Y-16305933D02*
X12447451Y-16344028D01*
X12447451Y-16344028D02*
X12437927Y-16363076D01*
X12437927Y-16363076D02*
X12428404Y-16372600D01*
X12428404Y-16372600D02*
X12409356Y-16382124D01*
X12409356Y-16382124D02*
X12390308Y-16382124D01*
X12390308Y-16382124D02*
X12371261Y-16372600D01*
X12371261Y-16372600D02*
X12361737Y-16363076D01*
X12361737Y-16363076D02*
X12352213Y-16344028D01*
X12352213Y-16344028D02*
X12342689Y-16305933D01*
X12342689Y-16305933D02*
X12342689Y-16258314D01*
X12342689Y-16258314D02*
X12352213Y-16220219D01*
X12352213Y-16220219D02*
X12361737Y-16201171D01*
X12361737Y-16201171D02*
X12371261Y-16191648D01*
X12371261Y-16191648D02*
X12390308Y-16182124D01*
X12637927Y-16182124D02*
X12542689Y-16182124D01*
X12542689Y-16182124D02*
X12533166Y-16277362D01*
X12533166Y-16277362D02*
X12542689Y-16267838D01*
X12542689Y-16267838D02*
X12561737Y-16258314D01*
X12561737Y-16258314D02*
X12609356Y-16258314D01*
X12609356Y-16258314D02*
X12628404Y-16267838D01*
X12628404Y-16267838D02*
X12637927Y-16277362D01*
X12637927Y-16277362D02*
X12647451Y-16296409D01*
X12647451Y-16296409D02*
X12647451Y-16344028D01*
X12647451Y-16344028D02*
X12637927Y-16363076D01*
X12637927Y-16363076D02*
X12628404Y-16372600D01*
X12628404Y-16372600D02*
X12609356Y-16382124D01*
X12609356Y-16382124D02*
X12561737Y-16382124D01*
X12561737Y-16382124D02*
X12542689Y-16372600D01*
X12542689Y-16372600D02*
X12533166Y-16363076D01*
X12837927Y-16382124D02*
X12723642Y-16382124D01*
X12780785Y-16382124D02*
X12780785Y-16182124D01*
X12780785Y-16182124D02*
X12761737Y-16210695D01*
X12761737Y-16210695D02*
X12742689Y-16229743D01*
X12742689Y-16229743D02*
X12723642Y-16239267D01*
X12914118Y-16201171D02*
X12923642Y-16191648D01*
X12923642Y-16191648D02*
X12942689Y-16182124D01*
X12942689Y-16182124D02*
X12990308Y-16182124D01*
X12990308Y-16182124D02*
X13009356Y-16191648D01*
X13009356Y-16191648D02*
X13018880Y-16201171D01*
X13018880Y-16201171D02*
X13028404Y-16220219D01*
X13028404Y-16220219D02*
X13028404Y-16239267D01*
X13028404Y-16239267D02*
X13018880Y-16267838D01*
X13018880Y-16267838D02*
X12904594Y-16382124D01*
X12904594Y-16382124D02*
X13028404Y-16382124D01*
X13104594Y-16182124D02*
X13104594Y-16220219D01*
X13180785Y-16182124D02*
X13180785Y-16220219D01*
X13476023Y-16458314D02*
X13466499Y-16448790D01*
X13466499Y-16448790D02*
X13447451Y-16420219D01*
X13447451Y-16420219D02*
X13437928Y-16401171D01*
X13437928Y-16401171D02*
X13428404Y-16372600D01*
X13428404Y-16372600D02*
X13418880Y-16324981D01*
X13418880Y-16324981D02*
X13418880Y-16286886D01*
X13418880Y-16286886D02*
X13428404Y-16239267D01*
X13428404Y-16239267D02*
X13437928Y-16210695D01*
X13437928Y-16210695D02*
X13447451Y-16191648D01*
X13447451Y-16191648D02*
X13466499Y-16163076D01*
X13466499Y-16163076D02*
X13476023Y-16153552D01*
X13637928Y-16182124D02*
X13599832Y-16182124D01*
X13599832Y-16182124D02*
X13580785Y-16191648D01*
X13580785Y-16191648D02*
X13571261Y-16201171D01*
X13571261Y-16201171D02*
X13552213Y-16229743D01*
X13552213Y-16229743D02*
X13542689Y-16267838D01*
X13542689Y-16267838D02*
X13542689Y-16344028D01*
X13542689Y-16344028D02*
X13552213Y-16363076D01*
X13552213Y-16363076D02*
X13561737Y-16372600D01*
X13561737Y-16372600D02*
X13580785Y-16382124D01*
X13580785Y-16382124D02*
X13618880Y-16382124D01*
X13618880Y-16382124D02*
X13637928Y-16372600D01*
X13637928Y-16372600D02*
X13647451Y-16363076D01*
X13647451Y-16363076D02*
X13656975Y-16344028D01*
X13656975Y-16344028D02*
X13656975Y-16296409D01*
X13656975Y-16296409D02*
X13647451Y-16277362D01*
X13647451Y-16277362D02*
X13637928Y-16267838D01*
X13637928Y-16267838D02*
X13618880Y-16258314D01*
X13618880Y-16258314D02*
X13580785Y-16258314D01*
X13580785Y-16258314D02*
X13561737Y-16267838D01*
X13561737Y-16267838D02*
X13552213Y-16277362D01*
X13552213Y-16277362D02*
X13542689Y-16296409D01*
X13895070Y-16382124D02*
X13895070Y-16182124D01*
X13980785Y-16382124D02*
X13980785Y-16277362D01*
X13980785Y-16277362D02*
X13971261Y-16258314D01*
X13971261Y-16258314D02*
X13952213Y-16248790D01*
X13952213Y-16248790D02*
X13923642Y-16248790D01*
X13923642Y-16248790D02*
X13904594Y-16258314D01*
X13904594Y-16258314D02*
X13895070Y-16267838D01*
X14104594Y-16382124D02*
X14085547Y-16372600D01*
X14085547Y-16372600D02*
X14076023Y-16363076D01*
X14076023Y-16363076D02*
X14066499Y-16344028D01*
X14066499Y-16344028D02*
X14066499Y-16286886D01*
X14066499Y-16286886D02*
X14076023Y-16267838D01*
X14076023Y-16267838D02*
X14085547Y-16258314D01*
X14085547Y-16258314D02*
X14104594Y-16248790D01*
X14104594Y-16248790D02*
X14133166Y-16248790D01*
X14133166Y-16248790D02*
X14152213Y-16258314D01*
X14152213Y-16258314D02*
X14161737Y-16267838D01*
X14161737Y-16267838D02*
X14171261Y-16286886D01*
X14171261Y-16286886D02*
X14171261Y-16344028D01*
X14171261Y-16344028D02*
X14161737Y-16363076D01*
X14161737Y-16363076D02*
X14152213Y-16372600D01*
X14152213Y-16372600D02*
X14133166Y-16382124D01*
X14133166Y-16382124D02*
X14104594Y-16382124D01*
X14285547Y-16382124D02*
X14266499Y-16372600D01*
X14266499Y-16372600D02*
X14256975Y-16353552D01*
X14256975Y-16353552D02*
X14256975Y-16182124D01*
X14437928Y-16372600D02*
X14418880Y-16382124D01*
X14418880Y-16382124D02*
X14380785Y-16382124D01*
X14380785Y-16382124D02*
X14361737Y-16372600D01*
X14361737Y-16372600D02*
X14352213Y-16353552D01*
X14352213Y-16353552D02*
X14352213Y-16277362D01*
X14352213Y-16277362D02*
X14361737Y-16258314D01*
X14361737Y-16258314D02*
X14380785Y-16248790D01*
X14380785Y-16248790D02*
X14418880Y-16248790D01*
X14418880Y-16248790D02*
X14437928Y-16258314D01*
X14437928Y-16258314D02*
X14447451Y-16277362D01*
X14447451Y-16277362D02*
X14447451Y-16296409D01*
X14447451Y-16296409D02*
X14352213Y-16315457D01*
X14523642Y-16372600D02*
X14542690Y-16382124D01*
X14542690Y-16382124D02*
X14580785Y-16382124D01*
X14580785Y-16382124D02*
X14599832Y-16372600D01*
X14599832Y-16372600D02*
X14609356Y-16353552D01*
X14609356Y-16353552D02*
X14609356Y-16344028D01*
X14609356Y-16344028D02*
X14599832Y-16324981D01*
X14599832Y-16324981D02*
X14580785Y-16315457D01*
X14580785Y-16315457D02*
X14552213Y-16315457D01*
X14552213Y-16315457D02*
X14533166Y-16305933D01*
X14533166Y-16305933D02*
X14523642Y-16286886D01*
X14523642Y-16286886D02*
X14523642Y-16277362D01*
X14523642Y-16277362D02*
X14533166Y-16258314D01*
X14533166Y-16258314D02*
X14552213Y-16248790D01*
X14552213Y-16248790D02*
X14580785Y-16248790D01*
X14580785Y-16248790D02*
X14599832Y-16258314D01*
X14676023Y-16458314D02*
X14685547Y-16448790D01*
X14685547Y-16448790D02*
X14704594Y-16420219D01*
X14704594Y-16420219D02*
X14714118Y-16401171D01*
X14714118Y-16401171D02*
X14723642Y-16372600D01*
X14723642Y-16372600D02*
X14733166Y-16324981D01*
X14733166Y-16324981D02*
X14733166Y-16286886D01*
X14733166Y-16286886D02*
X14723642Y-16239267D01*
X14723642Y-16239267D02*
X14714118Y-16210695D01*
X14714118Y-16210695D02*
X14704594Y-16191648D01*
X14704594Y-16191648D02*
X14685547Y-16163076D01*
X14685547Y-16163076D02*
X14676023Y-16153552D01*
D15*
X9750960Y-16479640D02*
X9900960Y-16629640D01*
X9900960Y-16479640D02*
X9750960Y-16629640D01*
X9825960Y-16479640D02*
X9825960Y-16629640D01*
X9750960Y-16554640D02*
X9900960Y-16554640D01*
D11*
X10266499Y-16646124D02*
X10152213Y-16646124D01*
X10209356Y-16646124D02*
X10209356Y-16446124D01*
X10209356Y-16446124D02*
X10190308Y-16474695D01*
X10190308Y-16474695D02*
X10171261Y-16493743D01*
X10171261Y-16493743D02*
X10152213Y-16503267D01*
X10352213Y-16627076D02*
X10361737Y-16636600D01*
X10361737Y-16636600D02*
X10352213Y-16646124D01*
X10352213Y-16646124D02*
X10342689Y-16636600D01*
X10342689Y-16636600D02*
X10352213Y-16627076D01*
X10352213Y-16627076D02*
X10352213Y-16646124D01*
X10542689Y-16446124D02*
X10447451Y-16446124D01*
X10447451Y-16446124D02*
X10437927Y-16541362D01*
X10437927Y-16541362D02*
X10447451Y-16531838D01*
X10447451Y-16531838D02*
X10466499Y-16522314D01*
X10466499Y-16522314D02*
X10514118Y-16522314D01*
X10514118Y-16522314D02*
X10533165Y-16531838D01*
X10533165Y-16531838D02*
X10542689Y-16541362D01*
X10542689Y-16541362D02*
X10552213Y-16560409D01*
X10552213Y-16560409D02*
X10552213Y-16608028D01*
X10552213Y-16608028D02*
X10542689Y-16627076D01*
X10542689Y-16627076D02*
X10533165Y-16636600D01*
X10533165Y-16636600D02*
X10514118Y-16646124D01*
X10514118Y-16646124D02*
X10466499Y-16646124D01*
X10466499Y-16646124D02*
X10447451Y-16636600D01*
X10447451Y-16636600D02*
X10437927Y-16627076D01*
X10676023Y-16446124D02*
X10695070Y-16446124D01*
X10695070Y-16446124D02*
X10714118Y-16455648D01*
X10714118Y-16455648D02*
X10723642Y-16465171D01*
X10723642Y-16465171D02*
X10733165Y-16484219D01*
X10733165Y-16484219D02*
X10742689Y-16522314D01*
X10742689Y-16522314D02*
X10742689Y-16569933D01*
X10742689Y-16569933D02*
X10733165Y-16608028D01*
X10733165Y-16608028D02*
X10723642Y-16627076D01*
X10723642Y-16627076D02*
X10714118Y-16636600D01*
X10714118Y-16636600D02*
X10695070Y-16646124D01*
X10695070Y-16646124D02*
X10676023Y-16646124D01*
X10676023Y-16646124D02*
X10656975Y-16636600D01*
X10656975Y-16636600D02*
X10647451Y-16627076D01*
X10647451Y-16627076D02*
X10637927Y-16608028D01*
X10637927Y-16608028D02*
X10628404Y-16569933D01*
X10628404Y-16569933D02*
X10628404Y-16522314D01*
X10628404Y-16522314D02*
X10637927Y-16484219D01*
X10637927Y-16484219D02*
X10647451Y-16465171D01*
X10647451Y-16465171D02*
X10656975Y-16455648D01*
X10656975Y-16455648D02*
X10676023Y-16446124D01*
X10866499Y-16446124D02*
X10885546Y-16446124D01*
X10885546Y-16446124D02*
X10904594Y-16455648D01*
X10904594Y-16455648D02*
X10914118Y-16465171D01*
X10914118Y-16465171D02*
X10923642Y-16484219D01*
X10923642Y-16484219D02*
X10933165Y-16522314D01*
X10933165Y-16522314D02*
X10933165Y-16569933D01*
X10933165Y-16569933D02*
X10923642Y-16608028D01*
X10923642Y-16608028D02*
X10914118Y-16627076D01*
X10914118Y-16627076D02*
X10904594Y-16636600D01*
X10904594Y-16636600D02*
X10885546Y-16646124D01*
X10885546Y-16646124D02*
X10866499Y-16646124D01*
X10866499Y-16646124D02*
X10847451Y-16636600D01*
X10847451Y-16636600D02*
X10837927Y-16627076D01*
X10837927Y-16627076D02*
X10828404Y-16608028D01*
X10828404Y-16608028D02*
X10818880Y-16569933D01*
X10818880Y-16569933D02*
X10818880Y-16522314D01*
X10818880Y-16522314D02*
X10828404Y-16484219D01*
X10828404Y-16484219D02*
X10837927Y-16465171D01*
X10837927Y-16465171D02*
X10847451Y-16455648D01*
X10847451Y-16455648D02*
X10866499Y-16446124D01*
X11018880Y-16646124D02*
X11018880Y-16512790D01*
X11018880Y-16531838D02*
X11028404Y-16522314D01*
X11028404Y-16522314D02*
X11047451Y-16512790D01*
X11047451Y-16512790D02*
X11076023Y-16512790D01*
X11076023Y-16512790D02*
X11095070Y-16522314D01*
X11095070Y-16522314D02*
X11104594Y-16541362D01*
X11104594Y-16541362D02*
X11104594Y-16646124D01*
X11104594Y-16541362D02*
X11114118Y-16522314D01*
X11114118Y-16522314D02*
X11133165Y-16512790D01*
X11133165Y-16512790D02*
X11161737Y-16512790D01*
X11161737Y-16512790D02*
X11180785Y-16522314D01*
X11180785Y-16522314D02*
X11190308Y-16541362D01*
X11190308Y-16541362D02*
X11190308Y-16646124D01*
X11285546Y-16646124D02*
X11285546Y-16512790D01*
X11285546Y-16531838D02*
X11295070Y-16522314D01*
X11295070Y-16522314D02*
X11314118Y-16512790D01*
X11314118Y-16512790D02*
X11342689Y-16512790D01*
X11342689Y-16512790D02*
X11361737Y-16522314D01*
X11361737Y-16522314D02*
X11371261Y-16541362D01*
X11371261Y-16541362D02*
X11371261Y-16646124D01*
X11371261Y-16541362D02*
X11380784Y-16522314D01*
X11380784Y-16522314D02*
X11399832Y-16512790D01*
X11399832Y-16512790D02*
X11428403Y-16512790D01*
X11428403Y-16512790D02*
X11447451Y-16522314D01*
X11447451Y-16522314D02*
X11456975Y-16541362D01*
X11456975Y-16541362D02*
X11456975Y-16646124D01*
X11847451Y-16436600D02*
X11676023Y-16693743D01*
X12104594Y-16446124D02*
X12123642Y-16446124D01*
X12123642Y-16446124D02*
X12142689Y-16455648D01*
X12142689Y-16455648D02*
X12152213Y-16465171D01*
X12152213Y-16465171D02*
X12161737Y-16484219D01*
X12161737Y-16484219D02*
X12171261Y-16522314D01*
X12171261Y-16522314D02*
X12171261Y-16569933D01*
X12171261Y-16569933D02*
X12161737Y-16608028D01*
X12161737Y-16608028D02*
X12152213Y-16627076D01*
X12152213Y-16627076D02*
X12142689Y-16636600D01*
X12142689Y-16636600D02*
X12123642Y-16646124D01*
X12123642Y-16646124D02*
X12104594Y-16646124D01*
X12104594Y-16646124D02*
X12085546Y-16636600D01*
X12085546Y-16636600D02*
X12076023Y-16627076D01*
X12076023Y-16627076D02*
X12066499Y-16608028D01*
X12066499Y-16608028D02*
X12056975Y-16569933D01*
X12056975Y-16569933D02*
X12056975Y-16522314D01*
X12056975Y-16522314D02*
X12066499Y-16484219D01*
X12066499Y-16484219D02*
X12076023Y-16465171D01*
X12076023Y-16465171D02*
X12085546Y-16455648D01*
X12085546Y-16455648D02*
X12104594Y-16446124D01*
X12256975Y-16627076D02*
X12266499Y-16636600D01*
X12266499Y-16636600D02*
X12256975Y-16646124D01*
X12256975Y-16646124D02*
X12247451Y-16636600D01*
X12247451Y-16636600D02*
X12256975Y-16627076D01*
X12256975Y-16627076D02*
X12256975Y-16646124D01*
X12390308Y-16446124D02*
X12409356Y-16446124D01*
X12409356Y-16446124D02*
X12428404Y-16455648D01*
X12428404Y-16455648D02*
X12437927Y-16465171D01*
X12437927Y-16465171D02*
X12447451Y-16484219D01*
X12447451Y-16484219D02*
X12456975Y-16522314D01*
X12456975Y-16522314D02*
X12456975Y-16569933D01*
X12456975Y-16569933D02*
X12447451Y-16608028D01*
X12447451Y-16608028D02*
X12437927Y-16627076D01*
X12437927Y-16627076D02*
X12428404Y-16636600D01*
X12428404Y-16636600D02*
X12409356Y-16646124D01*
X12409356Y-16646124D02*
X12390308Y-16646124D01*
X12390308Y-16646124D02*
X12371261Y-16636600D01*
X12371261Y-16636600D02*
X12361737Y-16627076D01*
X12361737Y-16627076D02*
X12352213Y-16608028D01*
X12352213Y-16608028D02*
X12342689Y-16569933D01*
X12342689Y-16569933D02*
X12342689Y-16522314D01*
X12342689Y-16522314D02*
X12352213Y-16484219D01*
X12352213Y-16484219D02*
X12361737Y-16465171D01*
X12361737Y-16465171D02*
X12371261Y-16455648D01*
X12371261Y-16455648D02*
X12390308Y-16446124D01*
X12637927Y-16446124D02*
X12542689Y-16446124D01*
X12542689Y-16446124D02*
X12533166Y-16541362D01*
X12533166Y-16541362D02*
X12542689Y-16531838D01*
X12542689Y-16531838D02*
X12561737Y-16522314D01*
X12561737Y-16522314D02*
X12609356Y-16522314D01*
X12609356Y-16522314D02*
X12628404Y-16531838D01*
X12628404Y-16531838D02*
X12637927Y-16541362D01*
X12637927Y-16541362D02*
X12647451Y-16560409D01*
X12647451Y-16560409D02*
X12647451Y-16608028D01*
X12647451Y-16608028D02*
X12637927Y-16627076D01*
X12637927Y-16627076D02*
X12628404Y-16636600D01*
X12628404Y-16636600D02*
X12609356Y-16646124D01*
X12609356Y-16646124D02*
X12561737Y-16646124D01*
X12561737Y-16646124D02*
X12542689Y-16636600D01*
X12542689Y-16636600D02*
X12533166Y-16627076D01*
X12742689Y-16646124D02*
X12780785Y-16646124D01*
X12780785Y-16646124D02*
X12799832Y-16636600D01*
X12799832Y-16636600D02*
X12809356Y-16627076D01*
X12809356Y-16627076D02*
X12828404Y-16598505D01*
X12828404Y-16598505D02*
X12837927Y-16560409D01*
X12837927Y-16560409D02*
X12837927Y-16484219D01*
X12837927Y-16484219D02*
X12828404Y-16465171D01*
X12828404Y-16465171D02*
X12818880Y-16455648D01*
X12818880Y-16455648D02*
X12799832Y-16446124D01*
X12799832Y-16446124D02*
X12761737Y-16446124D01*
X12761737Y-16446124D02*
X12742689Y-16455648D01*
X12742689Y-16455648D02*
X12733166Y-16465171D01*
X12733166Y-16465171D02*
X12723642Y-16484219D01*
X12723642Y-16484219D02*
X12723642Y-16531838D01*
X12723642Y-16531838D02*
X12733166Y-16550886D01*
X12733166Y-16550886D02*
X12742689Y-16560409D01*
X12742689Y-16560409D02*
X12761737Y-16569933D01*
X12761737Y-16569933D02*
X12799832Y-16569933D01*
X12799832Y-16569933D02*
X12818880Y-16560409D01*
X12818880Y-16560409D02*
X12828404Y-16550886D01*
X12828404Y-16550886D02*
X12837927Y-16531838D01*
X13028404Y-16646124D02*
X12914118Y-16646124D01*
X12971261Y-16646124D02*
X12971261Y-16446124D01*
X12971261Y-16446124D02*
X12952213Y-16474695D01*
X12952213Y-16474695D02*
X12933166Y-16493743D01*
X12933166Y-16493743D02*
X12914118Y-16503267D01*
X13104594Y-16446124D02*
X13104594Y-16484219D01*
X13180785Y-16446124D02*
X13180785Y-16484219D01*
X13476023Y-16722314D02*
X13466499Y-16712790D01*
X13466499Y-16712790D02*
X13447451Y-16684219D01*
X13447451Y-16684219D02*
X13437928Y-16665171D01*
X13437928Y-16665171D02*
X13428404Y-16636600D01*
X13428404Y-16636600D02*
X13418880Y-16588981D01*
X13418880Y-16588981D02*
X13418880Y-16550886D01*
X13418880Y-16550886D02*
X13428404Y-16503267D01*
X13428404Y-16503267D02*
X13437928Y-16474695D01*
X13437928Y-16474695D02*
X13447451Y-16455648D01*
X13447451Y-16455648D02*
X13466499Y-16427076D01*
X13466499Y-16427076D02*
X13476023Y-16417552D01*
X13590308Y-16446124D02*
X13609356Y-16446124D01*
X13609356Y-16446124D02*
X13628404Y-16455648D01*
X13628404Y-16455648D02*
X13637928Y-16465171D01*
X13637928Y-16465171D02*
X13647451Y-16484219D01*
X13647451Y-16484219D02*
X13656975Y-16522314D01*
X13656975Y-16522314D02*
X13656975Y-16569933D01*
X13656975Y-16569933D02*
X13647451Y-16608028D01*
X13647451Y-16608028D02*
X13637928Y-16627076D01*
X13637928Y-16627076D02*
X13628404Y-16636600D01*
X13628404Y-16636600D02*
X13609356Y-16646124D01*
X13609356Y-16646124D02*
X13590308Y-16646124D01*
X13590308Y-16646124D02*
X13571261Y-16636600D01*
X13571261Y-16636600D02*
X13561737Y-16627076D01*
X13561737Y-16627076D02*
X13552213Y-16608028D01*
X13552213Y-16608028D02*
X13542689Y-16569933D01*
X13542689Y-16569933D02*
X13542689Y-16522314D01*
X13542689Y-16522314D02*
X13552213Y-16484219D01*
X13552213Y-16484219D02*
X13561737Y-16465171D01*
X13561737Y-16465171D02*
X13571261Y-16455648D01*
X13571261Y-16455648D02*
X13590308Y-16446124D01*
X13895070Y-16646124D02*
X13895070Y-16446124D01*
X13980785Y-16646124D02*
X13980785Y-16541362D01*
X13980785Y-16541362D02*
X13971261Y-16522314D01*
X13971261Y-16522314D02*
X13952213Y-16512790D01*
X13952213Y-16512790D02*
X13923642Y-16512790D01*
X13923642Y-16512790D02*
X13904594Y-16522314D01*
X13904594Y-16522314D02*
X13895070Y-16531838D01*
X14104594Y-16646124D02*
X14085547Y-16636600D01*
X14085547Y-16636600D02*
X14076023Y-16627076D01*
X14076023Y-16627076D02*
X14066499Y-16608028D01*
X14066499Y-16608028D02*
X14066499Y-16550886D01*
X14066499Y-16550886D02*
X14076023Y-16531838D01*
X14076023Y-16531838D02*
X14085547Y-16522314D01*
X14085547Y-16522314D02*
X14104594Y-16512790D01*
X14104594Y-16512790D02*
X14133166Y-16512790D01*
X14133166Y-16512790D02*
X14152213Y-16522314D01*
X14152213Y-16522314D02*
X14161737Y-16531838D01*
X14161737Y-16531838D02*
X14171261Y-16550886D01*
X14171261Y-16550886D02*
X14171261Y-16608028D01*
X14171261Y-16608028D02*
X14161737Y-16627076D01*
X14161737Y-16627076D02*
X14152213Y-16636600D01*
X14152213Y-16636600D02*
X14133166Y-16646124D01*
X14133166Y-16646124D02*
X14104594Y-16646124D01*
X14285547Y-16646124D02*
X14266499Y-16636600D01*
X14266499Y-16636600D02*
X14256975Y-16617552D01*
X14256975Y-16617552D02*
X14256975Y-16446124D01*
X14437928Y-16636600D02*
X14418880Y-16646124D01*
X14418880Y-16646124D02*
X14380785Y-16646124D01*
X14380785Y-16646124D02*
X14361737Y-16636600D01*
X14361737Y-16636600D02*
X14352213Y-16617552D01*
X14352213Y-16617552D02*
X14352213Y-16541362D01*
X14352213Y-16541362D02*
X14361737Y-16522314D01*
X14361737Y-16522314D02*
X14380785Y-16512790D01*
X14380785Y-16512790D02*
X14418880Y-16512790D01*
X14418880Y-16512790D02*
X14437928Y-16522314D01*
X14437928Y-16522314D02*
X14447451Y-16541362D01*
X14447451Y-16541362D02*
X14447451Y-16560409D01*
X14447451Y-16560409D02*
X14352213Y-16579457D01*
X14523642Y-16636600D02*
X14542690Y-16646124D01*
X14542690Y-16646124D02*
X14580785Y-16646124D01*
X14580785Y-16646124D02*
X14599832Y-16636600D01*
X14599832Y-16636600D02*
X14609356Y-16617552D01*
X14609356Y-16617552D02*
X14609356Y-16608028D01*
X14609356Y-16608028D02*
X14599832Y-16588981D01*
X14599832Y-16588981D02*
X14580785Y-16579457D01*
X14580785Y-16579457D02*
X14552213Y-16579457D01*
X14552213Y-16579457D02*
X14533166Y-16569933D01*
X14533166Y-16569933D02*
X14523642Y-16550886D01*
X14523642Y-16550886D02*
X14523642Y-16541362D01*
X14523642Y-16541362D02*
X14533166Y-16522314D01*
X14533166Y-16522314D02*
X14552213Y-16512790D01*
X14552213Y-16512790D02*
X14580785Y-16512790D01*
X14580785Y-16512790D02*
X14599832Y-16522314D01*
X14847452Y-16569933D02*
X14999833Y-16569933D01*
X14923642Y-16646124D02*
X14923642Y-16493743D01*
X15237928Y-16465171D02*
X15247452Y-16455648D01*
X15247452Y-16455648D02*
X15266499Y-16446124D01*
X15266499Y-16446124D02*
X15314118Y-16446124D01*
X15314118Y-16446124D02*
X15333166Y-16455648D01*
X15333166Y-16455648D02*
X15342690Y-16465171D01*
X15342690Y-16465171D02*
X15352213Y-16484219D01*
X15352213Y-16484219D02*
X15352213Y-16503267D01*
X15352213Y-16503267D02*
X15342690Y-16531838D01*
X15342690Y-16531838D02*
X15228404Y-16646124D01*
X15228404Y-16646124D02*
X15352213Y-16646124D01*
X15580785Y-16636600D02*
X15599833Y-16646124D01*
X15599833Y-16646124D02*
X15637928Y-16646124D01*
X15637928Y-16646124D02*
X15656975Y-16636600D01*
X15656975Y-16636600D02*
X15666499Y-16617552D01*
X15666499Y-16617552D02*
X15666499Y-16608028D01*
X15666499Y-16608028D02*
X15656975Y-16588981D01*
X15656975Y-16588981D02*
X15637928Y-16579457D01*
X15637928Y-16579457D02*
X15609356Y-16579457D01*
X15609356Y-16579457D02*
X15590309Y-16569933D01*
X15590309Y-16569933D02*
X15580785Y-16550886D01*
X15580785Y-16550886D02*
X15580785Y-16541362D01*
X15580785Y-16541362D02*
X15590309Y-16522314D01*
X15590309Y-16522314D02*
X15609356Y-16512790D01*
X15609356Y-16512790D02*
X15637928Y-16512790D01*
X15637928Y-16512790D02*
X15656975Y-16522314D01*
X15780785Y-16646124D02*
X15761737Y-16636600D01*
X15761737Y-16636600D02*
X15752214Y-16617552D01*
X15752214Y-16617552D02*
X15752214Y-16446124D01*
X15885547Y-16646124D02*
X15866499Y-16636600D01*
X15866499Y-16636600D02*
X15856975Y-16627076D01*
X15856975Y-16627076D02*
X15847452Y-16608028D01*
X15847452Y-16608028D02*
X15847452Y-16550886D01*
X15847452Y-16550886D02*
X15856975Y-16531838D01*
X15856975Y-16531838D02*
X15866499Y-16522314D01*
X15866499Y-16522314D02*
X15885547Y-16512790D01*
X15885547Y-16512790D02*
X15914118Y-16512790D01*
X15914118Y-16512790D02*
X15933166Y-16522314D01*
X15933166Y-16522314D02*
X15942690Y-16531838D01*
X15942690Y-16531838D02*
X15952214Y-16550886D01*
X15952214Y-16550886D02*
X15952214Y-16608028D01*
X15952214Y-16608028D02*
X15942690Y-16627076D01*
X15942690Y-16627076D02*
X15933166Y-16636600D01*
X15933166Y-16636600D02*
X15914118Y-16646124D01*
X15914118Y-16646124D02*
X15885547Y-16646124D01*
X16009356Y-16512790D02*
X16085547Y-16512790D01*
X16037928Y-16446124D02*
X16037928Y-16617552D01*
X16037928Y-16617552D02*
X16047452Y-16636600D01*
X16047452Y-16636600D02*
X16066499Y-16646124D01*
X16066499Y-16646124D02*
X16085547Y-16646124D01*
X16142690Y-16636600D02*
X16161737Y-16646124D01*
X16161737Y-16646124D02*
X16199833Y-16646124D01*
X16199833Y-16646124D02*
X16218880Y-16636600D01*
X16218880Y-16636600D02*
X16228404Y-16617552D01*
X16228404Y-16617552D02*
X16228404Y-16608028D01*
X16228404Y-16608028D02*
X16218880Y-16588981D01*
X16218880Y-16588981D02*
X16199833Y-16579457D01*
X16199833Y-16579457D02*
X16171261Y-16579457D01*
X16171261Y-16579457D02*
X16152214Y-16569933D01*
X16152214Y-16569933D02*
X16142690Y-16550886D01*
X16142690Y-16550886D02*
X16142690Y-16541362D01*
X16142690Y-16541362D02*
X16152214Y-16522314D01*
X16152214Y-16522314D02*
X16171261Y-16512790D01*
X16171261Y-16512790D02*
X16199833Y-16512790D01*
X16199833Y-16512790D02*
X16218880Y-16522314D01*
X16295071Y-16722314D02*
X16304595Y-16712790D01*
X16304595Y-16712790D02*
X16323642Y-16684219D01*
X16323642Y-16684219D02*
X16333166Y-16665171D01*
X16333166Y-16665171D02*
X16342690Y-16636600D01*
X16342690Y-16636600D02*
X16352214Y-16588981D01*
X16352214Y-16588981D02*
X16352214Y-16550886D01*
X16352214Y-16550886D02*
X16342690Y-16503267D01*
X16342690Y-16503267D02*
X16333166Y-16474695D01*
X16333166Y-16474695D02*
X16323642Y-16455648D01*
X16323642Y-16455648D02*
X16304595Y-16427076D01*
X16304595Y-16427076D02*
X16295071Y-16417552D01*
D16*
X9745960Y-16747140D02*
X9900960Y-16902140D01*
X9900960Y-16747140D02*
X9745960Y-16902140D01*
X9878261Y-16879441D02*
X9878261Y-16769839D01*
X9768659Y-16769839D01*
X9768659Y-16879441D01*
X9878261Y-16879441D01*
D11*
X10266499Y-16916124D02*
X10152213Y-16916124D01*
X10209356Y-16916124D02*
X10209356Y-16716124D01*
X10209356Y-16716124D02*
X10190308Y-16744695D01*
X10190308Y-16744695D02*
X10171261Y-16763743D01*
X10171261Y-16763743D02*
X10152213Y-16773267D01*
X10352213Y-16897076D02*
X10361737Y-16906600D01*
X10361737Y-16906600D02*
X10352213Y-16916124D01*
X10352213Y-16916124D02*
X10342689Y-16906600D01*
X10342689Y-16906600D02*
X10352213Y-16897076D01*
X10352213Y-16897076D02*
X10352213Y-16916124D01*
X10542689Y-16716124D02*
X10447451Y-16716124D01*
X10447451Y-16716124D02*
X10437927Y-16811362D01*
X10437927Y-16811362D02*
X10447451Y-16801838D01*
X10447451Y-16801838D02*
X10466499Y-16792314D01*
X10466499Y-16792314D02*
X10514118Y-16792314D01*
X10514118Y-16792314D02*
X10533165Y-16801838D01*
X10533165Y-16801838D02*
X10542689Y-16811362D01*
X10542689Y-16811362D02*
X10552213Y-16830410D01*
X10552213Y-16830410D02*
X10552213Y-16878029D01*
X10552213Y-16878029D02*
X10542689Y-16897076D01*
X10542689Y-16897076D02*
X10533165Y-16906600D01*
X10533165Y-16906600D02*
X10514118Y-16916124D01*
X10514118Y-16916124D02*
X10466499Y-16916124D01*
X10466499Y-16916124D02*
X10447451Y-16906600D01*
X10447451Y-16906600D02*
X10437927Y-16897076D01*
X10733165Y-16716124D02*
X10637927Y-16716124D01*
X10637927Y-16716124D02*
X10628404Y-16811362D01*
X10628404Y-16811362D02*
X10637927Y-16801838D01*
X10637927Y-16801838D02*
X10656975Y-16792314D01*
X10656975Y-16792314D02*
X10704594Y-16792314D01*
X10704594Y-16792314D02*
X10723642Y-16801838D01*
X10723642Y-16801838D02*
X10733165Y-16811362D01*
X10733165Y-16811362D02*
X10742689Y-16830410D01*
X10742689Y-16830410D02*
X10742689Y-16878029D01*
X10742689Y-16878029D02*
X10733165Y-16897076D01*
X10733165Y-16897076D02*
X10723642Y-16906600D01*
X10723642Y-16906600D02*
X10704594Y-16916124D01*
X10704594Y-16916124D02*
X10656975Y-16916124D01*
X10656975Y-16916124D02*
X10637927Y-16906600D01*
X10637927Y-16906600D02*
X10628404Y-16897076D01*
X10866499Y-16716124D02*
X10885546Y-16716124D01*
X10885546Y-16716124D02*
X10904594Y-16725648D01*
X10904594Y-16725648D02*
X10914118Y-16735171D01*
X10914118Y-16735171D02*
X10923642Y-16754219D01*
X10923642Y-16754219D02*
X10933165Y-16792314D01*
X10933165Y-16792314D02*
X10933165Y-16839933D01*
X10933165Y-16839933D02*
X10923642Y-16878029D01*
X10923642Y-16878029D02*
X10914118Y-16897076D01*
X10914118Y-16897076D02*
X10904594Y-16906600D01*
X10904594Y-16906600D02*
X10885546Y-16916124D01*
X10885546Y-16916124D02*
X10866499Y-16916124D01*
X10866499Y-16916124D02*
X10847451Y-16906600D01*
X10847451Y-16906600D02*
X10837927Y-16897076D01*
X10837927Y-16897076D02*
X10828404Y-16878029D01*
X10828404Y-16878029D02*
X10818880Y-16839933D01*
X10818880Y-16839933D02*
X10818880Y-16792314D01*
X10818880Y-16792314D02*
X10828404Y-16754219D01*
X10828404Y-16754219D02*
X10837927Y-16735171D01*
X10837927Y-16735171D02*
X10847451Y-16725648D01*
X10847451Y-16725648D02*
X10866499Y-16716124D01*
X11018880Y-16916124D02*
X11018880Y-16782790D01*
X11018880Y-16801838D02*
X11028404Y-16792314D01*
X11028404Y-16792314D02*
X11047451Y-16782790D01*
X11047451Y-16782790D02*
X11076023Y-16782790D01*
X11076023Y-16782790D02*
X11095070Y-16792314D01*
X11095070Y-16792314D02*
X11104594Y-16811362D01*
X11104594Y-16811362D02*
X11104594Y-16916124D01*
X11104594Y-16811362D02*
X11114118Y-16792314D01*
X11114118Y-16792314D02*
X11133165Y-16782790D01*
X11133165Y-16782790D02*
X11161737Y-16782790D01*
X11161737Y-16782790D02*
X11180785Y-16792314D01*
X11180785Y-16792314D02*
X11190308Y-16811362D01*
X11190308Y-16811362D02*
X11190308Y-16916124D01*
X11285546Y-16916124D02*
X11285546Y-16782790D01*
X11285546Y-16801838D02*
X11295070Y-16792314D01*
X11295070Y-16792314D02*
X11314118Y-16782790D01*
X11314118Y-16782790D02*
X11342689Y-16782790D01*
X11342689Y-16782790D02*
X11361737Y-16792314D01*
X11361737Y-16792314D02*
X11371261Y-16811362D01*
X11371261Y-16811362D02*
X11371261Y-16916124D01*
X11371261Y-16811362D02*
X11380784Y-16792314D01*
X11380784Y-16792314D02*
X11399832Y-16782790D01*
X11399832Y-16782790D02*
X11428403Y-16782790D01*
X11428403Y-16782790D02*
X11447451Y-16792314D01*
X11447451Y-16792314D02*
X11456975Y-16811362D01*
X11456975Y-16811362D02*
X11456975Y-16916124D01*
X11847451Y-16706600D02*
X11676023Y-16963743D01*
X12104594Y-16716124D02*
X12123642Y-16716124D01*
X12123642Y-16716124D02*
X12142689Y-16725648D01*
X12142689Y-16725648D02*
X12152213Y-16735171D01*
X12152213Y-16735171D02*
X12161737Y-16754219D01*
X12161737Y-16754219D02*
X12171261Y-16792314D01*
X12171261Y-16792314D02*
X12171261Y-16839933D01*
X12171261Y-16839933D02*
X12161737Y-16878029D01*
X12161737Y-16878029D02*
X12152213Y-16897076D01*
X12152213Y-16897076D02*
X12142689Y-16906600D01*
X12142689Y-16906600D02*
X12123642Y-16916124D01*
X12123642Y-16916124D02*
X12104594Y-16916124D01*
X12104594Y-16916124D02*
X12085546Y-16906600D01*
X12085546Y-16906600D02*
X12076023Y-16897076D01*
X12076023Y-16897076D02*
X12066499Y-16878029D01*
X12066499Y-16878029D02*
X12056975Y-16839933D01*
X12056975Y-16839933D02*
X12056975Y-16792314D01*
X12056975Y-16792314D02*
X12066499Y-16754219D01*
X12066499Y-16754219D02*
X12076023Y-16735171D01*
X12076023Y-16735171D02*
X12085546Y-16725648D01*
X12085546Y-16725648D02*
X12104594Y-16716124D01*
X12256975Y-16897076D02*
X12266499Y-16906600D01*
X12266499Y-16906600D02*
X12256975Y-16916124D01*
X12256975Y-16916124D02*
X12247451Y-16906600D01*
X12247451Y-16906600D02*
X12256975Y-16897076D01*
X12256975Y-16897076D02*
X12256975Y-16916124D01*
X12390308Y-16716124D02*
X12409356Y-16716124D01*
X12409356Y-16716124D02*
X12428404Y-16725648D01*
X12428404Y-16725648D02*
X12437927Y-16735171D01*
X12437927Y-16735171D02*
X12447451Y-16754219D01*
X12447451Y-16754219D02*
X12456975Y-16792314D01*
X12456975Y-16792314D02*
X12456975Y-16839933D01*
X12456975Y-16839933D02*
X12447451Y-16878029D01*
X12447451Y-16878029D02*
X12437927Y-16897076D01*
X12437927Y-16897076D02*
X12428404Y-16906600D01*
X12428404Y-16906600D02*
X12409356Y-16916124D01*
X12409356Y-16916124D02*
X12390308Y-16916124D01*
X12390308Y-16916124D02*
X12371261Y-16906600D01*
X12371261Y-16906600D02*
X12361737Y-16897076D01*
X12361737Y-16897076D02*
X12352213Y-16878029D01*
X12352213Y-16878029D02*
X12342689Y-16839933D01*
X12342689Y-16839933D02*
X12342689Y-16792314D01*
X12342689Y-16792314D02*
X12352213Y-16754219D01*
X12352213Y-16754219D02*
X12361737Y-16735171D01*
X12361737Y-16735171D02*
X12371261Y-16725648D01*
X12371261Y-16725648D02*
X12390308Y-16716124D01*
X12628404Y-16716124D02*
X12590308Y-16716124D01*
X12590308Y-16716124D02*
X12571261Y-16725648D01*
X12571261Y-16725648D02*
X12561737Y-16735171D01*
X12561737Y-16735171D02*
X12542689Y-16763743D01*
X12542689Y-16763743D02*
X12533166Y-16801838D01*
X12533166Y-16801838D02*
X12533166Y-16878029D01*
X12533166Y-16878029D02*
X12542689Y-16897076D01*
X12542689Y-16897076D02*
X12552213Y-16906600D01*
X12552213Y-16906600D02*
X12571261Y-16916124D01*
X12571261Y-16916124D02*
X12609356Y-16916124D01*
X12609356Y-16916124D02*
X12628404Y-16906600D01*
X12628404Y-16906600D02*
X12637927Y-16897076D01*
X12637927Y-16897076D02*
X12647451Y-16878029D01*
X12647451Y-16878029D02*
X12647451Y-16830410D01*
X12647451Y-16830410D02*
X12637927Y-16811362D01*
X12637927Y-16811362D02*
X12628404Y-16801838D01*
X12628404Y-16801838D02*
X12609356Y-16792314D01*
X12609356Y-16792314D02*
X12571261Y-16792314D01*
X12571261Y-16792314D02*
X12552213Y-16801838D01*
X12552213Y-16801838D02*
X12542689Y-16811362D01*
X12542689Y-16811362D02*
X12533166Y-16830410D01*
X12837927Y-16916124D02*
X12723642Y-16916124D01*
X12780785Y-16916124D02*
X12780785Y-16716124D01*
X12780785Y-16716124D02*
X12761737Y-16744695D01*
X12761737Y-16744695D02*
X12742689Y-16763743D01*
X12742689Y-16763743D02*
X12723642Y-16773267D01*
X12961737Y-16716124D02*
X12980785Y-16716124D01*
X12980785Y-16716124D02*
X12999832Y-16725648D01*
X12999832Y-16725648D02*
X13009356Y-16735171D01*
X13009356Y-16735171D02*
X13018880Y-16754219D01*
X13018880Y-16754219D02*
X13028404Y-16792314D01*
X13028404Y-16792314D02*
X13028404Y-16839933D01*
X13028404Y-16839933D02*
X13018880Y-16878029D01*
X13018880Y-16878029D02*
X13009356Y-16897076D01*
X13009356Y-16897076D02*
X12999832Y-16906600D01*
X12999832Y-16906600D02*
X12980785Y-16916124D01*
X12980785Y-16916124D02*
X12961737Y-16916124D01*
X12961737Y-16916124D02*
X12942689Y-16906600D01*
X12942689Y-16906600D02*
X12933166Y-16897076D01*
X12933166Y-16897076D02*
X12923642Y-16878029D01*
X12923642Y-16878029D02*
X12914118Y-16839933D01*
X12914118Y-16839933D02*
X12914118Y-16792314D01*
X12914118Y-16792314D02*
X12923642Y-16754219D01*
X12923642Y-16754219D02*
X12933166Y-16735171D01*
X12933166Y-16735171D02*
X12942689Y-16725648D01*
X12942689Y-16725648D02*
X12961737Y-16716124D01*
X13104594Y-16716124D02*
X13104594Y-16754219D01*
X13180785Y-16716124D02*
X13180785Y-16754219D01*
X13476023Y-16992314D02*
X13466499Y-16982790D01*
X13466499Y-16982790D02*
X13447451Y-16954219D01*
X13447451Y-16954219D02*
X13437928Y-16935171D01*
X13437928Y-16935171D02*
X13428404Y-16906600D01*
X13428404Y-16906600D02*
X13418880Y-16858981D01*
X13418880Y-16858981D02*
X13418880Y-16820886D01*
X13418880Y-16820886D02*
X13428404Y-16773267D01*
X13428404Y-16773267D02*
X13437928Y-16744695D01*
X13437928Y-16744695D02*
X13447451Y-16725648D01*
X13447451Y-16725648D02*
X13466499Y-16697076D01*
X13466499Y-16697076D02*
X13476023Y-16687552D01*
X13656975Y-16916124D02*
X13542689Y-16916124D01*
X13599832Y-16916124D02*
X13599832Y-16716124D01*
X13599832Y-16716124D02*
X13580785Y-16744695D01*
X13580785Y-16744695D02*
X13561737Y-16763743D01*
X13561737Y-16763743D02*
X13542689Y-16773267D01*
X13780785Y-16716124D02*
X13799832Y-16716124D01*
X13799832Y-16716124D02*
X13818880Y-16725648D01*
X13818880Y-16725648D02*
X13828404Y-16735171D01*
X13828404Y-16735171D02*
X13837928Y-16754219D01*
X13837928Y-16754219D02*
X13847451Y-16792314D01*
X13847451Y-16792314D02*
X13847451Y-16839933D01*
X13847451Y-16839933D02*
X13837928Y-16878029D01*
X13837928Y-16878029D02*
X13828404Y-16897076D01*
X13828404Y-16897076D02*
X13818880Y-16906600D01*
X13818880Y-16906600D02*
X13799832Y-16916124D01*
X13799832Y-16916124D02*
X13780785Y-16916124D01*
X13780785Y-16916124D02*
X13761737Y-16906600D01*
X13761737Y-16906600D02*
X13752213Y-16897076D01*
X13752213Y-16897076D02*
X13742689Y-16878029D01*
X13742689Y-16878029D02*
X13733166Y-16839933D01*
X13733166Y-16839933D02*
X13733166Y-16792314D01*
X13733166Y-16792314D02*
X13742689Y-16754219D01*
X13742689Y-16754219D02*
X13752213Y-16735171D01*
X13752213Y-16735171D02*
X13761737Y-16725648D01*
X13761737Y-16725648D02*
X13780785Y-16716124D01*
X14085547Y-16916124D02*
X14085547Y-16716124D01*
X14171261Y-16916124D02*
X14171261Y-16811362D01*
X14171261Y-16811362D02*
X14161737Y-16792314D01*
X14161737Y-16792314D02*
X14142690Y-16782790D01*
X14142690Y-16782790D02*
X14114118Y-16782790D01*
X14114118Y-16782790D02*
X14095070Y-16792314D01*
X14095070Y-16792314D02*
X14085547Y-16801838D01*
X14295070Y-16916124D02*
X14276023Y-16906600D01*
X14276023Y-16906600D02*
X14266499Y-16897076D01*
X14266499Y-16897076D02*
X14256975Y-16878029D01*
X14256975Y-16878029D02*
X14256975Y-16820886D01*
X14256975Y-16820886D02*
X14266499Y-16801838D01*
X14266499Y-16801838D02*
X14276023Y-16792314D01*
X14276023Y-16792314D02*
X14295070Y-16782790D01*
X14295070Y-16782790D02*
X14323642Y-16782790D01*
X14323642Y-16782790D02*
X14342690Y-16792314D01*
X14342690Y-16792314D02*
X14352213Y-16801838D01*
X14352213Y-16801838D02*
X14361737Y-16820886D01*
X14361737Y-16820886D02*
X14361737Y-16878029D01*
X14361737Y-16878029D02*
X14352213Y-16897076D01*
X14352213Y-16897076D02*
X14342690Y-16906600D01*
X14342690Y-16906600D02*
X14323642Y-16916124D01*
X14323642Y-16916124D02*
X14295070Y-16916124D01*
X14476023Y-16916124D02*
X14456975Y-16906600D01*
X14456975Y-16906600D02*
X14447451Y-16887552D01*
X14447451Y-16887552D02*
X14447451Y-16716124D01*
X14628404Y-16906600D02*
X14609356Y-16916124D01*
X14609356Y-16916124D02*
X14571261Y-16916124D01*
X14571261Y-16916124D02*
X14552213Y-16906600D01*
X14552213Y-16906600D02*
X14542690Y-16887552D01*
X14542690Y-16887552D02*
X14542690Y-16811362D01*
X14542690Y-16811362D02*
X14552213Y-16792314D01*
X14552213Y-16792314D02*
X14571261Y-16782790D01*
X14571261Y-16782790D02*
X14609356Y-16782790D01*
X14609356Y-16782790D02*
X14628404Y-16792314D01*
X14628404Y-16792314D02*
X14637928Y-16811362D01*
X14637928Y-16811362D02*
X14637928Y-16830410D01*
X14637928Y-16830410D02*
X14542690Y-16849457D01*
X14714118Y-16906600D02*
X14733166Y-16916124D01*
X14733166Y-16916124D02*
X14771261Y-16916124D01*
X14771261Y-16916124D02*
X14790309Y-16906600D01*
X14790309Y-16906600D02*
X14799832Y-16887552D01*
X14799832Y-16887552D02*
X14799832Y-16878029D01*
X14799832Y-16878029D02*
X14790309Y-16858981D01*
X14790309Y-16858981D02*
X14771261Y-16849457D01*
X14771261Y-16849457D02*
X14742690Y-16849457D01*
X14742690Y-16849457D02*
X14723642Y-16839933D01*
X14723642Y-16839933D02*
X14714118Y-16820886D01*
X14714118Y-16820886D02*
X14714118Y-16811362D01*
X14714118Y-16811362D02*
X14723642Y-16792314D01*
X14723642Y-16792314D02*
X14742690Y-16782790D01*
X14742690Y-16782790D02*
X14771261Y-16782790D01*
X14771261Y-16782790D02*
X14790309Y-16792314D01*
X14866499Y-16992314D02*
X14876023Y-16982790D01*
X14876023Y-16982790D02*
X14895071Y-16954219D01*
X14895071Y-16954219D02*
X14904594Y-16935171D01*
X14904594Y-16935171D02*
X14914118Y-16906600D01*
X14914118Y-16906600D02*
X14923642Y-16858981D01*
X14923642Y-16858981D02*
X14923642Y-16820886D01*
X14923642Y-16820886D02*
X14914118Y-16773267D01*
X14914118Y-16773267D02*
X14904594Y-16744695D01*
X14904594Y-16744695D02*
X14895071Y-16725648D01*
X14895071Y-16725648D02*
X14876023Y-16697076D01*
X14876023Y-16697076D02*
X14866499Y-16687552D01*
X9700960Y-16999640D02*
X9900960Y-17199640D01*
X9900960Y-16999640D02*
X9700960Y-17199640D01*
X9800960Y-17199640D02*
X9900960Y-17099640D01*
X9800960Y-16999640D01*
X9700960Y-17099640D01*
X9800960Y-17199640D01*
X10152213Y-17010171D02*
X10161737Y-17000648D01*
X10161737Y-17000648D02*
X10180784Y-16991124D01*
X10180784Y-16991124D02*
X10228404Y-16991124D01*
X10228404Y-16991124D02*
X10247451Y-17000648D01*
X10247451Y-17000648D02*
X10256975Y-17010171D01*
X10256975Y-17010171D02*
X10266499Y-17029219D01*
X10266499Y-17029219D02*
X10266499Y-17048267D01*
X10266499Y-17048267D02*
X10256975Y-17076838D01*
X10256975Y-17076838D02*
X10142689Y-17191124D01*
X10142689Y-17191124D02*
X10266499Y-17191124D01*
X10352213Y-17172076D02*
X10361737Y-17181600D01*
X10361737Y-17181600D02*
X10352213Y-17191124D01*
X10352213Y-17191124D02*
X10342689Y-17181600D01*
X10342689Y-17181600D02*
X10352213Y-17172076D01*
X10352213Y-17172076D02*
X10352213Y-17191124D01*
X10542689Y-16991124D02*
X10447451Y-16991124D01*
X10447451Y-16991124D02*
X10437927Y-17086362D01*
X10437927Y-17086362D02*
X10447451Y-17076838D01*
X10447451Y-17076838D02*
X10466499Y-17067314D01*
X10466499Y-17067314D02*
X10514118Y-17067314D01*
X10514118Y-17067314D02*
X10533165Y-17076838D01*
X10533165Y-17076838D02*
X10542689Y-17086362D01*
X10542689Y-17086362D02*
X10552213Y-17105410D01*
X10552213Y-17105410D02*
X10552213Y-17153029D01*
X10552213Y-17153029D02*
X10542689Y-17172076D01*
X10542689Y-17172076D02*
X10533165Y-17181600D01*
X10533165Y-17181600D02*
X10514118Y-17191124D01*
X10514118Y-17191124D02*
X10466499Y-17191124D01*
X10466499Y-17191124D02*
X10447451Y-17181600D01*
X10447451Y-17181600D02*
X10437927Y-17172076D01*
X10676023Y-16991124D02*
X10695070Y-16991124D01*
X10695070Y-16991124D02*
X10714118Y-17000648D01*
X10714118Y-17000648D02*
X10723642Y-17010171D01*
X10723642Y-17010171D02*
X10733165Y-17029219D01*
X10733165Y-17029219D02*
X10742689Y-17067314D01*
X10742689Y-17067314D02*
X10742689Y-17114933D01*
X10742689Y-17114933D02*
X10733165Y-17153029D01*
X10733165Y-17153029D02*
X10723642Y-17172076D01*
X10723642Y-17172076D02*
X10714118Y-17181600D01*
X10714118Y-17181600D02*
X10695070Y-17191124D01*
X10695070Y-17191124D02*
X10676023Y-17191124D01*
X10676023Y-17191124D02*
X10656975Y-17181600D01*
X10656975Y-17181600D02*
X10647451Y-17172076D01*
X10647451Y-17172076D02*
X10637927Y-17153029D01*
X10637927Y-17153029D02*
X10628404Y-17114933D01*
X10628404Y-17114933D02*
X10628404Y-17067314D01*
X10628404Y-17067314D02*
X10637927Y-17029219D01*
X10637927Y-17029219D02*
X10647451Y-17010171D01*
X10647451Y-17010171D02*
X10656975Y-17000648D01*
X10656975Y-17000648D02*
X10676023Y-16991124D01*
X10866499Y-16991124D02*
X10885546Y-16991124D01*
X10885546Y-16991124D02*
X10904594Y-17000648D01*
X10904594Y-17000648D02*
X10914118Y-17010171D01*
X10914118Y-17010171D02*
X10923642Y-17029219D01*
X10923642Y-17029219D02*
X10933165Y-17067314D01*
X10933165Y-17067314D02*
X10933165Y-17114933D01*
X10933165Y-17114933D02*
X10923642Y-17153029D01*
X10923642Y-17153029D02*
X10914118Y-17172076D01*
X10914118Y-17172076D02*
X10904594Y-17181600D01*
X10904594Y-17181600D02*
X10885546Y-17191124D01*
X10885546Y-17191124D02*
X10866499Y-17191124D01*
X10866499Y-17191124D02*
X10847451Y-17181600D01*
X10847451Y-17181600D02*
X10837927Y-17172076D01*
X10837927Y-17172076D02*
X10828404Y-17153029D01*
X10828404Y-17153029D02*
X10818880Y-17114933D01*
X10818880Y-17114933D02*
X10818880Y-17067314D01*
X10818880Y-17067314D02*
X10828404Y-17029219D01*
X10828404Y-17029219D02*
X10837927Y-17010171D01*
X10837927Y-17010171D02*
X10847451Y-17000648D01*
X10847451Y-17000648D02*
X10866499Y-16991124D01*
X11018880Y-17191124D02*
X11018880Y-17057790D01*
X11018880Y-17076838D02*
X11028404Y-17067314D01*
X11028404Y-17067314D02*
X11047451Y-17057790D01*
X11047451Y-17057790D02*
X11076023Y-17057790D01*
X11076023Y-17057790D02*
X11095070Y-17067314D01*
X11095070Y-17067314D02*
X11104594Y-17086362D01*
X11104594Y-17086362D02*
X11104594Y-17191124D01*
X11104594Y-17086362D02*
X11114118Y-17067314D01*
X11114118Y-17067314D02*
X11133165Y-17057790D01*
X11133165Y-17057790D02*
X11161737Y-17057790D01*
X11161737Y-17057790D02*
X11180785Y-17067314D01*
X11180785Y-17067314D02*
X11190308Y-17086362D01*
X11190308Y-17086362D02*
X11190308Y-17191124D01*
X11285546Y-17191124D02*
X11285546Y-17057790D01*
X11285546Y-17076838D02*
X11295070Y-17067314D01*
X11295070Y-17067314D02*
X11314118Y-17057790D01*
X11314118Y-17057790D02*
X11342689Y-17057790D01*
X11342689Y-17057790D02*
X11361737Y-17067314D01*
X11361737Y-17067314D02*
X11371261Y-17086362D01*
X11371261Y-17086362D02*
X11371261Y-17191124D01*
X11371261Y-17086362D02*
X11380784Y-17067314D01*
X11380784Y-17067314D02*
X11399832Y-17057790D01*
X11399832Y-17057790D02*
X11428403Y-17057790D01*
X11428403Y-17057790D02*
X11447451Y-17067314D01*
X11447451Y-17067314D02*
X11456975Y-17086362D01*
X11456975Y-17086362D02*
X11456975Y-17191124D01*
X11847451Y-16981600D02*
X11676023Y-17238743D01*
X12104594Y-16991124D02*
X12123642Y-16991124D01*
X12123642Y-16991124D02*
X12142689Y-17000648D01*
X12142689Y-17000648D02*
X12152213Y-17010171D01*
X12152213Y-17010171D02*
X12161737Y-17029219D01*
X12161737Y-17029219D02*
X12171261Y-17067314D01*
X12171261Y-17067314D02*
X12171261Y-17114933D01*
X12171261Y-17114933D02*
X12161737Y-17153029D01*
X12161737Y-17153029D02*
X12152213Y-17172076D01*
X12152213Y-17172076D02*
X12142689Y-17181600D01*
X12142689Y-17181600D02*
X12123642Y-17191124D01*
X12123642Y-17191124D02*
X12104594Y-17191124D01*
X12104594Y-17191124D02*
X12085546Y-17181600D01*
X12085546Y-17181600D02*
X12076023Y-17172076D01*
X12076023Y-17172076D02*
X12066499Y-17153029D01*
X12066499Y-17153029D02*
X12056975Y-17114933D01*
X12056975Y-17114933D02*
X12056975Y-17067314D01*
X12056975Y-17067314D02*
X12066499Y-17029219D01*
X12066499Y-17029219D02*
X12076023Y-17010171D01*
X12076023Y-17010171D02*
X12085546Y-17000648D01*
X12085546Y-17000648D02*
X12104594Y-16991124D01*
X12256975Y-17172076D02*
X12266499Y-17181600D01*
X12266499Y-17181600D02*
X12256975Y-17191124D01*
X12256975Y-17191124D02*
X12247451Y-17181600D01*
X12247451Y-17181600D02*
X12256975Y-17172076D01*
X12256975Y-17172076D02*
X12256975Y-17191124D01*
X12390308Y-16991124D02*
X12409356Y-16991124D01*
X12409356Y-16991124D02*
X12428404Y-17000648D01*
X12428404Y-17000648D02*
X12437927Y-17010171D01*
X12437927Y-17010171D02*
X12447451Y-17029219D01*
X12447451Y-17029219D02*
X12456975Y-17067314D01*
X12456975Y-17067314D02*
X12456975Y-17114933D01*
X12456975Y-17114933D02*
X12447451Y-17153029D01*
X12447451Y-17153029D02*
X12437927Y-17172076D01*
X12437927Y-17172076D02*
X12428404Y-17181600D01*
X12428404Y-17181600D02*
X12409356Y-17191124D01*
X12409356Y-17191124D02*
X12390308Y-17191124D01*
X12390308Y-17191124D02*
X12371261Y-17181600D01*
X12371261Y-17181600D02*
X12361737Y-17172076D01*
X12361737Y-17172076D02*
X12352213Y-17153029D01*
X12352213Y-17153029D02*
X12342689Y-17114933D01*
X12342689Y-17114933D02*
X12342689Y-17067314D01*
X12342689Y-17067314D02*
X12352213Y-17029219D01*
X12352213Y-17029219D02*
X12361737Y-17010171D01*
X12361737Y-17010171D02*
X12371261Y-17000648D01*
X12371261Y-17000648D02*
X12390308Y-16991124D01*
X12552213Y-17191124D02*
X12590308Y-17191124D01*
X12590308Y-17191124D02*
X12609356Y-17181600D01*
X12609356Y-17181600D02*
X12618880Y-17172076D01*
X12618880Y-17172076D02*
X12637927Y-17143505D01*
X12637927Y-17143505D02*
X12647451Y-17105410D01*
X12647451Y-17105410D02*
X12647451Y-17029219D01*
X12647451Y-17029219D02*
X12637927Y-17010171D01*
X12637927Y-17010171D02*
X12628404Y-17000648D01*
X12628404Y-17000648D02*
X12609356Y-16991124D01*
X12609356Y-16991124D02*
X12571261Y-16991124D01*
X12571261Y-16991124D02*
X12552213Y-17000648D01*
X12552213Y-17000648D02*
X12542689Y-17010171D01*
X12542689Y-17010171D02*
X12533166Y-17029219D01*
X12533166Y-17029219D02*
X12533166Y-17076838D01*
X12533166Y-17076838D02*
X12542689Y-17095886D01*
X12542689Y-17095886D02*
X12552213Y-17105410D01*
X12552213Y-17105410D02*
X12571261Y-17114933D01*
X12571261Y-17114933D02*
X12609356Y-17114933D01*
X12609356Y-17114933D02*
X12628404Y-17105410D01*
X12628404Y-17105410D02*
X12637927Y-17095886D01*
X12637927Y-17095886D02*
X12647451Y-17076838D01*
X12761737Y-17076838D02*
X12742689Y-17067314D01*
X12742689Y-17067314D02*
X12733166Y-17057790D01*
X12733166Y-17057790D02*
X12723642Y-17038743D01*
X12723642Y-17038743D02*
X12723642Y-17029219D01*
X12723642Y-17029219D02*
X12733166Y-17010171D01*
X12733166Y-17010171D02*
X12742689Y-17000648D01*
X12742689Y-17000648D02*
X12761737Y-16991124D01*
X12761737Y-16991124D02*
X12799832Y-16991124D01*
X12799832Y-16991124D02*
X12818880Y-17000648D01*
X12818880Y-17000648D02*
X12828404Y-17010171D01*
X12828404Y-17010171D02*
X12837927Y-17029219D01*
X12837927Y-17029219D02*
X12837927Y-17038743D01*
X12837927Y-17038743D02*
X12828404Y-17057790D01*
X12828404Y-17057790D02*
X12818880Y-17067314D01*
X12818880Y-17067314D02*
X12799832Y-17076838D01*
X12799832Y-17076838D02*
X12761737Y-17076838D01*
X12761737Y-17076838D02*
X12742689Y-17086362D01*
X12742689Y-17086362D02*
X12733166Y-17095886D01*
X12733166Y-17095886D02*
X12723642Y-17114933D01*
X12723642Y-17114933D02*
X12723642Y-17153029D01*
X12723642Y-17153029D02*
X12733166Y-17172076D01*
X12733166Y-17172076D02*
X12742689Y-17181600D01*
X12742689Y-17181600D02*
X12761737Y-17191124D01*
X12761737Y-17191124D02*
X12799832Y-17191124D01*
X12799832Y-17191124D02*
X12818880Y-17181600D01*
X12818880Y-17181600D02*
X12828404Y-17172076D01*
X12828404Y-17172076D02*
X12837927Y-17153029D01*
X12837927Y-17153029D02*
X12837927Y-17114933D01*
X12837927Y-17114933D02*
X12828404Y-17095886D01*
X12828404Y-17095886D02*
X12818880Y-17086362D01*
X12818880Y-17086362D02*
X12799832Y-17076838D01*
X13009356Y-17057790D02*
X13009356Y-17191124D01*
X12961737Y-16981600D02*
X12914118Y-17124457D01*
X12914118Y-17124457D02*
X13037927Y-17124457D01*
X13104594Y-16991124D02*
X13104594Y-17029219D01*
X13180785Y-16991124D02*
X13180785Y-17029219D01*
X13476023Y-17267314D02*
X13466499Y-17257790D01*
X13466499Y-17257790D02*
X13447451Y-17229219D01*
X13447451Y-17229219D02*
X13437928Y-17210171D01*
X13437928Y-17210171D02*
X13428404Y-17181600D01*
X13428404Y-17181600D02*
X13418880Y-17133981D01*
X13418880Y-17133981D02*
X13418880Y-17095886D01*
X13418880Y-17095886D02*
X13428404Y-17048267D01*
X13428404Y-17048267D02*
X13437928Y-17019695D01*
X13437928Y-17019695D02*
X13447451Y-17000648D01*
X13447451Y-17000648D02*
X13466499Y-16972076D01*
X13466499Y-16972076D02*
X13476023Y-16962552D01*
X13637928Y-17057790D02*
X13637928Y-17191124D01*
X13590308Y-16981600D02*
X13542689Y-17124457D01*
X13542689Y-17124457D02*
X13666499Y-17124457D01*
X13895070Y-17191124D02*
X13895070Y-16991124D01*
X13980785Y-17191124D02*
X13980785Y-17086362D01*
X13980785Y-17086362D02*
X13971261Y-17067314D01*
X13971261Y-17067314D02*
X13952213Y-17057790D01*
X13952213Y-17057790D02*
X13923642Y-17057790D01*
X13923642Y-17057790D02*
X13904594Y-17067314D01*
X13904594Y-17067314D02*
X13895070Y-17076838D01*
X14104594Y-17191124D02*
X14085547Y-17181600D01*
X14085547Y-17181600D02*
X14076023Y-17172076D01*
X14076023Y-17172076D02*
X14066499Y-17153029D01*
X14066499Y-17153029D02*
X14066499Y-17095886D01*
X14066499Y-17095886D02*
X14076023Y-17076838D01*
X14076023Y-17076838D02*
X14085547Y-17067314D01*
X14085547Y-17067314D02*
X14104594Y-17057790D01*
X14104594Y-17057790D02*
X14133166Y-17057790D01*
X14133166Y-17057790D02*
X14152213Y-17067314D01*
X14152213Y-17067314D02*
X14161737Y-17076838D01*
X14161737Y-17076838D02*
X14171261Y-17095886D01*
X14171261Y-17095886D02*
X14171261Y-17153029D01*
X14171261Y-17153029D02*
X14161737Y-17172076D01*
X14161737Y-17172076D02*
X14152213Y-17181600D01*
X14152213Y-17181600D02*
X14133166Y-17191124D01*
X14133166Y-17191124D02*
X14104594Y-17191124D01*
X14285547Y-17191124D02*
X14266499Y-17181600D01*
X14266499Y-17181600D02*
X14256975Y-17162552D01*
X14256975Y-17162552D02*
X14256975Y-16991124D01*
X14437928Y-17181600D02*
X14418880Y-17191124D01*
X14418880Y-17191124D02*
X14380785Y-17191124D01*
X14380785Y-17191124D02*
X14361737Y-17181600D01*
X14361737Y-17181600D02*
X14352213Y-17162552D01*
X14352213Y-17162552D02*
X14352213Y-17086362D01*
X14352213Y-17086362D02*
X14361737Y-17067314D01*
X14361737Y-17067314D02*
X14380785Y-17057790D01*
X14380785Y-17057790D02*
X14418880Y-17057790D01*
X14418880Y-17057790D02*
X14437928Y-17067314D01*
X14437928Y-17067314D02*
X14447451Y-17086362D01*
X14447451Y-17086362D02*
X14447451Y-17105410D01*
X14447451Y-17105410D02*
X14352213Y-17124457D01*
X14523642Y-17181600D02*
X14542690Y-17191124D01*
X14542690Y-17191124D02*
X14580785Y-17191124D01*
X14580785Y-17191124D02*
X14599832Y-17181600D01*
X14599832Y-17181600D02*
X14609356Y-17162552D01*
X14609356Y-17162552D02*
X14609356Y-17153029D01*
X14609356Y-17153029D02*
X14599832Y-17133981D01*
X14599832Y-17133981D02*
X14580785Y-17124457D01*
X14580785Y-17124457D02*
X14552213Y-17124457D01*
X14552213Y-17124457D02*
X14533166Y-17114933D01*
X14533166Y-17114933D02*
X14523642Y-17095886D01*
X14523642Y-17095886D02*
X14523642Y-17086362D01*
X14523642Y-17086362D02*
X14533166Y-17067314D01*
X14533166Y-17067314D02*
X14552213Y-17057790D01*
X14552213Y-17057790D02*
X14580785Y-17057790D01*
X14580785Y-17057790D02*
X14599832Y-17067314D01*
X14676023Y-17267314D02*
X14685547Y-17257790D01*
X14685547Y-17257790D02*
X14704594Y-17229219D01*
X14704594Y-17229219D02*
X14714118Y-17210171D01*
X14714118Y-17210171D02*
X14723642Y-17181600D01*
X14723642Y-17181600D02*
X14733166Y-17133981D01*
X14733166Y-17133981D02*
X14733166Y-17095886D01*
X14733166Y-17095886D02*
X14723642Y-17048267D01*
X14723642Y-17048267D02*
X14714118Y-17019695D01*
X14714118Y-17019695D02*
X14704594Y-17000648D01*
X14704594Y-17000648D02*
X14685547Y-16972076D01*
X14685547Y-16972076D02*
X14676023Y-16962552D01*
X9800960Y-17319640D02*
X9800960Y-17519640D01*
X9700960Y-17419640D02*
X9900960Y-17419640D01*
X9900960Y-17419640D02*
G75*
G03*
X9700960Y-17419640I-100000J0D01*
G01*
X9700960Y-17419640D02*
G75*
G03*
X9900960Y-17419640I100000J0D01*
G01*
X10142689Y-17311124D02*
X10266499Y-17311124D01*
X10266499Y-17311124D02*
X10199832Y-17387314D01*
X10199832Y-17387314D02*
X10228404Y-17387314D01*
X10228404Y-17387314D02*
X10247451Y-17396838D01*
X10247451Y-17396838D02*
X10256975Y-17406362D01*
X10256975Y-17406362D02*
X10266499Y-17425410D01*
X10266499Y-17425410D02*
X10266499Y-17473029D01*
X10266499Y-17473029D02*
X10256975Y-17492076D01*
X10256975Y-17492076D02*
X10247451Y-17501600D01*
X10247451Y-17501600D02*
X10228404Y-17511124D01*
X10228404Y-17511124D02*
X10171261Y-17511124D01*
X10171261Y-17511124D02*
X10152213Y-17501600D01*
X10152213Y-17501600D02*
X10142689Y-17492076D01*
X10352213Y-17492076D02*
X10361737Y-17501600D01*
X10361737Y-17501600D02*
X10352213Y-17511124D01*
X10352213Y-17511124D02*
X10342689Y-17501600D01*
X10342689Y-17501600D02*
X10352213Y-17492076D01*
X10352213Y-17492076D02*
X10352213Y-17511124D01*
X10437927Y-17330171D02*
X10447451Y-17320648D01*
X10447451Y-17320648D02*
X10466499Y-17311124D01*
X10466499Y-17311124D02*
X10514118Y-17311124D01*
X10514118Y-17311124D02*
X10533165Y-17320648D01*
X10533165Y-17320648D02*
X10542689Y-17330171D01*
X10542689Y-17330171D02*
X10552213Y-17349219D01*
X10552213Y-17349219D02*
X10552213Y-17368267D01*
X10552213Y-17368267D02*
X10542689Y-17396838D01*
X10542689Y-17396838D02*
X10428404Y-17511124D01*
X10428404Y-17511124D02*
X10552213Y-17511124D01*
X10676023Y-17311124D02*
X10695070Y-17311124D01*
X10695070Y-17311124D02*
X10714118Y-17320648D01*
X10714118Y-17320648D02*
X10723642Y-17330171D01*
X10723642Y-17330171D02*
X10733165Y-17349219D01*
X10733165Y-17349219D02*
X10742689Y-17387314D01*
X10742689Y-17387314D02*
X10742689Y-17434933D01*
X10742689Y-17434933D02*
X10733165Y-17473029D01*
X10733165Y-17473029D02*
X10723642Y-17492076D01*
X10723642Y-17492076D02*
X10714118Y-17501600D01*
X10714118Y-17501600D02*
X10695070Y-17511124D01*
X10695070Y-17511124D02*
X10676023Y-17511124D01*
X10676023Y-17511124D02*
X10656975Y-17501600D01*
X10656975Y-17501600D02*
X10647451Y-17492076D01*
X10647451Y-17492076D02*
X10637927Y-17473029D01*
X10637927Y-17473029D02*
X10628404Y-17434933D01*
X10628404Y-17434933D02*
X10628404Y-17387314D01*
X10628404Y-17387314D02*
X10637927Y-17349219D01*
X10637927Y-17349219D02*
X10647451Y-17330171D01*
X10647451Y-17330171D02*
X10656975Y-17320648D01*
X10656975Y-17320648D02*
X10676023Y-17311124D01*
X10866499Y-17311124D02*
X10885546Y-17311124D01*
X10885546Y-17311124D02*
X10904594Y-17320648D01*
X10904594Y-17320648D02*
X10914118Y-17330171D01*
X10914118Y-17330171D02*
X10923642Y-17349219D01*
X10923642Y-17349219D02*
X10933165Y-17387314D01*
X10933165Y-17387314D02*
X10933165Y-17434933D01*
X10933165Y-17434933D02*
X10923642Y-17473029D01*
X10923642Y-17473029D02*
X10914118Y-17492076D01*
X10914118Y-17492076D02*
X10904594Y-17501600D01*
X10904594Y-17501600D02*
X10885546Y-17511124D01*
X10885546Y-17511124D02*
X10866499Y-17511124D01*
X10866499Y-17511124D02*
X10847451Y-17501600D01*
X10847451Y-17501600D02*
X10837927Y-17492076D01*
X10837927Y-17492076D02*
X10828404Y-17473029D01*
X10828404Y-17473029D02*
X10818880Y-17434933D01*
X10818880Y-17434933D02*
X10818880Y-17387314D01*
X10818880Y-17387314D02*
X10828404Y-17349219D01*
X10828404Y-17349219D02*
X10837927Y-17330171D01*
X10837927Y-17330171D02*
X10847451Y-17320648D01*
X10847451Y-17320648D02*
X10866499Y-17311124D01*
X11018880Y-17511124D02*
X11018880Y-17377790D01*
X11018880Y-17396838D02*
X11028404Y-17387314D01*
X11028404Y-17387314D02*
X11047451Y-17377790D01*
X11047451Y-17377790D02*
X11076023Y-17377790D01*
X11076023Y-17377790D02*
X11095070Y-17387314D01*
X11095070Y-17387314D02*
X11104594Y-17406362D01*
X11104594Y-17406362D02*
X11104594Y-17511124D01*
X11104594Y-17406362D02*
X11114118Y-17387314D01*
X11114118Y-17387314D02*
X11133165Y-17377790D01*
X11133165Y-17377790D02*
X11161737Y-17377790D01*
X11161737Y-17377790D02*
X11180785Y-17387314D01*
X11180785Y-17387314D02*
X11190308Y-17406362D01*
X11190308Y-17406362D02*
X11190308Y-17511124D01*
X11285546Y-17511124D02*
X11285546Y-17377790D01*
X11285546Y-17396838D02*
X11295070Y-17387314D01*
X11295070Y-17387314D02*
X11314118Y-17377790D01*
X11314118Y-17377790D02*
X11342689Y-17377790D01*
X11342689Y-17377790D02*
X11361737Y-17387314D01*
X11361737Y-17387314D02*
X11371261Y-17406362D01*
X11371261Y-17406362D02*
X11371261Y-17511124D01*
X11371261Y-17406362D02*
X11380784Y-17387314D01*
X11380784Y-17387314D02*
X11399832Y-17377790D01*
X11399832Y-17377790D02*
X11428403Y-17377790D01*
X11428403Y-17377790D02*
X11447451Y-17387314D01*
X11447451Y-17387314D02*
X11456975Y-17406362D01*
X11456975Y-17406362D02*
X11456975Y-17511124D01*
X11847451Y-17301600D02*
X11676023Y-17558743D01*
X12104594Y-17311124D02*
X12123642Y-17311124D01*
X12123642Y-17311124D02*
X12142689Y-17320648D01*
X12142689Y-17320648D02*
X12152213Y-17330171D01*
X12152213Y-17330171D02*
X12161737Y-17349219D01*
X12161737Y-17349219D02*
X12171261Y-17387314D01*
X12171261Y-17387314D02*
X12171261Y-17434933D01*
X12171261Y-17434933D02*
X12161737Y-17473029D01*
X12161737Y-17473029D02*
X12152213Y-17492076D01*
X12152213Y-17492076D02*
X12142689Y-17501600D01*
X12142689Y-17501600D02*
X12123642Y-17511124D01*
X12123642Y-17511124D02*
X12104594Y-17511124D01*
X12104594Y-17511124D02*
X12085546Y-17501600D01*
X12085546Y-17501600D02*
X12076023Y-17492076D01*
X12076023Y-17492076D02*
X12066499Y-17473029D01*
X12066499Y-17473029D02*
X12056975Y-17434933D01*
X12056975Y-17434933D02*
X12056975Y-17387314D01*
X12056975Y-17387314D02*
X12066499Y-17349219D01*
X12066499Y-17349219D02*
X12076023Y-17330171D01*
X12076023Y-17330171D02*
X12085546Y-17320648D01*
X12085546Y-17320648D02*
X12104594Y-17311124D01*
X12256975Y-17492076D02*
X12266499Y-17501600D01*
X12266499Y-17501600D02*
X12256975Y-17511124D01*
X12256975Y-17511124D02*
X12247451Y-17501600D01*
X12247451Y-17501600D02*
X12256975Y-17492076D01*
X12256975Y-17492076D02*
X12256975Y-17511124D01*
X12456975Y-17511124D02*
X12342689Y-17511124D01*
X12399832Y-17511124D02*
X12399832Y-17311124D01*
X12399832Y-17311124D02*
X12380785Y-17339695D01*
X12380785Y-17339695D02*
X12361737Y-17358743D01*
X12361737Y-17358743D02*
X12342689Y-17368267D01*
X12533166Y-17330171D02*
X12542689Y-17320648D01*
X12542689Y-17320648D02*
X12561737Y-17311124D01*
X12561737Y-17311124D02*
X12609356Y-17311124D01*
X12609356Y-17311124D02*
X12628404Y-17320648D01*
X12628404Y-17320648D02*
X12637927Y-17330171D01*
X12637927Y-17330171D02*
X12647451Y-17349219D01*
X12647451Y-17349219D02*
X12647451Y-17368267D01*
X12647451Y-17368267D02*
X12637927Y-17396838D01*
X12637927Y-17396838D02*
X12523642Y-17511124D01*
X12523642Y-17511124D02*
X12647451Y-17511124D01*
X12818880Y-17311124D02*
X12780785Y-17311124D01*
X12780785Y-17311124D02*
X12761737Y-17320648D01*
X12761737Y-17320648D02*
X12752213Y-17330171D01*
X12752213Y-17330171D02*
X12733166Y-17358743D01*
X12733166Y-17358743D02*
X12723642Y-17396838D01*
X12723642Y-17396838D02*
X12723642Y-17473029D01*
X12723642Y-17473029D02*
X12733166Y-17492076D01*
X12733166Y-17492076D02*
X12742689Y-17501600D01*
X12742689Y-17501600D02*
X12761737Y-17511124D01*
X12761737Y-17511124D02*
X12799832Y-17511124D01*
X12799832Y-17511124D02*
X12818880Y-17501600D01*
X12818880Y-17501600D02*
X12828404Y-17492076D01*
X12828404Y-17492076D02*
X12837927Y-17473029D01*
X12837927Y-17473029D02*
X12837927Y-17425410D01*
X12837927Y-17425410D02*
X12828404Y-17406362D01*
X12828404Y-17406362D02*
X12818880Y-17396838D01*
X12818880Y-17396838D02*
X12799832Y-17387314D01*
X12799832Y-17387314D02*
X12761737Y-17387314D01*
X12761737Y-17387314D02*
X12742689Y-17396838D01*
X12742689Y-17396838D02*
X12733166Y-17406362D01*
X12733166Y-17406362D02*
X12723642Y-17425410D01*
X12961737Y-17311124D02*
X12980785Y-17311124D01*
X12980785Y-17311124D02*
X12999832Y-17320648D01*
X12999832Y-17320648D02*
X13009356Y-17330171D01*
X13009356Y-17330171D02*
X13018880Y-17349219D01*
X13018880Y-17349219D02*
X13028404Y-17387314D01*
X13028404Y-17387314D02*
X13028404Y-17434933D01*
X13028404Y-17434933D02*
X13018880Y-17473029D01*
X13018880Y-17473029D02*
X13009356Y-17492076D01*
X13009356Y-17492076D02*
X12999832Y-17501600D01*
X12999832Y-17501600D02*
X12980785Y-17511124D01*
X12980785Y-17511124D02*
X12961737Y-17511124D01*
X12961737Y-17511124D02*
X12942689Y-17501600D01*
X12942689Y-17501600D02*
X12933166Y-17492076D01*
X12933166Y-17492076D02*
X12923642Y-17473029D01*
X12923642Y-17473029D02*
X12914118Y-17434933D01*
X12914118Y-17434933D02*
X12914118Y-17387314D01*
X12914118Y-17387314D02*
X12923642Y-17349219D01*
X12923642Y-17349219D02*
X12933166Y-17330171D01*
X12933166Y-17330171D02*
X12942689Y-17320648D01*
X12942689Y-17320648D02*
X12961737Y-17311124D01*
X13104594Y-17311124D02*
X13104594Y-17349219D01*
X13180785Y-17311124D02*
X13180785Y-17349219D01*
X13476023Y-17587314D02*
X13466499Y-17577790D01*
X13466499Y-17577790D02*
X13447451Y-17549219D01*
X13447451Y-17549219D02*
X13437928Y-17530171D01*
X13437928Y-17530171D02*
X13428404Y-17501600D01*
X13428404Y-17501600D02*
X13418880Y-17453981D01*
X13418880Y-17453981D02*
X13418880Y-17415886D01*
X13418880Y-17415886D02*
X13428404Y-17368267D01*
X13428404Y-17368267D02*
X13437928Y-17339695D01*
X13437928Y-17339695D02*
X13447451Y-17320648D01*
X13447451Y-17320648D02*
X13466499Y-17292076D01*
X13466499Y-17292076D02*
X13476023Y-17282552D01*
X13637928Y-17377790D02*
X13637928Y-17511124D01*
X13590308Y-17301600D02*
X13542689Y-17444457D01*
X13542689Y-17444457D02*
X13666499Y-17444457D01*
X13895070Y-17511124D02*
X13895070Y-17311124D01*
X13980785Y-17511124D02*
X13980785Y-17406362D01*
X13980785Y-17406362D02*
X13971261Y-17387314D01*
X13971261Y-17387314D02*
X13952213Y-17377790D01*
X13952213Y-17377790D02*
X13923642Y-17377790D01*
X13923642Y-17377790D02*
X13904594Y-17387314D01*
X13904594Y-17387314D02*
X13895070Y-17396838D01*
X14104594Y-17511124D02*
X14085547Y-17501600D01*
X14085547Y-17501600D02*
X14076023Y-17492076D01*
X14076023Y-17492076D02*
X14066499Y-17473029D01*
X14066499Y-17473029D02*
X14066499Y-17415886D01*
X14066499Y-17415886D02*
X14076023Y-17396838D01*
X14076023Y-17396838D02*
X14085547Y-17387314D01*
X14085547Y-17387314D02*
X14104594Y-17377790D01*
X14104594Y-17377790D02*
X14133166Y-17377790D01*
X14133166Y-17377790D02*
X14152213Y-17387314D01*
X14152213Y-17387314D02*
X14161737Y-17396838D01*
X14161737Y-17396838D02*
X14171261Y-17415886D01*
X14171261Y-17415886D02*
X14171261Y-17473029D01*
X14171261Y-17473029D02*
X14161737Y-17492076D01*
X14161737Y-17492076D02*
X14152213Y-17501600D01*
X14152213Y-17501600D02*
X14133166Y-17511124D01*
X14133166Y-17511124D02*
X14104594Y-17511124D01*
X14285547Y-17511124D02*
X14266499Y-17501600D01*
X14266499Y-17501600D02*
X14256975Y-17482552D01*
X14256975Y-17482552D02*
X14256975Y-17311124D01*
X14437928Y-17501600D02*
X14418880Y-17511124D01*
X14418880Y-17511124D02*
X14380785Y-17511124D01*
X14380785Y-17511124D02*
X14361737Y-17501600D01*
X14361737Y-17501600D02*
X14352213Y-17482552D01*
X14352213Y-17482552D02*
X14352213Y-17406362D01*
X14352213Y-17406362D02*
X14361737Y-17387314D01*
X14361737Y-17387314D02*
X14380785Y-17377790D01*
X14380785Y-17377790D02*
X14418880Y-17377790D01*
X14418880Y-17377790D02*
X14437928Y-17387314D01*
X14437928Y-17387314D02*
X14447451Y-17406362D01*
X14447451Y-17406362D02*
X14447451Y-17425410D01*
X14447451Y-17425410D02*
X14352213Y-17444457D01*
X14523642Y-17501600D02*
X14542690Y-17511124D01*
X14542690Y-17511124D02*
X14580785Y-17511124D01*
X14580785Y-17511124D02*
X14599832Y-17501600D01*
X14599832Y-17501600D02*
X14609356Y-17482552D01*
X14609356Y-17482552D02*
X14609356Y-17473029D01*
X14609356Y-17473029D02*
X14599832Y-17453981D01*
X14599832Y-17453981D02*
X14580785Y-17444457D01*
X14580785Y-17444457D02*
X14552213Y-17444457D01*
X14552213Y-17444457D02*
X14533166Y-17434933D01*
X14533166Y-17434933D02*
X14523642Y-17415886D01*
X14523642Y-17415886D02*
X14523642Y-17406362D01*
X14523642Y-17406362D02*
X14533166Y-17387314D01*
X14533166Y-17387314D02*
X14552213Y-17377790D01*
X14552213Y-17377790D02*
X14580785Y-17377790D01*
X14580785Y-17377790D02*
X14599832Y-17387314D01*
X14676023Y-17587314D02*
X14685547Y-17577790D01*
X14685547Y-17577790D02*
X14704594Y-17549219D01*
X14704594Y-17549219D02*
X14714118Y-17530171D01*
X14714118Y-17530171D02*
X14723642Y-17501600D01*
X14723642Y-17501600D02*
X14733166Y-17453981D01*
X14733166Y-17453981D02*
X14733166Y-17415886D01*
X14733166Y-17415886D02*
X14723642Y-17368267D01*
X14723642Y-17368267D02*
X14714118Y-17339695D01*
X14714118Y-17339695D02*
X14704594Y-17320648D01*
X14704594Y-17320648D02*
X14685547Y-17292076D01*
X14685547Y-17292076D02*
X14676023Y-17282552D01*
M02*
